<svg width="518" height="310" viewBox="0 0 518 310" fill="none" xmlns="http://www.w3.org/2000/svg">
<g filter="url(#filter0_d)">
<rect x="6" y="102" width="254" height="194" rx="27" fill="white"/>
</g>
<g filter="url(#filter1_d)">
<rect x="320" y="6" width="184" height="202" rx="27" fill="white"/>
</g>
<line x1="22.9977" y1="162.527" x2="246.997" y2="161.5" stroke="#4ECDC4"/>
<path d="M26.1836 144.203L29.875 154.012L33.5576 144.203H36.4316V157H34.2168V152.781L34.4365 147.139L30.6572 157H29.0664L25.2959 147.147L25.5156 152.781V157H23.3008V144.203H26.1836ZM42.5225 151.428L44.8955 146.761H47.2422L43.5596 153.449V157H41.4326V153.335L37.8115 146.761H40.1582L42.5225 151.428ZM52.8145 157V146.761H56.6025C57.9033 146.761 58.8965 147.004 59.582 147.49C60.2734 147.971 60.6191 148.668 60.6191 149.582C60.6191 150.045 60.4873 150.47 60.2236 150.856C59.9658 151.237 59.5703 151.53 59.0371 151.735C59.5996 151.87 60.0449 152.148 60.373 152.57C60.7012 152.986 60.8652 153.484 60.8652 154.064C60.8652 155.02 60.5342 155.749 59.8721 156.253C59.21 156.751 58.2314 157 56.9365 157H52.8145ZM54.9502 152.544V155.295H56.9541C57.5518 155.295 57.9971 155.172 58.29 154.926C58.583 154.674 58.7295 154.357 58.7295 153.977C58.7295 153.051 58.2021 152.573 57.1475 152.544H54.9502ZM54.9502 151.05H56.8135C57.3467 151.038 57.7568 150.927 58.0439 150.716C58.3369 150.505 58.4834 150.197 58.4834 149.793C58.4834 149.33 58.3311 148.996 58.0264 148.791C57.7275 148.586 57.2822 148.483 56.6904 148.483H54.9502V151.05ZM64.917 157H62.79V146.761H64.917V157ZM69.2588 155.295H74.1367V157H67.123V146.761H69.2588V155.295ZM77.6436 155.295H82.5215V157H75.5078V146.761H77.6436V155.295ZM89.623 154.311C89.623 153.924 89.4707 153.616 89.166 153.388C88.8613 153.153 88.2607 152.925 87.3643 152.702C86.4736 152.479 85.7705 152.225 85.2549 151.938C84.7393 151.65 84.3584 151.316 84.1123 150.936C83.8721 150.549 83.752 150.086 83.752 149.547C83.752 148.691 84.1123 147.991 84.833 147.446C85.5537 146.896 86.4854 146.62 87.6279 146.62C88.8584 146.62 89.8457 146.913 90.5898 147.499C91.334 148.085 91.7061 148.847 91.7061 149.784H89.5703C89.5703 149.31 89.3945 148.938 89.043 148.668C88.6914 148.393 88.2197 148.255 87.6279 148.255C87.0713 148.255 86.6318 148.369 86.3096 148.598C85.9873 148.82 85.8262 149.119 85.8262 149.494C85.8262 149.834 85.9902 150.115 86.3184 150.338C86.6523 150.561 87.2383 150.774 88.0762 150.979C89.3711 151.296 90.2998 151.715 90.8623 152.236C91.4248 152.758 91.7061 153.435 91.7061 154.267C91.7061 155.163 91.3428 155.866 90.6162 156.376C89.8896 156.886 88.9287 157.141 87.7334 157.141C86.9248 157.141 86.1836 157.006 85.5098 156.736C84.8418 156.461 84.3232 156.074 83.9541 155.576C83.585 155.078 83.4004 154.498 83.4004 153.836H85.5449C85.5449 154.961 86.2949 155.523 87.7949 155.523C88.3633 155.523 88.8086 155.415 89.1309 155.198C89.459 154.981 89.623 154.686 89.623 154.311Z" fill="#00A896"/>
<path d="M338.867 28.0156L341.484 22.625H343.672L339.859 29.8125V34H337.875V29.8125L334.055 22.625H336.25L338.867 28.0156ZM352.195 29.6562C352.195 31.0312 351.818 32.1198 351.062 32.9219C350.312 33.724 349.32 34.125 348.086 34.125C346.857 34.125 345.859 33.724 345.094 32.9219C344.328 32.1146 343.945 31.013 343.945 29.6172V29.2578C343.945 28.362 344.117 27.5729 344.461 26.8906C344.81 26.2031 345.297 25.6797 345.922 25.3203C346.547 24.9557 347.263 24.7734 348.07 24.7734C349.32 24.7734 350.32 25.1823 351.07 26C351.82 26.8125 352.195 27.9141 352.195 29.3047V29.6562ZM350.305 29.2422C350.305 28.2891 350.109 27.5625 349.719 27.0625C349.328 26.5625 348.779 26.3125 348.07 26.3125C347.372 26.3125 346.826 26.5625 346.43 27.0625C346.034 27.5625 345.836 28.2891 345.836 29.2422V29.6562C345.836 30.5833 346.034 31.3073 346.43 31.8281C346.831 32.3438 347.383 32.6016 348.086 32.6016C348.794 32.6016 349.341 32.349 349.727 31.8438C350.112 31.3333 350.305 30.6042 350.305 29.6562V29.2422ZM361.062 24.8984V30.8906C361.062 31.8802 360.727 32.6667 360.055 33.25C359.388 33.8333 358.484 34.125 357.344 34.125C356.203 34.125 355.299 33.8385 354.633 33.2656C353.966 32.6875 353.633 31.8958 353.633 30.8906V24.8984H355.516V30.8984C355.516 31.4974 355.68 31.9323 356.008 32.2031C356.336 32.474 356.781 32.6094 357.344 32.6094C358.536 32.6094 359.143 32.0573 359.164 30.9531V24.8984H361.062ZM366.422 30.6797H364.68V34H362.781V24.8984H366.344C367.479 24.8984 368.359 25.138 368.984 25.6172C369.609 26.0911 369.922 26.7708 369.922 27.6562C369.922 28.8802 369.336 29.7292 368.164 30.2031L370.305 33.9141V34H368.273L366.422 30.6797ZM364.68 29.1641H366.344C366.906 29.1641 367.328 29.0417 367.609 28.7969C367.891 28.5469 368.031 28.2188 368.031 27.8125C368.031 27.3906 367.893 27.0547 367.617 26.8047C367.346 26.5547 366.922 26.4297 366.344 26.4297H364.68V29.1641ZM381.664 31.0703C381.664 30.5703 381.487 30.1849 381.133 29.9141C380.784 29.6432 380.151 29.3698 379.234 29.0938C378.318 28.8177 377.589 28.5104 377.047 28.1719C376.01 27.5208 375.492 26.6719 375.492 25.625C375.492 24.7083 375.865 23.9531 376.609 23.3594C377.359 22.7656 378.331 22.4688 379.523 22.4688C380.315 22.4688 381.021 22.6146 381.641 22.9062C382.26 23.1979 382.747 23.6146 383.102 24.1562C383.456 24.6927 383.633 25.2891 383.633 25.9453H381.664C381.664 25.3516 381.477 24.888 381.102 24.5547C380.732 24.2161 380.201 24.0469 379.508 24.0469C378.862 24.0469 378.359 24.1849 378 24.4609C377.646 24.737 377.469 25.1224 377.469 25.6172C377.469 26.0339 377.661 26.3828 378.047 26.6641C378.432 26.9401 379.068 27.2109 379.953 27.4766C380.839 27.737 381.549 28.0365 382.086 28.375C382.622 28.7083 383.016 29.0938 383.266 29.5312C383.516 29.9635 383.641 30.4714 383.641 31.0547C383.641 32.0026 383.276 32.7578 382.547 33.3203C381.823 33.8776 380.839 34.1562 379.594 34.1562C378.771 34.1562 378.013 34.0052 377.32 33.7031C376.633 33.3958 376.096 32.974 375.711 32.4375C375.331 31.901 375.141 31.276 375.141 30.5625H377.117C377.117 31.2083 377.331 31.7083 377.758 32.0625C378.185 32.4167 378.797 32.5938 379.594 32.5938C380.281 32.5938 380.797 32.4557 381.141 32.1797C381.49 31.8984 381.664 31.5286 381.664 31.0703ZM390.711 32.0547H386.945L386.203 34H384.289L387.969 24.8984H389.711L393.375 34H391.453L390.711 32.0547ZM387.5 30.6094H390.156L388.828 27.1562L387.5 30.6094ZM397.328 31.5625L397.477 32.1641L397.617 31.5781L399.883 24.8984H401.891L398.438 34H396.516L393.07 24.8984H395.078L397.328 31.5625ZM404.898 34H403.008V24.8984H404.898V34ZM414.742 34H412.852L408.758 27.7891V34H406.859V24.8984H408.758L412.852 31.1172V24.8984H414.742V34ZM424.234 32.8516L424.055 33.0391C423.273 33.763 422.104 34.125 420.547 34.125C419.255 34.125 418.229 33.7318 417.469 32.9453C416.708 32.1589 416.328 31.0755 416.328 29.6953V29.1875C416.328 27.8073 416.69 26.7266 417.414 25.9453C418.138 25.1641 419.135 24.7734 420.406 24.7734C421.526 24.7734 422.411 25.0286 423.062 25.5391C423.714 26.0443 424.104 26.7969 424.234 27.7969H422.383C422.289 27.276 422.083 26.8958 421.766 26.6562C421.453 26.4167 421.016 26.2969 420.453 26.2969C418.974 26.2969 418.234 27.2734 418.234 29.2266V29.7266C418.234 30.6797 418.443 31.3984 418.859 31.8828C419.276 32.3672 419.87 32.6094 420.641 32.6094C421.411 32.6094 421.979 32.4609 422.344 32.1641V30.6016H420.398V29.2188H424.234V32.8516ZM430.984 31.6094C430.984 31.2656 430.849 30.9922 430.578 30.7891C430.307 30.5807 429.773 30.3776 428.977 30.1797C428.185 29.9818 427.56 29.7552 427.102 29.5C426.643 29.2448 426.305 28.9479 426.086 28.6094C425.872 28.2656 425.766 27.8542 425.766 27.375C425.766 26.6146 426.086 25.9922 426.727 25.5078C427.367 25.0182 428.195 24.7734 429.211 24.7734C430.305 24.7734 431.182 25.0339 431.844 25.5547C432.505 26.0755 432.836 26.7526 432.836 27.5859H430.938C430.938 27.1641 430.781 26.8333 430.469 26.5938C430.156 26.349 429.737 26.2266 429.211 26.2266C428.716 26.2266 428.326 26.3281 428.039 26.5312C427.753 26.7292 427.609 26.9948 427.609 27.3281C427.609 27.6302 427.755 27.8802 428.047 28.0781C428.344 28.276 428.865 28.4661 429.609 28.6484C430.76 28.9297 431.586 29.3021 432.086 29.7656C432.586 30.2292 432.836 30.8307 432.836 31.5703C432.836 32.3672 432.513 32.9922 431.867 33.4453C431.221 33.8984 430.367 34.125 429.305 34.125C428.586 34.125 427.927 34.0052 427.328 33.7656C426.734 33.5208 426.273 33.1771 425.945 32.7344C425.617 32.2917 425.453 31.776 425.453 31.1875H427.359C427.359 32.1875 428.026 32.6875 429.359 32.6875C429.865 32.6875 430.26 32.5911 430.547 32.3984C430.839 32.2057 430.984 31.9427 430.984 31.6094Z" fill="#00A896"/>
<path d="M26.8145 136.68H23.499V140H22.8984V132.891H27.3027V133.403H23.499V136.167H26.8145V136.68ZM32.9326 137.441C32.9326 138.242 32.7161 138.882 32.2832 139.36C31.8503 139.839 31.2692 140.078 30.54 140.078C29.8141 140.078 29.2314 139.837 28.792 139.355C28.3558 138.874 28.1377 138.228 28.1377 137.417V136.88C28.1377 136.356 28.2354 135.894 28.4307 135.493C28.626 135.093 28.9059 134.784 29.2705 134.565C29.6383 134.344 30.0583 134.233 30.5303 134.233C31.2367 134.233 31.8079 134.465 32.2441 134.927C32.6836 135.386 32.9131 136.004 32.9326 136.782V137.441ZM32.3564 136.87C32.3564 136.206 32.1921 135.687 31.8633 135.312C31.5378 134.935 31.0934 134.746 30.5303 134.746C29.9736 134.746 29.5309 134.935 29.2021 135.312C28.8766 135.687 28.7139 136.216 28.7139 136.899V137.441C28.7139 138.102 28.8783 138.623 29.207 139.004C29.5358 139.385 29.9801 139.575 30.54 139.575C31.1064 139.575 31.5508 139.386 31.873 139.009C32.1953 138.631 32.3564 138.102 32.3564 137.422V136.87ZM38.7627 137.441C38.7627 138.242 38.5462 138.882 38.1133 139.36C37.6803 139.839 37.0993 140.078 36.3701 140.078C35.6442 140.078 35.0615 139.837 34.6221 139.355C34.1859 138.874 33.9678 138.228 33.9678 137.417V136.88C33.9678 136.356 34.0654 135.894 34.2607 135.493C34.4561 135.093 34.736 134.784 35.1006 134.565C35.4684 134.344 35.8883 134.233 36.3604 134.233C37.0667 134.233 37.638 134.465 38.0742 134.927C38.5137 135.386 38.7432 136.004 38.7627 136.782V137.441ZM38.1865 136.87C38.1865 136.206 38.0221 135.687 37.6934 135.312C37.3678 134.935 36.9235 134.746 36.3604 134.746C35.8037 134.746 35.361 134.935 35.0322 135.312C34.7067 135.687 34.5439 136.216 34.5439 136.899V137.441C34.5439 138.102 34.7083 138.623 35.0371 139.004C35.3659 139.385 35.8102 139.575 36.3701 139.575C36.9365 139.575 37.3809 139.386 37.7031 139.009C38.0254 138.631 38.1865 138.102 38.1865 137.422V136.87ZM40.0371 140V134.312H41.7656C42.2669 134.312 42.7161 134.419 43.1133 134.634C43.5104 134.849 43.8197 135.153 44.041 135.547C44.2656 135.938 44.3812 136.379 44.3877 136.87V137.402C44.3877 137.907 44.2786 138.356 44.0605 138.75C43.8457 139.141 43.5381 139.445 43.1377 139.663C42.7406 139.881 42.2865 139.993 41.7754 140H40.0371ZM40.6182 134.814V139.507H41.7314C42.363 139.507 42.8659 139.316 43.2402 138.936C43.6178 138.555 43.8066 138.034 43.8066 137.373V136.909C43.8066 136.274 43.6227 135.767 43.2549 135.386C42.887 135.005 42.3857 134.814 41.751 134.814H40.6182Z" fill="#656380"/>
<circle cx="261.5" cy="114.5" r="30.5" fill="#02C39A"/>
<circle cx="261.5" cy="114.5" r="30.5" fill="url(#paint0_linear)"/>
<rect x="50" y="172" width="78" height="27" rx="5" fill="#02C39A"/>
<rect x="149" y="172" width="78" height="27" rx="5" fill="#02C39A"/>
<path d="M64.0996 184.837H67.2725V187.131H64.0996V190.717H61.6826V187.131H58.501V184.837H61.6826V181.4H64.0996V184.837ZM74.8662 192H72.3262V182.209L69.2939 183.149V181.084L74.5938 179.186H74.8662V192ZM87.6455 186.709C87.6455 188.479 87.2793 189.832 86.5469 190.77C85.8145 191.707 84.7422 192.176 83.3301 192.176C81.9355 192.176 80.8691 191.716 80.1309 190.796C79.3926 189.876 79.0146 188.558 78.9971 186.841V184.485C78.9971 182.698 79.3662 181.342 80.1045 180.416C80.8486 179.49 81.918 179.027 83.3125 179.027C84.707 179.027 85.7734 179.487 86.5117 180.407C87.25 181.321 87.6279 182.637 87.6455 184.354V186.709ZM85.1055 184.125C85.1055 183.064 84.959 182.294 84.666 181.813C84.3789 181.327 83.9277 181.084 83.3125 181.084C82.7148 181.084 82.2725 181.315 81.9854 181.778C81.7041 182.235 81.5547 182.953 81.5371 183.932V187.043C81.5371 188.086 81.6777 188.862 81.959 189.372C82.2461 189.876 82.7031 190.128 83.3301 190.128C83.9512 190.128 84.3994 189.885 84.6748 189.398C84.9502 188.912 85.0938 188.168 85.1055 187.166V184.125ZM89.6055 190.752C89.6055 190.348 89.7402 190.02 90.0098 189.768C90.2852 189.516 90.6279 189.39 91.0381 189.39C91.4541 189.39 91.7969 189.516 92.0664 189.768C92.3418 190.02 92.4795 190.348 92.4795 190.752C92.4795 191.15 92.3447 191.476 92.0752 191.728C91.8057 191.974 91.46 192.097 91.0381 192.097C90.6221 192.097 90.2793 191.974 90.0098 191.728C89.7402 191.476 89.6055 191.15 89.6055 190.752ZM103.378 192H94.6064V190.26L98.7461 185.848C99.3145 185.227 99.7334 184.685 100.003 184.222C100.278 183.759 100.416 183.319 100.416 182.903C100.416 182.335 100.272 181.89 99.9854 181.567C99.6982 181.239 99.2881 181.075 98.7549 181.075C98.1807 181.075 97.7266 181.274 97.3926 181.673C97.0645 182.065 96.9004 182.584 96.9004 183.229H94.3516C94.3516 182.449 94.5361 181.737 94.9053 181.093C95.2803 180.448 95.8076 179.944 96.4873 179.581C97.167 179.212 97.9375 179.027 98.7988 179.027C100.117 179.027 101.14 179.344 101.866 179.977C102.599 180.609 102.965 181.503 102.965 182.657C102.965 183.29 102.801 183.935 102.473 184.591C102.145 185.247 101.582 186.012 100.785 186.885L97.876 189.952H103.378V192ZM104.907 181.664C104.907 180.879 105.162 180.243 105.672 179.757C106.182 179.265 106.85 179.019 107.676 179.019C108.514 179.019 109.188 179.262 109.697 179.748C110.207 180.229 110.462 180.882 110.462 181.708V182.341C110.462 183.132 110.207 183.768 109.697 184.248C109.188 184.729 108.52 184.969 107.693 184.969C106.861 184.969 106.188 184.729 105.672 184.248C105.162 183.762 104.907 183.108 104.907 182.288V181.664ZM106.595 182.341C106.595 182.692 106.694 182.977 106.894 183.193C107.099 183.404 107.365 183.51 107.693 183.51C108.021 183.51 108.282 183.401 108.476 183.185C108.669 182.968 108.766 182.678 108.766 182.314V181.664C108.766 181.312 108.669 181.028 108.476 180.812C108.282 180.595 108.016 180.486 107.676 180.486C107.354 180.486 107.093 180.595 106.894 180.812C106.694 181.022 106.595 181.318 106.595 181.699V182.341ZM111.024 188.862C111.024 188.071 111.282 187.436 111.798 186.955C112.313 186.469 112.981 186.226 113.802 186.226C114.634 186.226 115.305 186.466 115.814 186.946C116.33 187.421 116.588 188.077 116.588 188.915V189.548C116.588 190.333 116.336 190.969 115.832 191.455C115.328 191.936 114.657 192.176 113.819 192.176C112.976 192.176 112.299 191.933 111.789 191.446C111.279 190.96 111.024 190.315 111.024 189.513V188.862ZM112.712 189.548C112.712 189.87 112.817 190.146 113.028 190.374C113.239 190.603 113.503 190.717 113.819 190.717C114.534 190.717 114.892 190.321 114.892 189.53V188.862C114.892 188.511 114.792 188.229 114.593 188.019C114.394 187.802 114.13 187.693 113.802 187.693C113.474 187.693 113.21 187.802 113.011 188.019C112.812 188.229 112.712 188.52 112.712 188.889V189.548ZM108.194 191.042L106.955 190.374L113.204 180.372L114.443 181.04L108.194 191.042Z" fill="white"/>
<path d="M163.1 184.837H166.272V187.131H163.1V190.717H160.683V187.131H157.501V184.837H160.683V181.4H163.1V184.837ZM173.77 188.634C173.77 188.153 173.635 187.772 173.365 187.491C173.102 187.204 172.65 186.94 172.012 186.7C171.373 186.46 170.822 186.223 170.359 185.988C169.896 185.748 169.498 185.476 169.164 185.171C168.836 184.86 168.578 184.497 168.391 184.081C168.209 183.665 168.118 183.17 168.118 182.596C168.118 181.605 168.435 180.794 169.067 180.161C169.7 179.528 170.541 179.159 171.59 179.054V177.173H172.996V179.08C174.033 179.227 174.845 179.66 175.431 180.381C176.017 181.096 176.31 182.024 176.31 183.167H173.77C173.77 182.464 173.623 181.939 173.33 181.594C173.043 181.242 172.656 181.066 172.17 181.066C171.689 181.066 171.317 181.204 171.054 181.479C170.79 181.749 170.658 182.124 170.658 182.604C170.658 183.05 170.787 183.407 171.045 183.677C171.303 183.946 171.78 184.222 172.478 184.503C173.181 184.784 173.758 185.051 174.209 185.303C174.66 185.549 175.041 185.83 175.352 186.146C175.662 186.457 175.899 186.814 176.063 187.219C176.228 187.617 176.31 188.083 176.31 188.616C176.31 189.612 175.999 190.421 175.378 191.042C174.757 191.663 173.901 192.029 172.812 192.141V193.89H171.414V192.149C170.213 192.021 169.281 191.596 168.619 190.875C167.963 190.148 167.635 189.185 167.635 187.983H170.175C170.175 188.681 170.339 189.217 170.667 189.592C171.001 189.961 171.479 190.146 172.1 190.146C172.615 190.146 173.022 190.011 173.321 189.741C173.62 189.466 173.77 189.097 173.77 188.634ZM186.373 182.604C186.373 183.226 186.218 183.776 185.907 184.257C185.597 184.737 185.169 185.121 184.624 185.408C185.245 185.707 185.737 186.12 186.101 186.647C186.464 187.169 186.646 187.784 186.646 188.493C186.646 189.63 186.259 190.529 185.485 191.191C184.712 191.848 183.66 192.176 182.33 192.176C181 192.176 179.945 191.845 179.166 191.183C178.387 190.521 177.997 189.624 177.997 188.493C177.997 187.784 178.179 187.166 178.542 186.639C178.905 186.111 179.395 185.701 180.01 185.408C179.465 185.121 179.037 184.737 178.727 184.257C178.422 183.776 178.27 183.226 178.27 182.604C178.27 181.515 178.633 180.647 179.359 180.003C180.086 179.353 181.073 179.027 182.321 179.027C183.563 179.027 184.548 179.35 185.274 179.994C186.007 180.633 186.373 181.503 186.373 182.604ZM184.097 188.309C184.097 187.752 183.936 187.307 183.613 186.973C183.291 186.639 182.857 186.472 182.312 186.472C181.773 186.472 181.343 186.639 181.021 186.973C180.698 187.301 180.537 187.746 180.537 188.309C180.537 188.854 180.695 189.293 181.012 189.627C181.328 189.961 181.768 190.128 182.33 190.128C182.881 190.128 183.312 189.967 183.622 189.645C183.938 189.322 184.097 188.877 184.097 188.309ZM183.833 182.728C183.833 182.229 183.701 181.831 183.438 181.532C183.174 181.228 182.802 181.075 182.321 181.075C181.847 181.075 181.478 181.222 181.214 181.515C180.95 181.808 180.818 182.212 180.818 182.728C180.818 183.237 180.95 183.647 181.214 183.958C181.478 184.269 181.85 184.424 182.33 184.424C182.811 184.424 183.18 184.269 183.438 183.958C183.701 183.647 183.833 183.237 183.833 182.728ZM194.31 186.885C193.647 187.535 192.874 187.86 191.989 187.86C190.858 187.86 189.953 187.474 189.273 186.7C188.594 185.921 188.254 184.872 188.254 183.554C188.254 182.716 188.436 181.948 188.799 181.251C189.168 180.548 189.681 180.003 190.337 179.616C190.993 179.224 191.731 179.027 192.552 179.027C193.396 179.027 194.146 179.238 194.802 179.66C195.458 180.082 195.968 180.688 196.331 181.479C196.694 182.271 196.879 183.176 196.885 184.195V185.136C196.885 187.269 196.354 188.944 195.294 190.163C194.233 191.382 192.73 192.032 190.785 192.114L190.161 192.123V190.005L190.724 189.996C192.933 189.896 194.128 188.859 194.31 186.885ZM192.613 185.918C193.023 185.918 193.375 185.812 193.668 185.602C193.967 185.391 194.192 185.136 194.345 184.837V183.791C194.345 182.93 194.181 182.262 193.853 181.787C193.524 181.312 193.085 181.075 192.534 181.075C192.024 181.075 191.605 181.31 191.277 181.778C190.949 182.241 190.785 182.824 190.785 183.527C190.785 184.225 190.943 184.799 191.26 185.25C191.582 185.695 192.033 185.918 192.613 185.918ZM198.941 190.752C198.941 190.348 199.076 190.02 199.346 189.768C199.621 189.516 199.964 189.39 200.374 189.39C200.79 189.39 201.133 189.516 201.402 189.768C201.678 190.02 201.815 190.348 201.815 190.752C201.815 191.15 201.681 191.476 201.411 191.728C201.142 191.974 200.796 192.097 200.374 192.097C199.958 192.097 199.615 191.974 199.346 191.728C199.076 191.476 198.941 191.15 198.941 190.752ZM210.112 192H207.572V182.209L204.54 183.149V181.084L209.84 179.186H210.112V192ZM160.454 205.477H161.808C162.452 205.477 162.93 205.315 163.24 204.993C163.551 204.671 163.706 204.243 163.706 203.71C163.706 203.194 163.551 202.793 163.24 202.506C162.936 202.219 162.514 202.075 161.975 202.075C161.488 202.075 161.081 202.21 160.753 202.479C160.425 202.743 160.261 203.089 160.261 203.517H157.721C157.721 202.849 157.899 202.251 158.257 201.724C158.62 201.19 159.124 200.774 159.769 200.476C160.419 200.177 161.134 200.027 161.913 200.027C163.267 200.027 164.327 200.353 165.095 201.003C165.862 201.647 166.246 202.538 166.246 203.675C166.246 204.261 166.067 204.8 165.71 205.292C165.353 205.784 164.884 206.162 164.304 206.426C165.024 206.684 165.561 207.07 165.912 207.586C166.27 208.102 166.448 208.711 166.448 209.414C166.448 210.551 166.032 211.462 165.2 212.147C164.374 212.833 163.278 213.176 161.913 213.176C160.636 213.176 159.59 212.839 158.775 212.165C157.967 211.491 157.562 210.601 157.562 209.493H160.103C160.103 209.974 160.281 210.366 160.639 210.671C161.002 210.976 161.447 211.128 161.975 211.128C162.578 211.128 163.05 210.97 163.39 210.653C163.735 210.331 163.908 209.906 163.908 209.379C163.908 208.102 163.205 207.463 161.799 207.463H160.454V205.477Z" fill="white"/>
<rect x="75" y="208" width="133" height="57" rx="4" fill="#F8F8F8"/>
<path d="M107 244L89 259.5H188V221L165 244L152 227L141 236L130 239.5L115 251L107 244Z" fill="#02C39A" fill-opacity="0.35"/>
<path d="M88 259.5L107 243.5L115 251L130 239L141 236L152.5 227L165 243.5L188.5 220" stroke="#00A896" stroke-width="2"/>
<path d="M216.172 110.326L214.235 107L212.298 110.326H213.396V112.265H213.397V117.752C213.409 118.667 213.708 119.387 214.295 119.91C214.883 120.434 215.675 120.696 216.673 120.696C217.687 120.696 218.485 120.426 219.068 119.887C219.656 119.348 219.949 118.615 219.949 117.688V112.107H218.182V117.746C218.166 118.778 217.663 119.294 216.673 119.294C216.2 119.294 215.828 119.167 215.558 118.915C215.292 118.659 215.159 118.254 215.159 117.699V112.107H215.157V110.326H216.172Z" fill="#00A896"/>
<path d="M191.763 118.84C191.763 118.634 191.659 118.473 191.452 118.357C191.249 118.236 190.92 118.13 190.466 118.037C188.955 117.722 188.2 117.086 188.2 116.128C188.2 115.57 188.432 115.104 188.898 114.732C189.368 114.355 189.98 114.167 190.736 114.167C191.542 114.167 192.186 114.355 192.667 114.732C193.153 115.108 193.395 115.597 193.395 116.198H191.699C191.699 115.957 191.62 115.76 191.464 115.604C191.307 115.445 191.063 115.366 190.73 115.366C190.444 115.366 190.223 115.43 190.067 115.558C189.91 115.686 189.832 115.849 189.832 116.047C189.832 116.233 189.92 116.384 190.096 116.501C190.276 116.613 190.577 116.712 191 116.797C191.423 116.879 191.779 116.972 192.068 117.077C192.965 117.402 193.413 117.967 193.413 118.77C193.413 119.344 193.164 119.809 192.667 120.166C192.17 120.519 191.528 120.696 190.742 120.696C190.209 120.696 189.736 120.603 189.321 120.417C188.91 120.226 188.587 119.968 188.352 119.643C188.117 119.313 188 118.958 188 118.578H189.609C189.624 118.877 189.736 119.105 189.943 119.264C190.151 119.423 190.429 119.503 190.777 119.503C191.102 119.503 191.346 119.443 191.511 119.323C191.679 119.198 191.763 119.037 191.763 118.84Z" fill="#00A896"/>
<path fill-rule="evenodd" clip-rule="evenodd" d="M198.192 120.579C198.114 120.428 198.057 120.24 198.022 120.015C197.611 120.469 197.076 120.696 196.419 120.696C195.796 120.696 195.28 120.517 194.869 120.16C194.462 119.804 194.258 119.354 194.258 118.811C194.258 118.143 194.507 117.631 195.004 117.274C195.505 116.918 196.227 116.737 197.17 116.733H197.951V116.373C197.951 116.082 197.875 115.849 197.722 115.674C197.573 115.5 197.337 115.412 197.012 115.412C196.726 115.412 196.501 115.48 196.337 115.616C196.176 115.752 196.096 115.938 196.096 116.175H194.399C194.399 115.81 194.513 115.473 194.74 115.162C194.967 114.852 195.288 114.609 195.703 114.435C196.117 114.256 196.583 114.167 197.1 114.167C197.883 114.167 198.503 114.363 198.961 114.755C199.423 115.143 199.654 115.69 199.654 116.396V119.125C199.658 119.722 199.742 120.174 199.906 120.481V120.579H198.192ZM196.789 119.41C197.039 119.41 197.27 119.356 197.481 119.247C197.693 119.134 197.849 118.985 197.951 118.799V117.717H197.317C196.468 117.717 196.016 118.008 195.961 118.589L195.955 118.688C195.955 118.898 196.029 119.07 196.178 119.206C196.327 119.342 196.53 119.41 196.789 119.41Z" fill="#00A896"/>
<path d="M203.241 118.525L204.421 114.284H206.194L204.051 120.579H202.431L200.288 114.284H202.061L203.241 118.525Z" fill="#00A896"/>
<path fill-rule="evenodd" clip-rule="evenodd" d="M209.787 120.696C208.855 120.696 208.096 120.413 207.509 119.846C206.926 119.28 206.634 118.525 206.634 117.583V117.42C206.634 116.788 206.757 116.223 207.004 115.727C207.25 115.226 207.599 114.842 208.049 114.575C208.503 114.303 209.02 114.167 209.599 114.167C210.468 114.167 211.151 114.439 211.648 114.982C212.149 115.525 212.399 116.295 212.399 117.292V117.978H208.354C208.409 118.39 208.573 118.719 208.847 118.968C209.125 119.216 209.476 119.34 209.898 119.34C210.552 119.34 211.063 119.105 211.431 118.636L212.264 119.561C212.01 119.918 211.665 120.197 211.231 120.399C210.796 120.597 210.315 120.696 209.787 120.696ZM209.593 115.529C209.256 115.529 208.982 115.641 208.771 115.866C208.564 116.091 208.431 116.413 208.372 116.832H210.732V116.698C210.724 116.326 210.622 116.039 210.427 115.837C210.231 115.632 209.953 115.529 209.593 115.529Z" fill="#00A896"/>
<path fill-rule="evenodd" clip-rule="evenodd" d="M227 117.49C227 118.459 226.777 119.237 226.331 119.823C225.888 120.405 225.29 120.696 224.534 120.696C223.892 120.696 223.374 120.475 222.978 120.032V123H221.282V114.284H222.855L222.914 114.9C223.325 114.412 223.861 114.167 224.523 114.167C225.305 114.167 225.914 114.454 226.348 115.028C226.783 115.603 227 116.394 227 117.402V117.49ZM225.303 117.368C225.303 116.782 225.198 116.33 224.986 116.012C224.779 115.694 224.476 115.535 224.076 115.535C223.544 115.535 223.178 115.736 222.978 116.14V118.717C223.186 119.133 223.556 119.34 224.088 119.34C224.898 119.34 225.303 118.683 225.303 117.368Z" fill="#00A896"/>
<path d="M474.172 23.3256L472.235 20L470.298 23.3256H471.396V25.2655H471.397V30.7516C471.409 31.667 471.708 32.3866 472.295 32.9103C472.883 33.434 473.675 33.6958 474.673 33.6958C475.687 33.6958 476.485 33.4262 477.068 32.887C477.656 32.3478 477.949 31.6147 477.949 30.6876V25.1074H476.182V30.7457C476.166 31.7776 475.663 32.2935 474.673 32.2935C474.2 32.2935 473.828 32.1674 473.558 31.9153C473.292 31.6593 473.159 31.2539 473.159 30.6992V25.1074H473.157V23.3256H474.172Z" fill="#00A896"/>
<path d="M449.763 31.8396C449.763 31.6341 449.659 31.4731 449.452 31.3567C449.249 31.2364 448.92 31.1298 448.466 31.0367C446.955 30.7225 446.2 30.0863 446.2 29.1281C446.2 28.5696 446.432 28.1041 446.898 27.7317C447.368 27.3554 447.98 27.1673 448.736 27.1673C449.542 27.1673 450.186 27.3554 450.667 27.7317C451.153 28.1079 451.395 28.5967 451.395 29.198H449.699C449.699 28.9575 449.62 28.7596 449.464 28.6045C449.307 28.4454 449.063 28.3659 448.73 28.3659C448.444 28.3659 448.223 28.4299 448.067 28.5579C447.91 28.6859 447.832 28.8489 447.832 29.0467C447.832 29.2329 447.92 29.3842 448.096 29.5005C448.276 29.613 448.577 29.712 449 29.7973C449.423 29.8788 449.779 29.9719 450.068 30.0766C450.965 30.4024 451.413 30.9668 451.413 31.7698C451.413 32.3439 451.164 32.8094 450.667 33.1663C450.17 33.5193 449.528 33.6958 448.742 33.6958C448.209 33.6958 447.736 33.6027 447.321 33.4165C446.91 33.2264 446.587 32.9685 446.352 32.6426C446.117 32.3129 446 31.958 446 31.5778H447.609C447.624 31.8765 447.736 32.1054 447.943 32.2644C448.151 32.4235 448.429 32.503 448.777 32.503C449.102 32.503 449.346 32.4429 449.511 32.3226C449.679 32.1985 449.763 32.0375 449.763 31.8396Z" fill="#00A896"/>
<path fill-rule="evenodd" clip-rule="evenodd" d="M456.192 33.5794C456.114 33.4281 456.057 33.24 456.022 33.015C455.611 33.4689 455.076 33.6958 454.419 33.6958C453.796 33.6958 453.28 33.5174 452.869 33.1605C452.462 32.8036 452.258 32.3536 452.258 31.8106C452.258 31.1433 452.507 30.6313 453.004 30.2744C453.505 29.9175 454.227 29.7372 455.17 29.7333H455.951V29.3725C455.951 29.0816 455.875 28.8489 455.722 28.6743C455.573 28.4997 455.337 28.4124 455.012 28.4124C454.726 28.4124 454.501 28.4803 454.337 28.6161C454.176 28.7519 454.096 28.9381 454.096 29.1747H452.399C452.399 28.8101 452.513 28.4726 452.74 28.1622C452.967 27.8519 453.288 27.6095 453.703 27.4349C454.117 27.2565 454.583 27.1673 455.1 27.1673C455.883 27.1673 456.503 27.3631 456.961 27.7549C457.423 28.1429 457.654 28.6898 457.654 29.3958V32.1248C457.658 32.7221 457.742 33.1741 457.906 33.4805V33.5794H456.192ZM454.789 32.4099C455.039 32.4099 455.27 32.3556 455.481 32.247C455.693 32.1345 455.849 31.9851 455.951 31.7989V30.7166H455.317C454.468 30.7166 454.016 31.0076 453.961 31.5894L453.955 31.6884C453.955 31.8978 454.029 32.0705 454.178 32.2062C454.327 32.342 454.53 32.4099 454.789 32.4099Z" fill="#00A896"/>
<path d="M461.241 31.5254L462.421 27.2836H464.194L462.051 33.5794H460.431L458.288 27.2836H460.061L461.241 31.5254Z" fill="#00A896"/>
<path fill-rule="evenodd" clip-rule="evenodd" d="M467.787 33.6958C466.855 33.6958 466.096 33.4126 465.509 32.8463C464.926 32.2799 464.634 31.5254 464.634 30.5828V30.4199C464.634 29.7876 464.757 29.2232 465.004 28.7267C465.25 28.2263 465.599 27.8422 466.049 27.5746C466.503 27.303 467.02 27.1673 467.599 27.1673C468.468 27.1673 469.151 27.4388 469.648 27.9819C470.149 28.5249 470.399 29.2949 470.399 30.2919V30.9785H466.354C466.409 31.3897 466.573 31.7194 466.847 31.9677C467.125 32.2159 467.476 32.3401 467.898 32.3401C468.552 32.3401 469.063 32.1054 469.431 31.636L470.264 32.5612C470.01 32.918 469.665 33.1973 469.231 33.3991C468.796 33.5969 468.315 33.6958 467.787 33.6958ZM467.593 28.5288C467.256 28.5288 466.982 28.6413 466.771 28.8663C466.564 29.0913 466.431 29.4133 466.372 29.8322H468.732V29.6984C468.724 29.326 468.622 29.0389 468.427 28.8372C468.231 28.6316 467.953 28.5288 467.593 28.5288Z" fill="#00A896"/>
<path fill-rule="evenodd" clip-rule="evenodd" d="M485 30.4897C485 31.4595 484.777 32.2373 484.331 32.823C483.888 33.4049 483.29 33.6958 482.534 33.6958C481.892 33.6958 481.374 33.4747 480.978 33.0325V36H479.282V27.2836H480.855L480.914 27.9004C481.325 27.4116 481.861 27.1673 482.523 27.1673C483.305 27.1673 483.914 27.4543 484.348 28.0284C484.783 28.6025 485 29.3939 485 30.4024V30.4897ZM483.303 30.3675C483.303 29.7818 483.198 29.3299 482.986 29.0118C482.779 28.6937 482.476 28.5346 482.076 28.5346C481.544 28.5346 481.178 28.7364 480.978 29.1398V31.7175C481.186 32.1325 481.556 32.3401 482.088 32.3401C482.898 32.3401 483.303 31.6825 483.303 30.3675Z" fill="#00A896"/>
<line x1="335" y1="40.5" x2="484" y2="40.5" stroke="#4ECDC4"/>
<g clip-path="url(#clip0)">
<path d="M359.144 58.3343C359.144 58.3343 358.543 60.6764 362.745 67.2969C366.946 73.9174 366.654 74.8552 366.412 76.7483C366.17 78.6415 366.184 79.678 363.743 82.0027C363.743 82.0027 356.429 84.4005 355.451 85.8956C354.474 87.3907 357.067 92.8266 357.067 92.8266C357.067 92.8266 359.557 99.4295 350.614 101.963C350.614 101.963 343.616 101.972 341.675 103.512C341.675 103.512 342.426 100.832 340.092 96.8915C337.757 92.9508 340.974 89.1087 340.974 89.1087C340.974 89.1087 343.563 87.6853 345.207 87.5754C346.851 87.4656 347.372 86.714 346.315 84.8273C346.315 84.8273 344.786 84.0311 342.668 85.7364C340.551 87.4417 338.969 88.6565 337.124 88.5132C335.28 88.3699 332.649 87.5929 330.922 84.184C329.195 80.7751 328.286 75.9554 326.993 73.755C325.7 71.5545 325 71.0721 325 71.0721C325 71.0721 326.634 72.3108 332.277 68.1058C337.92 63.9007 340.865 65.6999 340.865 65.6999C340.865 65.6999 345.4 66.9164 346.127 74.9014C346.127 74.9014 347.446 82.5106 350.126 77.9011C350.126 77.9011 349.219 75.3058 347.406 71.4844C345.593 67.6631 350.445 64.0663 353.997 62.8626C357.55 61.6588 359.144 58.3343 359.144 58.3343Z" fill="#02C39A"/>
<path d="M329.941 72.7582L329.925 72.7184C331.042 72.2535 336.19 75.0383 340.307 77.4569L340.285 77.4935C334.478 74.0829 330.804 72.4016 329.941 72.7582Z" fill="#444053"/>
<path d="M340.2 77.4409L340.245 77.4171C343.533 79.3516 347.477 81.8068 350.432 83.8003C350.713 83.9897 351.004 84.1776 351.303 84.3544L351.256 84.4292C350.958 84.2509 350.665 84.063 350.383 83.8719C347.431 81.8801 343.486 79.3739 340.2 77.4409Z" fill="#444053"/>
<path d="M351.17 84.3814L351.244 84.3241C357.17 87.8763 365.508 87.0309 365.581 87.0309L364.661 88.0738C364.588 88.0786 357.138 87.9575 351.17 84.3814Z" fill="#444053"/>
<path d="M356.918 63.6857C356.918 63.6857 354.978 69.0818 356.453 72.884C357.928 76.6862 354.858 86.1074 354.858 86.1074C354.858 86.1074 353.839 90.0704 352.2 91.0608C352.2 91.0608 349.823 94.008 348.429 94.3455C347.036 94.6831 343.831 97.6733 343.915 99.3276" stroke="#444053" stroke-miterlimit="10"/>
<path d="M359.543 64.0663C359.543 64.0663 358.175 66.8367 356.139 66.8129" stroke="#444053" stroke-miterlimit="10"/>
<path d="M362.285 67.6679C362.285 67.6679 361.458 71.4781 356.332 72.5433" stroke="#444053" stroke-miterlimit="10"/>
<path d="M364.42 73.3457C364.42 73.3457 362.008 77.2052 356.81 76.7355" stroke="#444053" stroke-miterlimit="10"/>
<path d="M363.969 80.576C363.969 80.576 359.43 83.5455 355.997 81.915" stroke="#444053" stroke-miterlimit="10"/>
<path d="M353.71 64.0663C353.71 64.0663 354.897 66.5724 356.209 65.8177" stroke="#444053" stroke-miterlimit="10"/>
<path d="M349.367 67.8733C349.367 67.8733 350.961 71.2361 355.951 70.6453" stroke="#444053" stroke-miterlimit="10"/>
<path d="M348.885 72.9302C348.885 72.9302 353.273 75.5924 356.832 74.8711" stroke="#444053" stroke-miterlimit="10"/>
<path d="M351.196 78.3198C351.196 78.3198 354.669 81.0855 356.298 80.4502" stroke="#444053" stroke-miterlimit="10"/>
<path d="M350.383 80.3818C350.383 80.3818 351.322 83.2876 350.399 83.8369" stroke="#444053" stroke-miterlimit="10"/>
<path d="M347.307 84.7397C347.307 84.7397 349.097 82.9643 348.598 82.6379" stroke="#444053" stroke-miterlimit="10"/>
<path d="M344.017 69.9926C344.017 69.9926 345.585 77.4266 343.549 79.4328" stroke="#444053" stroke-miterlimit="10"/>
<path d="M337.464 87.6805C337.464 87.6805 344.558 83.1315 345.177 80.4438" stroke="#444053" stroke-miterlimit="10"/>
<path d="M333.355 84.4738C333.355 84.4738 340.028 81.3673 341.838 78.3915" stroke="#444053" stroke-miterlimit="10"/>
<path d="M337.836 67.6105C337.836 67.6105 341.064 72.9891 339.047 76.7531" stroke="#444053" stroke-width="0.75" stroke-miterlimit="10"/>
<path d="M331.179 79.5888C331.179 79.5888 336.122 77.5906 337.121 75.6656" stroke="#444053" stroke-width="0.75" stroke-miterlimit="10"/>
<path d="M332.221 69.2505C332.221 69.2505 333.875 72.2949 333.105 73.618" stroke="#444053" stroke-width="0.75" stroke-miterlimit="10"/>
<path d="M349.353 87.2618C349.353 87.2618 353.817 86.6647 354.295 87.8286" stroke="#444053" stroke-miterlimit="10"/>
<path d="M356.491 96.3979C356.491 96.3979 356.25 91.5225 353.462 89.6373" stroke="#444053" stroke-miterlimit="10"/>
<path d="M344.249 89.2234C344.249 89.2234 348.935 89.7759 350.591 92.8282" stroke="#444053" stroke-miterlimit="10"/>
<path d="M352.108 99.9343C352.108 99.9343 352.832 96.3629 349.408 93.8376" stroke="#444053" stroke-miterlimit="10"/>
<path d="M340.873 93.5383C340.873 93.5383 344.76 93.3393 346.843 95.1847" stroke="#444053" stroke-miterlimit="10"/>
<path d="M346.231 100.598C346.231 100.598 345.867 97.7641 344.853 97.2275" stroke="#444053" stroke-miterlimit="10"/>
<path opacity="0.1" d="M406.524 88.4273C397.775 92.8234 388.207 94.7404 378.878 96.218C369.548 97.6956 360.131 98.834 350.937 101.923C345.025 103.91 338.776 107.128 335.862 112.128C333.052 116.928 334.09 122.047 335.576 126.508C336.692 129.863 338.127 133.258 341.182 135.309C343.306 136.732 346.063 137.399 348.378 138.611C356.432 142.822 357.738 152.7 356.44 161.787C355.831 166.05 354.785 170.368 354.799 174.546C354.814 178.724 356.021 182.864 359.34 185.331C362.631 187.777 367.573 188.274 372.415 187.879C382.255 187.083 392.149 183.008 401.572 178.63C422.437 168.938 442.424 157.383 462.365 145.857C469.741 141.592 477.151 137.305 483.941 132.253C487.712 129.448 491.436 126.225 493.177 122.369C495.395 117.474 493.703 112.142 489.232 109.94C481.738 106.246 469.208 111.116 462.746 106.292C459.176 103.636 458.71 98.7767 459.292 94.215C460.539 84.4133 465.693 73.6101 461.759 65.3162C459.058 59.6192 451.95 56.3042 444.188 57.1242C436.056 57.984 427.044 63.3227 424.62 70.5196C422.13 77.9314 414.25 84.5375 406.524 88.4273Z" fill="#02C39A"/>
<path opacity="0.1" d="M427.5 182.157C436.316 182.157 443.462 180.394 443.462 178.219C443.462 176.044 436.316 174.281 427.5 174.281C418.684 174.281 411.537 176.044 411.537 178.219C411.537 180.394 418.684 182.157 427.5 182.157Z" fill="#02C39A"/>
<path d="M496.008 78.608H348.463C347.363 78.608 346.471 79.4984 346.471 80.5967V162.333C346.471 163.432 347.363 164.322 348.463 164.322H496.008C497.108 164.322 498 163.432 498 162.333V80.5967C498 79.4984 497.108 78.608 496.008 78.608Z" fill="url(#paint1_linear)"/>
<path d="M495.785 79.8134H348.704C347.604 79.8134 346.712 80.7037 346.712 81.802V162.048C346.712 163.147 347.604 164.037 348.704 164.037H495.785C496.885 164.037 497.777 163.147 497.777 162.048V81.802C497.777 80.7037 496.885 79.8134 495.785 79.8134Z" fill="white"/>
<path d="M495.785 79.8134H348.704C347.604 79.8134 346.712 80.7037 346.712 81.802V162.048C346.712 163.147 347.604 164.037 348.704 164.037H495.785C496.885 164.037 497.777 163.147 497.777 162.048V81.802C497.777 80.7037 496.885 79.8134 495.785 79.8134Z" fill="white"/>
<path opacity="0.04" d="M495.785 79.8134H348.704C347.604 79.8134 346.712 80.7037 346.712 81.802V162.048C346.712 163.147 347.604 164.037 348.704 164.037H495.785C496.885 164.037 497.777 163.147 497.777 162.048V81.802C497.777 80.7037 496.885 79.8134 495.785 79.8134Z" fill="#5A5773"/>
<path d="M497.011 78.8469H347.481C347.277 78.8469 347.082 78.9276 346.938 79.0712C346.794 79.2148 346.714 79.4096 346.714 79.6127V82.8545H497.778V79.6127C497.778 79.4096 497.698 79.2148 497.554 79.0712C497.41 78.9276 497.215 78.8469 497.011 78.8469Z" fill="#5A5773"/>
<path d="M349.729 81.8832C350.301 81.8832 350.765 81.4199 350.765 80.8483C350.765 80.2767 350.301 79.8134 349.729 79.8134C349.156 79.8134 348.692 80.2767 348.692 80.8483C348.692 81.4199 349.156 81.8832 349.729 81.8832Z" fill="white"/>
<path d="M352.519 81.8832C353.092 81.8832 353.556 81.4199 353.556 80.8483C353.556 80.2767 353.092 79.8134 352.519 79.8134C351.947 79.8134 351.483 80.2767 351.483 80.8483C351.483 81.4199 351.947 81.8832 352.519 81.8832Z" fill="white"/>
<path d="M355.31 81.8832C355.882 81.8832 356.346 81.4199 356.346 80.8483C356.346 80.2767 355.882 79.8134 355.31 79.8134C354.737 79.8134 354.273 80.2767 354.273 80.8483C354.273 81.4199 354.737 81.8832 355.31 81.8832Z" fill="white"/>
<path opacity="0.1" d="M481.164 101.498H358.449C357.552 101.498 356.824 102.224 356.824 103.12V148.279C356.824 149.175 357.552 149.901 358.449 149.901H481.164C482.061 149.901 482.789 149.175 482.789 148.279V103.12C482.789 102.224 482.061 101.498 481.164 101.498Z" fill="#02C39A"/>
<path d="M484.194 99.9298L361.52 96.8076C360.622 96.7848 359.877 97.4925 359.854 98.3882L358.702 143.532C358.679 144.428 359.387 145.173 360.285 145.195L482.959 148.318C483.856 148.34 484.602 147.633 484.625 146.737L485.777 101.593C485.8 100.697 485.091 99.9527 484.194 99.9298Z" fill="white"/>
<path opacity="0.2" d="M378.737 107.037L466.485 109.265" stroke="#5A5773" stroke-miterlimit="10"/>
<path opacity="0.2" d="M378.564 113.882L466.311 116.11" stroke="#5A5773" stroke-miterlimit="10"/>
<path opacity="0.2" d="M378.39 120.725L466.137 122.953" stroke="#5A5773" stroke-miterlimit="10"/>
<path opacity="0.2" d="M378.214 127.57L465.964 129.798" stroke="#5A5773" stroke-miterlimit="10"/>
<path opacity="0.2" d="M386.19 125.915L385.968 134.616" stroke="#5A5773" stroke-miterlimit="10" stroke-dasharray="12 12"/>
<path opacity="0.2" d="M378.041 134.415L465.788 136.641" stroke="#5A5773" stroke-miterlimit="10"/>
<path opacity="0.2" d="M395.892 134.868L396.222 121.896" stroke="#5A5773" stroke-miterlimit="10" stroke-dasharray="12 12"/>
<path opacity="0.2" d="M453.94 120.87C452.375 121.006 450.848 120.13 449.912 119.21C448.942 118.254 448.239 117.079 447.56 115.936C447.345 115.575 447.122 115.202 446.897 114.842C445.712 112.967 444.529 111.706 443.175 110.873C442.679 110.568 442.147 110.325 441.592 110.15C441.539 110.276 441.462 110.392 441.367 110.491C441.162 110.704 440.881 110.827 440.586 110.833H440.533C440.268 110.826 440.014 110.725 439.817 110.548C439.62 110.37 439.492 110.129 439.457 109.867C438.955 109.89 438.459 109.992 437.988 110.167C436.596 110.691 435.539 111.817 434.578 112.927C433.414 114.267 432.291 115.673 431.245 117.108C431.033 117.398 430.82 117.689 430.608 117.982C429.472 119.565 428.299 121.2 426.781 122.479C424.743 124.204 422.292 124.948 420.224 124.469C417.743 123.894 415.969 121.705 414.701 119.861C414.541 119.622 414.382 119.383 414.21 119.14C413.027 117.388 411.804 115.578 409.999 114.522C407.621 113.129 404.338 113.369 402.186 115.091C401.137 115.93 400.349 117.07 399.585 118.172C399.324 118.55 399.053 118.942 398.774 119.318C397.339 121.243 395.892 122.287 394.333 122.514C393.715 122.582 393.091 122.582 392.472 122.514C392.061 122.485 391.635 122.453 391.219 122.464C390.181 122.508 389.171 122.82 388.289 123.369C387.407 123.918 386.683 124.685 386.185 125.596L385.965 134.761L454.896 136.512L455.282 121.35C455.164 121.414 455.034 121.452 454.9 121.463C454.765 121.473 454.631 121.455 454.504 121.41C454.377 121.365 454.262 121.294 454.164 121.201C454.067 121.108 453.991 120.996 453.94 120.872V120.87Z" fill="#02C39A"/>
<path opacity="0.2" d="M406.63 113.616L406.083 135.127" stroke="#5A5773" stroke-miterlimit="10" stroke-dasharray="12 12"/>
<path opacity="0.2" d="M416.243 121.846L415.898 135.375" stroke="#5A5773" stroke-miterlimit="10" stroke-dasharray="12 12"/>
<path opacity="0.2" d="M425.803 123.434L425.494 135.619" stroke="#5A5773" stroke-miterlimit="10" stroke-dasharray="12 12"/>
<path opacity="0.2" d="M435.082 112.529L434.488 135.847" stroke="#5A5773" stroke-miterlimit="10" stroke-dasharray="12 12"/>
<path opacity="0.2" d="M444.524 111.715L443.904 136.087" stroke="#5A5773" stroke-miterlimit="10" stroke-dasharray="12 12"/>
<path opacity="0.2" d="M454.982 120.878L454.587 136.358" stroke="#5A5773" stroke-miterlimit="10" stroke-dasharray="12 12"/>
<path d="M441.496 109.075C441.39 108.974 441.265 108.894 441.129 108.841C440.992 108.787 440.846 108.762 440.699 108.765C440.436 108.769 440.183 108.867 439.985 109.04C439.787 109.212 439.657 109.449 439.616 109.709C439.606 109.772 439.602 109.836 439.604 109.9C439.604 109.943 439.604 109.986 439.613 110.027C439.647 110.277 439.765 110.507 439.946 110.682C440.144 110.879 440.41 110.992 440.689 111H440.742C441.038 110.995 441.32 110.872 441.525 110.659C441.62 110.56 441.696 110.445 441.75 110.319C441.791 110.22 441.818 110.115 441.829 110.008C441.833 109.96 441.833 109.912 441.829 109.863C441.829 109.716 441.799 109.571 441.742 109.436C441.684 109.301 441.601 109.178 441.496 109.075ZM441.44 110.222C441.405 110.299 441.356 110.37 441.295 110.43C441.193 110.535 441.064 110.61 440.923 110.647C440.781 110.684 440.632 110.681 440.491 110.638C440.351 110.596 440.225 110.515 440.128 110.406C440.03 110.297 439.965 110.163 439.938 110.019C439.93 109.978 439.925 109.936 439.924 109.894C439.922 109.829 439.929 109.765 439.943 109.702C439.982 109.529 440.079 109.373 440.217 109.261C440.355 109.148 440.527 109.085 440.705 109.082H440.742C440.947 109.087 441.142 109.171 441.286 109.316C441.431 109.461 441.514 109.656 441.519 109.86C441.519 109.876 441.519 109.894 441.519 109.909C441.516 110.018 441.489 110.124 441.44 110.222Z" fill="#02C39A"/>
<path d="M454.992 121.625C455.52 121.625 455.949 121.197 455.949 120.67C455.949 120.142 455.52 119.714 454.992 119.714C454.464 119.714 454.035 120.142 454.035 120.67C454.035 121.197 454.464 121.625 454.992 121.625Z" fill="#02C39A"/>
<path d="M439.924 109.894C439.925 109.936 439.93 109.978 439.938 110.019C439.83 110.019 439.722 110.019 439.62 110.027C439.117 110.051 438.621 110.153 438.149 110.328C436.757 110.852 435.7 111.978 434.737 113.088C433.573 114.427 432.451 115.834 431.403 117.267C431.191 117.557 430.982 117.85 430.765 118.143C429.628 119.726 428.455 121.359 426.939 122.639C424.899 124.364 422.447 125.107 420.377 124.628C417.899 124.055 416.125 121.864 414.849 120.02C414.69 119.783 414.521 119.542 414.358 119.299C413.173 117.547 411.949 115.737 410.144 114.681C407.767 113.288 404.48 113.529 402.331 115.25C401.296 116.087 400.499 117.227 399.735 118.329C399.472 118.708 399.201 119.101 398.922 119.476C397.487 121.401 396.039 122.445 394.48 122.671C393.861 122.739 393.237 122.739 392.619 122.671C392.202 122.633 391.783 122.617 391.364 122.622C390.251 122.668 389.174 123.022 388.251 123.644C387.327 124.265 386.595 125.131 386.136 126.144L385.842 126.016C386.327 124.949 387.099 124.037 388.072 123.381C389.046 122.726 390.182 122.353 391.354 122.303C391.785 122.297 392.215 122.314 392.643 122.354C393.238 122.419 393.838 122.419 394.433 122.354C395.905 122.143 397.289 121.138 398.665 119.285C398.941 118.914 399.211 118.523 399.472 118.146C400.249 117.032 401.052 115.868 402.136 114.998C403.286 114.1 404.677 113.564 406.132 113.459C407.588 113.353 409.042 113.682 410.31 114.404C412.178 115.498 413.424 117.339 414.629 119.121C414.789 119.359 414.948 119.598 415.119 119.839C416.354 121.635 418.076 123.767 420.454 124.316C422.425 124.773 424.773 124.055 426.736 122.394C428.217 121.141 429.383 119.528 430.507 117.955C430.716 117.662 430.928 117.369 431.145 117.078C432.199 115.645 433.326 114.224 434.493 112.876C435.483 111.736 436.566 110.578 438.035 110.029C438.543 109.841 439.078 109.734 439.62 109.71C439.726 109.71 439.836 109.701 439.938 109.71C439.926 109.771 439.921 109.832 439.924 109.894Z" fill="#02C39A"/>
<path d="M455.048 120.819C453.177 121.517 451.2 120.475 450.075 119.37C449.105 118.415 448.402 117.238 447.723 116.095C447.507 115.735 447.284 115.361 447.058 115.003C445.873 113.126 444.69 111.865 443.335 111.032C442.838 110.728 442.307 110.486 441.751 110.311C441.649 110.277 441.546 110.249 441.432 110.222C441.481 110.125 441.508 110.019 441.511 109.911C441.616 109.938 441.719 109.968 441.829 110C442.415 110.184 442.976 110.439 443.499 110.761C444.899 111.62 446.114 112.912 447.326 114.833C447.554 115.196 447.777 115.57 447.995 115.934C448.665 117.059 449.357 118.222 450.296 119.143C451.353 120.181 453.205 121.166 454.935 120.522L455.048 120.819Z" fill="#02C39A"/>
<path opacity="0.5" d="M381.88 105.689L378.915 105.613C378.836 105.611 378.77 105.674 378.768 105.753L378.738 106.899C378.736 106.978 378.799 107.044 378.878 107.046L381.843 107.121C381.922 107.123 381.988 107.061 381.99 106.981L382.019 105.835C382.021 105.756 381.959 105.691 381.88 105.689Z" fill="#02C39A"/>
<path d="M381.703 112.532L378.739 112.456C378.659 112.454 378.594 112.517 378.592 112.596L378.562 113.742C378.56 113.821 378.623 113.887 378.702 113.889L381.667 113.964C381.746 113.966 381.812 113.904 381.814 113.825L381.843 112.679C381.845 112.599 381.783 112.534 381.703 112.532Z" fill="#02C39A"/>
<path opacity="0.5" d="M381.529 119.378L378.564 119.302C378.485 119.3 378.419 119.363 378.417 119.442L378.388 120.588C378.386 120.667 378.448 120.733 378.527 120.735L381.492 120.81C381.572 120.812 381.637 120.75 381.639 120.671L381.669 119.525C381.671 119.446 381.608 119.38 381.529 119.378Z" fill="#02C39A"/>
<path opacity="0.5" d="M381.354 126.221L378.389 126.145C378.31 126.143 378.244 126.206 378.242 126.285L378.213 127.431C378.211 127.51 378.274 127.576 378.353 127.578L381.318 127.653C381.397 127.656 381.463 127.593 381.465 127.514L381.494 126.368C381.496 126.289 381.433 126.223 381.354 126.221Z" fill="#02C39A"/>
<path opacity="0.5" d="M381.18 133.066L378.215 132.99C378.136 132.988 378.07 133.051 378.068 133.13L378.039 134.276C378.037 134.355 378.099 134.421 378.178 134.423L381.143 134.498C381.222 134.5 381.288 134.438 381.29 134.359L381.319 133.213C381.321 133.133 381.259 133.068 381.18 133.066Z" fill="#02C39A"/>
<path opacity="0.5" d="M387.212 136.086L384.248 136.01C384.168 136.008 384.102 136.071 384.1 136.15L384.071 137.296C384.069 137.375 384.132 137.441 384.211 137.443L387.176 137.518C387.255 137.52 387.321 137.458 387.323 137.379L387.352 136.233C387.354 136.154 387.292 136.088 387.212 136.086Z" fill="#02C39A"/>
<path opacity="0.5" d="M397.334 136.343L394.369 136.268C394.29 136.266 394.224 136.328 394.222 136.407L394.193 137.553C394.191 137.633 394.253 137.698 394.332 137.7L397.297 137.776C397.376 137.778 397.442 137.715 397.444 137.636L397.474 136.49C397.476 136.411 397.413 136.345 397.334 136.343Z" fill="#02C39A"/>
<path d="M407.164 137.044L404.198 136.955C404.119 136.953 404.053 137.015 404.05 137.094L404.016 138.241C404.014 138.32 404.076 138.386 404.155 138.388L407.121 138.477C407.2 138.479 407.266 138.417 407.269 138.338L407.303 137.192C407.306 137.113 407.243 137.046 407.164 137.044Z" fill="#02C39A"/>
<path opacity="0.5" d="M417.34 136.852L414.375 136.777C414.295 136.775 414.23 136.837 414.228 136.916L414.198 138.062C414.196 138.141 414.259 138.207 414.338 138.209L417.303 138.285C417.382 138.287 417.448 138.224 417.45 138.145L417.479 136.999C417.481 136.92 417.419 136.854 417.34 136.852Z" fill="#02C39A"/>
<path opacity="0.5" d="M426.934 137.098L423.969 137.022C423.89 137.02 423.824 137.083 423.822 137.162L423.793 138.308C423.791 138.387 423.853 138.453 423.932 138.455L426.897 138.53C426.976 138.532 427.042 138.47 427.044 138.391L427.074 137.245C427.076 137.165 427.013 137.1 426.934 137.098Z" fill="#02C39A"/>
<path d="M435.927 137.325L432.963 137.249C432.884 137.247 432.818 137.31 432.816 137.389L432.786 138.535C432.784 138.614 432.847 138.68 432.926 138.682L435.891 138.757C435.97 138.759 436.036 138.697 436.038 138.618L436.067 137.472C436.069 137.393 436.007 137.327 435.927 137.325Z" fill="#02C39A"/>
<path d="M445.41 137.566L442.445 137.491C442.366 137.489 442.3 137.551 442.298 137.63L442.269 138.776C442.267 138.855 442.33 138.921 442.409 138.923L445.374 138.999C445.453 139.001 445.519 138.938 445.521 138.859L445.55 137.713C445.552 137.634 445.489 137.568 445.41 137.566Z" fill="#02C39A"/>
<path d="M455.602 138.496L452.793 138.412C452.671 138.409 452.568 138.505 452.565 138.627L452.535 139.617C452.531 139.739 452.628 139.842 452.75 139.845L455.559 139.929C455.682 139.933 455.784 139.837 455.788 139.715L455.817 138.724C455.821 138.602 455.725 138.5 455.602 138.496Z" fill="#02C39A"/>
<path d="M481.398 153.407C481.763 153.407 482.117 153.534 482.4 153.765C482.682 153.996 482.875 154.318 482.947 154.676C483.018 155.034 482.963 155.405 482.791 155.727C482.618 156.048 482.34 156.3 482.003 156.44C481.665 156.58 481.29 156.598 480.94 156.492C480.591 156.386 480.289 156.163 480.086 155.86C479.883 155.556 479.792 155.192 479.827 154.829C479.863 154.466 480.024 154.127 480.282 153.869C480.428 153.722 480.602 153.606 480.794 153.527C480.986 153.448 481.191 153.407 481.398 153.407ZM481.398 153.162C481.037 153.162 480.684 153.269 480.384 153.47C480.083 153.67 479.849 153.955 479.711 154.288C479.573 154.622 479.537 154.988 479.608 155.342C479.679 155.696 479.853 156.021 480.108 156.276C480.364 156.53 480.69 156.704 481.044 156.774C481.398 156.844 481.766 156.807 482.099 156.669C482.433 156.53 482.718 156.296 482.918 155.996C483.118 155.696 483.225 155.343 483.224 154.982C483.224 154.743 483.176 154.506 483.084 154.285C482.993 154.064 482.858 153.864 482.689 153.695C482.519 153.526 482.318 153.392 482.096 153.3C481.875 153.209 481.638 153.162 481.398 153.162Z" fill="#02C39A"/>
<path d="M480.909 155.52L481.004 155.393C481.098 155.484 481.223 155.536 481.354 155.538C481.513 155.538 481.639 155.457 481.639 155.328C481.639 155.199 481.523 155.095 481.201 155.095V154.949C481.488 154.949 481.596 154.853 481.596 154.729C481.596 154.605 481.499 154.546 481.357 154.546C481.245 154.549 481.138 154.593 481.055 154.668L480.953 154.546C481.067 154.446 481.213 154.389 481.365 154.387C481.612 154.387 481.795 154.506 481.795 154.715C481.795 154.861 481.688 154.958 481.532 155.011V155.019C481.613 155.027 481.687 155.064 481.743 155.122C481.8 155.18 481.833 155.257 481.838 155.337C481.838 155.563 481.625 155.7 481.37 155.7C481.284 155.704 481.2 155.689 481.12 155.658C481.041 155.627 480.969 155.58 480.909 155.52Z" fill="#02C39A"/>
<path d="M488.939 153.514C489.304 153.514 489.658 153.64 489.94 153.872C490.222 154.103 490.416 154.425 490.487 154.783C490.558 155.14 490.503 155.512 490.331 155.833C490.159 156.155 489.88 156.407 489.543 156.547C489.205 156.686 488.83 156.705 488.481 156.599C488.131 156.493 487.829 156.269 487.626 155.966C487.423 155.663 487.332 155.299 487.368 154.936C487.403 154.573 487.564 154.234 487.822 153.976C487.969 153.829 488.143 153.713 488.334 153.633C488.526 153.554 488.731 153.514 488.939 153.514ZM488.939 153.269C488.577 153.269 488.224 153.376 487.924 153.576C487.624 153.776 487.39 154.061 487.252 154.394C487.114 154.727 487.077 155.094 487.148 155.448C487.218 155.801 487.392 156.126 487.648 156.381C487.903 156.636 488.228 156.81 488.582 156.88C488.937 156.95 489.304 156.914 489.637 156.776C489.971 156.638 490.256 156.405 490.457 156.105C490.657 155.805 490.764 155.453 490.764 155.092C490.764 154.852 490.717 154.615 490.626 154.394C490.534 154.173 490.4 153.972 490.23 153.802C490.06 153.633 489.859 153.499 489.637 153.407C489.416 153.316 489.178 153.269 488.939 153.269Z" fill="#5A5773"/>
<path d="M488.962 154.901C488.962 154.823 488.962 154.724 488.974 154.646H488.962C488.918 154.715 488.867 154.783 488.822 154.852L488.503 155.267H489.366V155.434H488.28V155.301L488.927 154.45H489.165V155.804H488.967L488.962 154.901Z" fill="#5A5773"/>
<path d="M484.779 154.051C484.81 154.02 484.852 154.003 484.896 154.003C484.94 154.003 484.982 154.02 485.013 154.051L485.836 154.875C485.851 154.89 485.863 154.908 485.872 154.928C485.88 154.947 485.884 154.969 485.884 154.99C485.884 155.011 485.88 155.033 485.872 155.052C485.863 155.072 485.851 155.09 485.836 155.105L485.026 155.917C485.011 155.933 484.993 155.946 484.972 155.955C484.952 155.964 484.93 155.969 484.908 155.969C484.885 155.969 484.863 155.964 484.843 155.955C484.823 155.946 484.805 155.933 484.79 155.917C484.774 155.902 484.761 155.884 484.752 155.864C484.743 155.843 484.738 155.822 484.738 155.8C484.738 155.778 484.743 155.756 484.752 155.736C484.761 155.716 484.774 155.698 484.79 155.683L485.485 154.982L484.779 154.285C484.762 154.27 484.749 154.252 484.74 154.231C484.731 154.211 484.726 154.189 484.726 154.167C484.726 154.145 484.731 154.123 484.74 154.102C484.749 154.082 484.762 154.064 484.779 154.049V154.051Z" fill="#5A5773"/>
<path d="M483.375 154.982C483.375 155.337 483.48 155.683 483.676 155.978C483.873 156.274 484.153 156.504 484.481 156.64C484.809 156.776 485.17 156.811 485.518 156.742C485.867 156.673 486.187 156.503 486.438 156.252C486.689 156.001 486.86 155.682 486.929 155.334C486.998 154.986 486.962 154.626 486.826 154.298C486.69 153.971 486.459 153.691 486.164 153.495C485.868 153.298 485.521 153.193 485.166 153.194C484.691 153.194 484.236 153.383 483.9 153.718C483.565 154.053 483.376 154.508 483.375 154.982ZM483.651 154.982C483.651 154.631 483.772 154.29 483.995 154.019C484.217 153.747 484.528 153.56 484.872 153.491C485.217 153.423 485.575 153.475 485.886 153.64C486.196 153.806 486.439 154.073 486.574 154.397C486.709 154.722 486.727 155.083 486.625 155.419C486.523 155.755 486.308 156.045 486.015 156.241C485.723 156.436 485.372 156.524 485.022 156.489C484.672 156.455 484.345 156.3 484.096 156.052C483.955 155.912 483.842 155.745 483.766 155.562C483.69 155.378 483.651 155.181 483.651 154.982Z" fill="#5A5773"/>
<path opacity="0.2" d="M387.1 87.101H352.098C351.758 87.101 351.483 87.3761 351.483 87.7156V90.2838C351.483 90.6232 351.758 90.8984 352.098 90.8984H387.1C387.44 90.8984 387.716 90.6232 387.716 90.2838V87.7156C387.716 87.3761 387.44 87.101 387.1 87.101Z" fill="#5A5773"/>
<path d="M437.76 177.553C437.496 176.598 437.323 175.754 437.323 175.754C437.323 175.754 437.335 174.703 436.832 173.931L436.823 173.668L436.748 171.726C436.868 171.368 437.019 171.021 437.199 170.689C437.528 170.065 437.091 167.842 437.091 167.842C437.091 167.842 435.67 164.739 435.909 162.727C436.148 160.714 432.902 153.946 432.902 153.946C432.894 153.281 432.963 152.618 433.106 151.97C433.131 151.833 433.139 151.694 433.128 151.556C433.128 151.538 433.128 151.524 433.128 151.505C433.128 151.505 433.128 151.516 433.128 151.521C433.034 150.204 431.894 147.771 431.894 147.771L431.853 143.053C431.853 143.053 432.412 140.248 431.18 136.56C430.751 135.274 430.467 134.242 430.282 133.443C430.261 133.353 430.241 133.266 430.223 133.183C432.455 132.755 434.147 132.406 434.147 132.406C434.147 132.406 432.64 127.032 431.727 126.117C430.813 125.201 429.997 122.246 429.997 122.246C429.997 122.246 429.392 118.433 430.086 117.285C430.78 116.137 430.812 114.202 430.812 114.202C430.812 114.202 432.448 112.916 432.637 112.366C432.827 111.817 433.13 110.581 433.106 109.937C433.082 109.292 432.848 108.725 432.905 108.383C432.963 108.04 432.352 106.774 432.609 106.153C432.674 105.963 432.704 105.762 432.698 105.561C432.698 105.561 432.698 105.548 432.698 105.544C432.698 105.539 432.698 105.544 432.698 105.536C432.68 105.002 432.61 104.472 432.489 103.951C431.987 103.559 431.408 103.277 430.789 103.125L430.746 102.982L430.635 102.598C430.577 102.563 430.521 102.533 430.466 102.506L430.456 102.367L430.419 101.818L430.635 100.576C431.068 98.4025 428.181 98.1876 428.181 98.1876C427.994 97.8637 427.693 97.6208 427.337 97.5061C426.75 97.3246 427.366 100.748 427.645 100.956C427.854 101.116 428.525 102.17 428.849 102.689L428.9 102.773C428.855 102.818 428.813 102.866 428.774 102.916L428.913 103.66L428.933 103.773C428.753 104.016 428.608 104.285 428.504 104.569C428.504 104.569 429.053 105.126 428.973 105.774C428.893 106.423 429.19 107.215 429.204 107.258C429.172 107.223 428.787 106.838 428.421 106.95C428.056 107.061 427.034 107.41 427.034 107.41C427.034 107.41 426.267 107.569 426.344 107.742C426.42 107.916 425.853 108.679 425.853 108.679L423.703 106.795C423.681 106.738 423.657 106.68 423.636 106.62C423.539 106.343 423.468 106.058 423.423 105.768C423.647 105.705 423.866 105.625 424.078 105.531C424.293 105.448 424.485 105.315 424.638 105.142C424.837 104.886 424.864 104.548 424.938 104.236C425.078 103.628 425.416 103.077 425.641 102.495C426.027 101.516 426.129 100.448 425.934 99.4136C425.889 99.0938 425.768 98.7893 425.582 98.5251C425.225 98.0729 424.604 97.9073 424.147 97.5539C423.689 97.2004 423.375 96.6447 422.844 96.3852C422.366 96.1527 421.792 96.2036 421.265 96.3119C420.231 96.5197 419.245 96.9188 418.357 97.4886C418.062 97.678 417.738 97.8978 417.388 97.8484C417.088 97.8054 416.86 97.5761 416.659 97.3564C416.659 97.3469 416.659 97.3373 416.667 97.3278L416.643 97.3007C416.442 97.7959 416.353 98.3292 416.381 98.8627C416.381 98.9455 416.388 99.0283 416.401 99.111C416.401 99.1397 416.401 99.1684 416.409 99.197C416.41 99.2209 416.41 99.2448 416.409 99.2687C416.41 99.3056 416.406 99.3425 416.397 99.3785C416.358 99.4866 416.295 99.5849 416.214 99.6667C416.154 99.7406 416.101 99.8194 416.055 99.9024C416.055 99.8737 416.071 99.8451 416.08 99.818C415.955 100.016 415.889 100.245 415.89 100.479C415.886 100.649 415.948 100.814 416.064 100.939C416.172 101.036 416.289 101.123 416.413 101.198C416.381 101.428 416.369 101.66 416.378 101.891C416.407 102.581 416.615 103.251 416.98 103.837C417.346 104.423 417.857 104.904 418.464 105.235L418.54 105.41C418.832 106.096 419.063 106.9 419.004 107.653C419.004 107.709 418.993 107.763 418.985 107.813C418.96 107.841 418.936 107.871 418.914 107.902C418.914 107.902 415.49 108.061 414.656 107.368C413.822 106.676 412.69 109.226 412.69 109.226C412.69 109.226 411.472 109.511 411.219 109.284C410.965 109.056 409.533 109.314 409.533 109.314C408.925 108.815 408.149 108.566 407.363 108.617C406.87 108.271 406.331 107.998 405.761 107.805L405.722 107.792C405.472 107.711 405.207 107.688 404.946 107.723C404.946 107.723 403.209 106.399 402.69 105.671C402.17 104.943 399.724 102.267 399.713 102.256L399.702 102.12L399.66 101.719C399.591 101.732 399.521 101.741 399.451 101.745C399.437 101.705 399.42 101.659 399.399 101.606C399.249 101.221 399.068 100.848 398.858 100.491C398.858 100.491 398.839 99.982 398.982 99.8546C399.126 99.7272 398.844 97.8643 398.844 97.8643C398.844 97.8643 397.19 94.3806 395.932 97.0778C395.932 97.0778 393.429 98.8881 395.663 100.797C395.663 100.797 396.54 101.179 396.674 101.504C396.761 101.716 397.077 102.3 397.289 102.692L397.383 102.867L397.359 102.888L397.404 103.219L397.421 103.348C397.024 103.595 396.758 103.834 396.832 104.002C396.963 104.291 397.057 104.596 397.112 104.908C397.112 104.908 400.237 108.524 400.685 110.102C400.685 110.102 408.865 114.541 411.509 114.78L411.145 117.168C411.145 117.168 411.059 118.601 411.113 119.105C411.168 119.608 410.906 121.931 410.906 121.931C410.906 121.931 410.587 125.34 410.214 125.829C409.841 126.317 409.994 128.349 409.994 128.349C409.939 129.327 409.801 130.298 409.579 131.252C409.243 132.554 409.579 134.137 409.579 134.137C409.579 134.137 408.364 137.24 411.475 135.049C411.475 135.049 413.039 134.89 414.841 134.761C414.841 134.82 414.841 134.879 414.841 134.941C414.841 135.173 414.851 135.418 414.859 135.689C414.902 137.441 414.985 139.846 415.133 141.665C415.398 144.879 416.625 151.218 416.625 151.218L416.748 154.42C416.697 154.723 416.678 155.031 416.692 155.339C416.713 156.468 417.056 157.568 417.679 158.51L418.008 160.638C418.008 160.638 418.646 162.021 418.681 162.867C418.681 162.936 418.676 163.004 418.665 163.072C418.647 163.181 418.642 163.291 418.649 163.4C418.649 164.371 419.328 166.669 419.328 166.669C419.328 166.669 419.454 169.006 419.806 169.129C420.111 169.234 419.457 170.492 419.263 170.855C419.263 170.833 419.252 170.81 419.247 170.788L419.207 170.86C419.141 171.051 419.111 171.253 419.119 171.455C419.106 171.616 419.138 171.777 419.213 171.92C419.287 172.063 419.401 172.181 419.54 172.262C420.223 172.645 420.594 172.969 420.033 173.127C419.826 173.17 419.622 173.223 419.421 173.286L419.389 173.21C419.316 173.246 419.257 173.304 419.22 173.377C419.184 173.449 419.172 173.531 419.186 173.611C419.177 173.781 419.244 174.03 419.425 174.396C420.034 175.628 420.443 176.089 420.443 176.089L420.711 176.047C420.675 176.151 420.626 176.251 420.565 176.343C420.469 176.494 420.338 176.62 420.183 176.71C420.038 176.804 419.875 176.866 419.704 176.893C419.514 176.906 419.329 176.959 419.161 177.049C418.992 177.138 418.845 177.263 418.729 177.413C418.397 177.878 418.201 178.502 418.914 179.017L421.455 179.784C421.455 179.784 425.791 180.179 425.524 179.22C425.258 178.262 425.087 177.421 425.087 177.421C425.082 176.83 424.939 176.248 424.671 175.721C424.624 175.635 424.571 175.552 424.512 175.474L424.663 175.45C424.663 175.45 424.898 173.302 425.301 172.88C425.394 172.782 425.413 172.71 425.389 172.654C425.427 172.536 425.315 172.473 425.172 172.439C425.162 172.468 425.153 172.495 425.145 172.525C425.01 172.502 424.872 172.492 424.735 172.497C424.735 172.497 424.552 171.382 424.992 170.958C425.027 170.911 425.052 170.856 425.065 170.798C425.078 170.741 425.078 170.681 425.067 170.622C425.065 170.469 425.043 170.317 425.003 170.169C425.003 170.169 424.993 170.186 424.987 170.196C424.717 169.189 423.879 167.605 423.879 167.605C423.879 167.605 423.805 166.589 424.07 166.172C424.335 165.755 423.821 160.647 423.821 160.647C423.821 160.647 423.831 158.168 423.471 157.028C423.11 155.888 423.753 154.504 423.753 154.504C423.753 154.504 423.753 154.477 423.742 154.431C423.745 154.426 423.748 154.42 423.75 154.414C423.75 154.414 423.729 154.254 423.694 154.025C423.694 154.025 423.694 154.041 423.694 154.049C423.598 153.396 423.418 152.215 423.298 151.67C423.128 150.896 423.16 147.16 423.16 147.16L423.73 145.542L424.958 148.249L426.291 151.865C426.291 151.865 426.913 152.614 426.956 153.398C426.956 153.436 426.956 153.474 426.956 153.512C426.956 153.597 426.956 153.672 426.956 153.758C426.953 154.221 427.099 154.673 427.371 155.049C427.371 155.049 427.753 156.765 428.26 157.187C428.767 157.609 428.803 158.461 428.803 158.461C428.803 158.461 429.495 160.947 429.793 161.376C430.043 161.739 430.096 162.76 430.112 163.072C430.112 163.129 430.112 163.163 430.112 163.163C430.112 163.163 430.23 164.056 430.255 164.811C430.255 164.903 430.255 164.994 430.255 165.078C430.255 165.078 430.255 165.066 430.255 165.059C430.262 165.265 430.246 165.471 430.206 165.672C430.206 165.682 430.206 165.695 430.196 165.707C430.196 165.664 430.196 165.621 430.196 165.58C430.092 166.096 430.052 166.624 430.077 167.15C430.096 168.053 430.274 169.115 430.845 169.721C431.834 170.771 432.425 170.611 432.425 170.611C432.425 170.611 432.022 171.985 431.469 172.278C431.448 172.289 431.429 172.303 431.411 172.318C431.411 172.293 431.398 172.266 431.394 172.24C431.335 172.311 431.292 172.392 431.267 172.48C431.242 172.568 431.236 172.661 431.248 172.751C431.231 173.35 431.645 174.304 432.02 174.735C432.156 174.859 432.32 174.948 432.499 174.993C432.471 175.014 432.442 175.033 432.412 175.05C432.351 175.087 432.288 175.12 432.223 175.149C432.133 175.193 432.038 175.222 431.939 175.235C431.749 175.248 431.564 175.301 431.396 175.391C431.228 175.481 431.081 175.605 430.965 175.756C430.633 176.219 430.435 176.843 431.148 177.358L433.691 178.125C433.691 178.125 438.027 178.512 437.76 177.553Z" fill="url(#paint2_linear)"/>
<path d="M421.344 179.789L418.883 179.025C418.193 178.509 418.381 177.885 418.703 177.421C418.813 177.272 418.955 177.148 419.117 177.058C419.28 176.968 419.46 176.915 419.645 176.901C419.809 176.874 419.966 176.812 420.103 176.719C420.255 176.629 420.382 176.503 420.475 176.353C420.641 176.065 420.724 175.737 420.715 175.406C420.715 175.406 423.351 174.523 424.11 175.275C424.246 175.411 424.361 175.566 424.451 175.735C424.712 176.264 424.851 176.843 424.858 177.432C424.858 177.432 425.025 178.273 425.284 179.232C425.542 180.19 421.344 179.789 421.344 179.789Z" fill="#2D293D"/>
<path d="M433.186 178.138L430.724 177.367C430.033 176.851 430.223 176.227 430.544 175.764C430.654 175.614 430.795 175.49 430.958 175.401C431.12 175.311 431.301 175.258 431.486 175.245C431.582 175.232 431.674 175.202 431.76 175.159C431.824 175.131 431.886 175.098 431.945 175.062C432.61 174.662 432.556 173.748 432.556 173.748C432.556 173.748 435.192 172.866 435.952 173.617C436.054 173.719 436.144 173.832 436.22 173.953C436.708 174.726 436.698 175.78 436.698 175.78C436.698 175.78 436.867 176.622 437.124 177.579C437.381 178.536 433.186 178.138 433.186 178.138Z" fill="#2D293D"/>
<path opacity="0.1" d="M424.11 175.269C424.246 175.404 424.361 175.559 424.451 175.729L420.475 176.345C420.641 176.057 420.724 175.729 420.715 175.398C420.715 175.398 423.351 174.517 424.11 175.269Z" fill="black"/>
<path opacity="0.1" d="M436.215 173.953L436.244 174.7C435.664 175.746 432.648 175.638 431.756 175.159C431.819 175.131 431.881 175.098 431.941 175.062C432.605 174.662 432.551 173.748 432.551 173.748C432.551 173.748 435.187 172.866 435.947 173.617C436.049 173.719 436.139 173.832 436.215 173.953Z" fill="black"/>
<path d="M436.566 170.716C436.392 171.049 436.246 171.395 436.131 171.751L436.234 174.43C435.597 175.574 432.052 175.337 431.553 174.748C431.054 174.159 430.485 172.583 431.017 172.29C431.55 171.997 431.939 170.626 431.939 170.626C431.939 170.626 431.366 170.785 430.408 169.734C429.45 168.683 429.628 166.266 429.77 165.683C429.912 165.101 429.672 163.174 429.672 163.174C429.672 163.174 429.654 161.818 429.365 161.388C429.077 160.958 428.409 158.471 428.409 158.471C428.409 158.471 428.377 157.622 427.884 157.197C427.391 156.772 427.02 155.057 427.02 155.057C426.725 154.635 426.586 154.125 426.624 153.613C426.693 152.761 425.979 151.871 425.979 151.871L424.684 148.255L423.491 145.548L422.941 147.166C422.941 147.166 422.916 150.901 423.082 151.675C423.247 152.449 423.531 154.511 423.531 154.511C423.531 154.511 422.903 155.893 423.254 157.033C423.605 158.173 423.597 160.654 423.597 160.654C423.597 160.654 424.1 165.761 423.844 166.179C423.587 166.596 423.662 167.612 423.662 167.612C423.662 167.612 425.169 170.541 424.743 170.965C424.317 171.388 424.496 172.501 424.496 172.501C424.496 172.501 425.453 172.465 425.054 172.888C424.655 173.312 424.44 175.458 424.44 175.458L420.353 176.095C420.353 176.095 419.958 175.635 419.366 174.401C418.775 173.167 419.425 173.278 419.966 173.127C420.506 172.976 420.149 172.649 419.488 172.263C418.826 171.876 419.169 170.951 419.169 170.951C419.169 170.951 420.089 169.252 419.744 169.129C419.4 169.006 419.276 166.669 419.276 166.669C419.276 166.669 418.489 163.914 418.638 163.166C418.786 162.418 418 160.644 418 160.644L417.681 158.517C416.364 156.452 416.763 154.504 416.763 154.504L416.635 151.215C416.635 151.215 415.439 144.878 415.179 141.662C415.02 139.601 414.929 136.786 414.891 135.028C414.868 134.041 414.86 133.388 414.86 133.388L429.469 131.299C429.469 131.299 429.48 131.976 429.818 133.465C429.998 134.261 430.274 135.296 430.692 136.584C431.888 140.272 431.351 143.077 431.351 143.077L431.397 147.795C431.397 147.795 432.808 150.898 432.578 151.994C432.443 152.643 432.379 153.305 432.389 153.968C432.389 153.968 435.539 160.74 435.311 162.752C435.083 164.765 436.459 167.868 436.459 167.868C436.459 167.868 436.882 170.092 436.566 170.716Z" fill="#575988"/>
<path opacity="0.05" d="M427.5 153.376L431.942 152.61C431.942 152.61 429.518 155.285 427.5 153.376Z" fill="black"/>
<path opacity="0.1" d="M431.129 148.279C431.129 148.279 431.343 149.849 430.397 150.479C430.397 150.479 432.119 150.142 431.129 148.279Z" fill="black"/>
<path opacity="0.1" d="M430.662 143.271C430.662 143.271 427.047 146.483 425.681 146.281C424.314 146.078 430.662 143.271 430.662 143.271Z" fill="black"/>
<path opacity="0.1" d="M422.024 155.028C422.024 155.028 419.212 155.778 419.17 156.92C419.129 158.062 422.024 155.028 422.024 155.028Z" fill="black"/>
<path opacity="0.05" d="M423.19 169.142C423.19 169.142 419.213 170.041 420.369 170.506C421.525 170.971 423.41 171.302 423.41 171.302C423.41 171.302 424.702 171.325 423.19 169.142Z" fill="black"/>
<g opacity="0.05">
<path opacity="0.05" d="M419.591 171.344C419.489 171.284 419.401 171.203 419.334 171.105C419.266 171.007 419.222 170.896 419.204 170.779L419.165 170.852C419.165 170.852 418.826 171.782 419.484 172.164C419.561 172.207 419.631 172.25 419.7 172.293C419.816 172.266 419.945 172.245 420.066 172.208C420.612 172.052 420.253 171.726 419.591 171.344Z" fill="black"/>
<path opacity="0.05" d="M424.735 170.876C424.842 170.769 424.828 170.509 424.748 170.177C424.577 170.447 424.548 170.857 424.558 171.167C424.595 171.058 424.655 170.959 424.735 170.876Z" fill="black"/>
<path opacity="0.05" d="M423.475 154.027C423.343 154.433 423.268 154.856 423.252 155.283C423.318 154.985 423.411 154.694 423.53 154.414C423.53 154.414 423.509 154.269 423.475 154.027Z" fill="black"/>
<path opacity="0.05" d="M432.578 151.9C432.601 151.777 432.609 151.652 432.602 151.527C432.561 151.783 432.535 152.019 432.518 152.226C432.535 152.116 432.556 152.011 432.578 151.9Z" fill="black"/>
<path opacity="0.05" d="M423.844 166.088C423.895 166.003 423.915 165.722 423.915 165.332C423.802 165.637 423.748 165.961 423.756 166.287C423.777 166.217 423.807 166.15 423.844 166.088Z" fill="black"/>
<path opacity="0.05" d="M424.931 172.449C424.681 173.223 424.544 174.549 424.544 174.549L420.457 175.186C420.457 175.186 420.062 174.726 419.473 173.489C419.422 173.38 419.379 173.283 419.346 173.194C419.105 173.317 419.017 173.574 419.37 174.309C419.961 175.542 420.355 176.003 420.355 176.003L424.442 175.366C424.442 175.366 424.665 173.218 425.057 172.794C425.247 172.59 425.115 172.497 424.931 172.449Z" fill="black"/>
<path opacity="0.05" d="M419.272 166.569C419.272 166.569 419.397 168.908 419.741 169.03C419.901 168.635 419.998 168.264 419.843 168.21C419.499 168.088 419.374 165.749 419.374 165.749C419.374 165.749 418.588 162.996 418.737 162.246C418.885 161.496 418.099 159.724 418.099 159.724L417.78 157.598C416.477 155.543 416.877 153.592 416.877 153.592L416.75 150.304C416.75 150.304 415.554 143.967 415.294 140.751C415.135 138.692 415.044 135.875 415.005 134.118C415.005 133.799 414.993 133.519 414.988 133.282L414.872 133.298C414.872 133.298 414.872 133.95 414.9 134.938C414.94 136.689 415.023 139.511 415.19 141.569C415.45 144.786 416.646 151.123 416.646 151.123L416.763 154.409C416.763 154.409 416.362 156.359 417.665 158.415L417.984 160.542C417.984 160.542 418.767 162.311 418.622 163.063C418.477 163.814 419.272 166.569 419.272 166.569Z" fill="black"/>
<path opacity="0.05" d="M431.657 173.834C431.304 173.366 431.06 172.824 430.944 172.25C430.539 172.643 431.078 174.09 431.551 174.654C432.051 175.246 435.595 175.484 436.231 174.336L436.206 173.689C435.324 174.637 432.127 174.395 431.657 173.834Z" fill="black"/>
<path opacity="0.05" d="M436.668 169.806C436.494 170.138 436.348 170.484 436.233 170.841L436.25 171.318C436.321 171.142 436.423 170.906 436.569 170.626C436.667 170.355 436.706 170.067 436.686 169.78C436.676 169.79 436.673 169.798 436.668 169.806Z" fill="black"/>
<path opacity="0.05" d="M431.738 170.53C431.857 170.264 431.958 169.991 432.041 169.712C432.041 169.712 431.469 169.871 430.51 168.82C429.813 168.056 429.713 166.567 429.775 165.589C429.627 166.172 429.448 168.589 430.413 169.639C431.033 170.325 431.494 170.495 431.738 170.53Z" fill="black"/>
<path opacity="0.05" d="M429.678 163.08C429.763 163.746 429.811 164.415 429.823 165.086C429.836 164.979 429.855 164.873 429.88 164.768C430.029 164.185 429.782 162.26 429.782 162.26C429.782 162.26 429.764 160.902 429.475 160.472C429.187 160.042 428.519 157.555 428.519 157.555C428.519 157.555 428.487 156.708 427.994 156.281C427.501 155.855 427.127 154.146 427.127 154.146C426.831 153.725 426.692 153.215 426.731 152.702C426.8 151.85 426.094 150.962 426.094 150.962L424.788 147.339L423.595 144.633L423.045 146.257C423.045 146.257 423.045 146.457 423.045 146.773L423.491 145.459L424.684 148.166L425.98 151.783C425.98 151.783 426.695 152.673 426.618 153.524C426.579 154.037 426.719 154.547 427.014 154.969C427.014 154.969 427.387 156.686 427.878 157.109C428.369 157.533 428.404 158.383 428.404 158.383C428.404 158.383 429.077 160.87 429.361 161.3C429.644 161.73 429.678 163.08 429.678 163.08Z" fill="black"/>
</g>
<path d="M430.124 100.597L429.917 101.845L429.954 102.394L429.979 102.8L428.57 103.001L428.399 102.714C428.08 102.195 427.434 101.14 427.232 100.98C426.961 100.772 426.361 97.3485 426.931 97.53C427.278 97.6494 427.568 97.8926 427.747 98.213C427.747 98.213 430.542 98.4248 430.124 100.597Z" fill="#FFCDD3"/>
<path opacity="0.1" d="M429.979 102.8L428.57 103.001L428.399 102.714C428.581 102.49 428.836 102.336 429.119 102.278C429.403 102.22 429.698 102.261 429.954 102.396L429.979 102.8Z" fill="black"/>
<path d="M430.364 103.458L428.512 103.961L428.461 103.686L428.327 102.942C428.327 102.942 429.029 101.929 430.126 102.624L430.234 103.001L430.364 103.458Z" fill="#DCE6F2"/>
<path d="M399.998 101.889L398.047 103.036C398.047 103.036 397.964 102.877 397.85 102.666C397.646 102.276 397.34 101.689 397.254 101.479C397.123 101.16 396.275 100.769 396.275 100.769C394.111 98.8579 396.532 97.0507 396.532 97.0507C397.745 94.3551 399.351 97.8468 399.351 97.8468C399.351 97.8468 399.625 99.705 399.486 99.8371C399.348 99.9693 399.367 100.474 399.367 100.474C399.572 100.83 399.748 101.203 399.891 101.589C399.962 101.775 399.998 101.889 399.998 101.889Z" fill="#FFCDD3"/>
<path opacity="0.1" d="M399.998 101.889L398.047 103.036C398.047 103.036 397.964 102.877 397.85 102.666C398.123 102.421 399.089 101.574 399.419 101.598C399.578 101.613 399.739 101.613 399.898 101.598C399.961 101.775 399.998 101.889 399.998 101.889Z" fill="black"/>
<path d="M400.225 102.485L398.027 103.673L397.964 103.195L397.919 102.864C397.919 102.864 399.175 101.703 399.56 101.73C399.755 101.75 399.952 101.742 400.145 101.706L400.186 102.109L400.225 102.485Z" fill="#DCE6F2"/>
<path d="M425.009 109.027C425.009 109.027 415.283 110.503 417.085 109.841C418.34 109.379 418.815 108.553 418.885 107.653C418.942 106.9 418.725 106.096 418.435 105.41C418.181 104.803 417.865 104.224 417.493 103.681C417.493 103.681 424.804 99.291 423.459 103.076C423.25 103.648 423.13 104.25 423.104 104.859C423.081 105.464 423.169 106.068 423.364 106.641C423.681 107.573 424.251 108.399 425.009 109.027Z" fill="#FFCDD3"/>
<path opacity="0.1" d="M423.459 103.076C423.25 103.648 423.13 104.25 423.104 104.859C422.423 105.477 421.65 105.467 420.66 105.505C419.897 105.534 419.065 105.751 418.44 105.408C418.185 104.802 417.87 104.222 417.498 103.679C417.498 103.679 424.804 99.291 423.459 103.076Z" fill="black"/>
<path d="M420.376 105.773C422.609 105.773 424.419 103.965 424.419 101.735C424.419 99.505 422.609 97.6972 420.376 97.6972C418.142 97.6972 416.332 99.505 416.332 101.735C416.332 103.965 418.142 105.773 420.376 105.773Z" fill="#FFCDD3"/>
<path opacity="0.1" d="M425.009 109.027C425.009 109.027 415.283 110.503 417.085 109.841C418.34 109.379 418.815 108.553 418.885 107.653C419.352 107.109 420.32 106.698 420.934 106.466C421.5 106.252 422.118 106.218 422.704 106.368C422.934 106.427 423.155 106.52 423.359 106.642C423.678 107.574 424.249 108.4 425.009 109.027Z" fill="black"/>
<path opacity="0.1" d="M430.364 103.458L428.512 103.961L428.461 103.686C428.651 103.403 428.922 103.186 429.24 103.064C429.557 102.942 429.904 102.92 430.234 103.002L430.364 103.458Z" fill="black"/>
<path opacity="0.1" d="M400.225 102.485L398.027 103.673L397.964 103.195C398.747 102.692 400.072 102.155 400.186 102.109L400.225 102.485Z" fill="black"/>
<path opacity="0.1" d="M429.821 133.463C426.062 134.205 420.706 135.189 419.842 134.962C419.124 134.774 416.861 134.884 414.899 135.027C414.876 134.04 414.868 133.387 414.868 133.387L429.477 131.298C429.477 131.298 429.483 131.975 429.821 133.463Z" fill="black"/>
<path d="M433.562 132.431C433.562 132.431 421.184 135.046 419.83 134.691C418.477 134.336 411.63 135.04 411.63 135.04C408.62 137.226 409.793 134.126 409.793 134.126C409.793 134.126 409.46 132.543 409.784 131.241C409.997 130.286 410.13 129.316 410.182 128.339C410.182 128.339 410.035 126.308 410.391 125.819C410.747 125.33 411.056 121.923 411.056 121.923C411.056 121.923 411.306 119.603 411.254 119.097C411.201 118.59 411.281 117.16 411.281 117.16L411.63 114.772C409.079 114.53 401.148 110.081 401.148 110.081C400.713 108.502 397.683 104.884 397.683 104.884C397.63 104.572 397.538 104.268 397.41 103.979C397.186 103.444 400.199 102.241 400.199 102.241C400.199 102.241 402.581 104.934 403.085 105.661C403.589 106.389 405.273 107.715 405.273 107.715C405.525 107.682 405.782 107.706 406.024 107.786C406.037 107.788 406.051 107.792 406.064 107.797C406.618 107.992 407.142 108.266 407.618 108.61C408.836 108.496 409.718 109.311 409.718 109.311C409.718 109.311 411.102 109.055 411.349 109.282C411.596 109.51 412.775 109.228 412.775 109.228C412.775 109.228 413.867 106.673 414.675 107.372C415.484 108.071 418.797 107.91 418.797 107.91C419.217 107.306 420.274 106.845 420.937 106.602C421.503 106.389 422.121 106.355 422.707 106.505C422.961 106.57 423.202 106.678 423.42 106.824L425.505 108.712C425.505 108.712 426.054 107.945 425.984 107.778C425.913 107.61 426.652 107.446 426.652 107.446C426.652 107.446 427.624 107.102 427.994 106.988C428.364 106.873 428.721 107.262 428.752 107.297C428.739 107.254 428.452 106.443 428.527 105.813C428.602 105.182 428.072 104.607 428.072 104.607C429.149 101.646 431.925 103.985 431.925 103.985C431.925 103.985 432.291 105.566 432.043 106.187C431.794 106.808 432.387 108.075 432.333 108.416C432.279 108.757 432.503 109.327 432.529 109.97C432.554 110.613 432.258 111.833 432.07 112.389C431.882 112.944 430.316 114.221 430.316 114.221C430.316 114.221 430.289 116.157 429.619 117.302C428.949 118.447 429.538 122.264 429.538 122.264C429.538 122.264 430.335 125.22 431.217 126.137C432.098 127.055 433.562 132.431 433.562 132.431Z" fill="#656691"/>
<path opacity="0.1" d="M414.538 110.822C414.538 110.822 414.122 109.717 413.778 109.629C413.435 109.517 413.101 109.383 412.776 109.226L412.979 108.8C412.979 108.8 414.269 109.101 414.486 109.465C414.703 109.83 414.538 110.822 414.538 110.822Z" fill="black"/>
<path opacity="0.1" d="M407.62 108.609C407.564 108.951 404.555 109.371 404.555 109.371L406.024 107.779L406.062 107.792C406.618 107.988 407.143 108.263 407.62 108.609Z" fill="black"/>
<path d="M398.697 104.563C398.847 104.563 398.968 104.442 398.968 104.292C398.968 104.143 398.847 104.021 398.697 104.021C398.547 104.021 398.426 104.143 398.426 104.292C398.426 104.442 398.547 104.563 398.697 104.563Z" fill="#575988"/>
<path d="M399.065 105.091C399.215 105.091 399.336 104.97 399.336 104.821C399.336 104.671 399.215 104.55 399.065 104.55C398.916 104.55 398.794 104.671 398.794 104.821C398.794 104.97 398.916 105.091 399.065 105.091Z" fill="#575988"/>
<path d="M399.424 105.579C399.574 105.579 399.695 105.457 399.695 105.308C399.695 105.158 399.574 105.037 399.424 105.037C399.274 105.037 399.153 105.158 399.153 105.308C399.153 105.457 399.274 105.579 399.424 105.579Z" fill="#575988"/>
<path d="M399.802 106.107C399.952 106.107 400.073 105.986 400.073 105.837C400.073 105.687 399.952 105.566 399.802 105.566C399.652 105.566 399.531 105.687 399.531 105.837C399.531 105.986 399.652 106.107 399.802 106.107Z" fill="#575988"/>
<path d="M431.803 104.798C431.926 104.798 432.025 104.699 432.025 104.577C432.025 104.455 431.926 104.356 431.803 104.356C431.681 104.356 431.582 104.455 431.582 104.577C431.582 104.699 431.681 104.798 431.803 104.798Z" fill="#575988"/>
<path d="M431.856 105.297C431.978 105.297 432.078 105.198 432.078 105.076C432.078 104.953 431.978 104.854 431.856 104.854C431.734 104.854 431.634 104.953 431.634 105.076C431.634 105.198 431.734 105.297 431.856 105.297Z" fill="#575988"/>
<path d="M431.905 105.795C432.028 105.795 432.127 105.696 432.127 105.574C432.127 105.452 432.028 105.353 431.905 105.353C431.783 105.353 431.684 105.452 431.684 105.574C431.684 105.696 431.783 105.795 431.905 105.795Z" fill="#575988"/>
<path opacity="0.1" d="M414.91 120.009C414.876 119.969 422.901 129.327 428.622 123.521C428.629 123.521 419.29 125.153 414.91 120.009Z" fill="black"/>
<path opacity="0.1" d="M410.704 125.195C410.704 125.195 415.288 125.144 415.817 126.44L415.87 127.809C415.742 127.887 415.597 127.931 415.448 127.937C415.299 127.942 415.151 127.91 415.018 127.843C414.54 127.61 411.724 126.313 410.774 127.026L410.704 125.195Z" fill="black"/>
<path d="M410.791 125.192C410.791 125.192 415.176 125.142 415.682 126.379L415.733 127.683C415.611 127.757 415.472 127.799 415.329 127.805C415.187 127.81 415.045 127.78 414.918 127.715C414.467 127.496 411.767 126.257 410.858 126.938L410.791 125.192Z" fill="#656691"/>
<path opacity="0.1" d="M412.823 115.177C413.333 116.239 413.969 117.238 414.717 118.149C415.532 119.159 416.506 120.029 417.601 120.725C417.601 120.725 412.925 115.794 412.823 115.177Z" fill="black"/>
<path opacity="0.1" d="M411.12 109.913C411.12 109.913 412.011 113.177 414.023 114.22L411.12 109.913Z" fill="black"/>
<path opacity="0.1" d="M409.962 110.29C409.94 110.23 409.383 112.92 412.657 114.271C412.657 114.272 411.273 113.861 409.962 110.29Z" fill="black"/>
<path opacity="0.1" d="M429.874 107.313C429.823 107.313 431.502 108.293 431.964 108.76C431.964 108.76 430.839 107.215 429.874 107.313Z" fill="black"/>
<path d="M419.425 105.435C419.491 105.641 419.57 105.865 419.762 105.967C419.882 106.021 420.014 106.045 420.146 106.037C421.38 106.067 422.664 106.072 423.785 105.56C423.995 105.476 424.181 105.342 424.327 105.169C424.52 104.915 424.545 104.577 424.615 104.265C424.751 103.657 425.071 103.106 425.295 102.523C425.67 101.538 425.767 100.468 425.575 99.4311C425.532 99.1124 425.414 98.8082 425.233 98.5426C424.888 98.0889 424.285 97.9233 423.839 97.5698C423.392 97.2163 423.093 96.659 422.578 96.3995C422.114 96.1655 421.559 96.2164 421.05 96.3231C420.048 96.5337 419.096 96.9342 418.245 97.5029C417.96 97.6924 417.648 97.9121 417.308 97.8612C417.01 97.8182 416.787 97.5777 416.587 97.3532C416.368 97.9156 416.288 98.5223 416.353 99.1222C416.368 99.2102 416.368 99.3001 416.353 99.3881C416.315 99.495 416.254 99.5927 416.176 99.6747C415.886 100.039 415.717 100.603 416.031 100.948C416.168 101.098 416.372 101.175 416.509 101.327C416.748 101.603 416.688 102.014 416.696 102.377C416.687 102.503 416.724 102.628 416.799 102.73C416.867 102.789 416.949 102.828 417.037 102.846C417.125 102.864 417.216 102.858 417.302 102.83C417.471 102.772 417.651 102.747 417.831 102.759C418.024 102.813 418.193 102.932 418.309 103.096C418.901 103.789 419.154 104.574 419.425 105.435Z" fill="#2D293D"/>
<g opacity="0.1">
<path opacity="0.1" d="M424.45 104.849C424.304 105.022 424.119 105.155 423.909 105.238C422.793 105.755 421.505 105.751 420.269 105.716C420.137 105.722 420.006 105.698 419.885 105.646C419.695 105.544 419.614 105.318 419.548 105.112C419.277 104.252 419.024 103.466 418.432 102.765C418.315 102.602 418.147 102.484 417.954 102.429C417.774 102.418 417.594 102.442 417.424 102.499C417.339 102.527 417.248 102.533 417.16 102.515C417.071 102.498 416.989 102.459 416.92 102.401C416.846 102.298 416.809 102.172 416.817 102.046C416.809 101.683 416.869 101.272 416.632 100.998C416.498 100.839 416.294 100.769 416.153 100.617C416.065 100.505 416.008 100.371 415.989 100.229C415.969 100.088 415.989 99.9433 416.045 99.8116C415.843 100.162 415.766 100.608 416.029 100.894C416.165 101.044 416.37 101.12 416.507 101.275C416.747 101.549 416.686 101.96 416.694 102.323C416.686 102.449 416.722 102.574 416.798 102.676C416.866 102.734 416.948 102.774 417.036 102.792C417.124 102.809 417.215 102.804 417.3 102.776C417.47 102.718 417.65 102.694 417.829 102.705C418.023 102.759 418.192 102.878 418.308 103.042C418.906 103.743 419.158 104.528 419.424 105.389C419.489 105.595 419.569 105.819 419.76 105.923C419.881 105.976 420.013 106 420.145 105.993C421.379 106.021 422.662 106.026 423.783 105.515C423.993 105.431 424.179 105.298 424.325 105.126C424.397 105.025 424.45 104.912 424.485 104.792C424.475 104.811 424.464 104.827 424.45 104.849Z" fill="black"/>
<path opacity="0.1" d="M416.362 99.2719C416.415 99.2112 416.454 99.1401 416.477 99.0633C416.493 98.9759 416.493 98.8864 416.477 98.799C416.424 98.3063 416.468 97.8078 416.61 97.3325L416.586 97.3055C416.367 97.8679 416.286 98.4746 416.351 99.0744C416.361 99.1398 416.365 99.2059 416.362 99.2719Z" fill="black"/>
</g>
<path opacity="0.1" d="M418.799 107.908C418.799 107.908 423.871 108.386 424.297 107.607L418.799 107.908Z" fill="black"/>
<path opacity="0.1" d="M428.53 105.445C428.53 105.445 431.335 105.341 431.992 106.367L428.53 105.445Z" fill="black"/>
<path d="M489.855 158.644C489.855 158.644 490.801 159.878 489.419 161.743C488.036 163.607 486.898 165.18 487.358 166.343C487.358 166.343 489.444 162.881 491.141 162.832C492.837 162.782 491.723 160.724 489.855 158.644Z" fill="#02C39A"/>
<path opacity="0.1" d="M489.855 158.644C489.938 158.763 490.003 158.893 490.048 159.031C491.705 160.974 492.587 162.787 490.995 162.832C489.513 162.875 487.733 165.523 487.307 166.19C487.322 166.244 487.339 166.297 487.358 166.349C487.358 166.349 489.444 162.887 491.141 162.838C492.837 162.789 491.723 160.724 489.855 158.644Z" fill="black"/>
<path d="M491.614 160.216C491.614 160.65 491.565 161.002 491.504 161.002C491.443 161.002 491.396 160.65 491.396 160.216C491.396 159.781 491.456 159.986 491.517 159.986C491.577 159.986 491.614 159.781 491.614 160.216Z" fill="#FFD037"/>
<path d="M492.217 160.735C491.834 160.942 491.501 161.068 491.472 161.015C491.443 160.962 491.73 160.751 492.11 160.537C492.489 160.324 492.341 160.48 492.371 160.537C492.402 160.595 492.598 160.526 492.217 160.735Z" fill="#FFD037"/>
<path d="M484.861 158.644C484.861 158.644 483.916 159.878 485.297 161.743C486.678 163.607 487.819 165.18 487.358 166.343C487.358 166.343 485.273 162.881 483.576 162.832C481.88 162.782 482.994 160.724 484.861 158.644Z" fill="#02C39A"/>
<path opacity="0.1" d="M484.861 158.644C484.778 158.763 484.713 158.893 484.669 159.031C483.012 160.974 482.13 162.787 483.721 162.832C485.204 162.875 486.982 165.523 487.409 166.19C487.395 166.244 487.378 166.297 487.358 166.349C487.358 166.349 485.273 162.887 483.576 162.838C481.88 162.789 482.994 160.724 484.861 158.644Z" fill="black"/>
<path d="M483.103 160.216C483.103 160.65 483.152 161.002 483.213 161.002C483.273 161.002 483.321 160.65 483.321 160.216C483.321 159.781 483.261 159.986 483.2 159.986C483.139 159.986 483.103 159.781 483.103 160.216Z" fill="#FFD037"/>
<path d="M482.5 160.735C482.883 160.942 483.216 161.068 483.245 161.015C483.273 160.962 482.986 160.751 482.607 160.537C482.227 160.324 482.374 160.48 482.345 160.537C482.317 160.595 482.117 160.526 482.5 160.735Z" fill="#FFD037"/>
<path opacity="0.1" d="M487.357 175.786C492.817 175.786 497.243 175.108 497.243 174.272C497.243 173.436 492.817 172.758 487.357 172.758C481.897 172.758 477.471 173.436 477.471 174.272C477.471 175.108 481.897 175.786 487.357 175.786Z" fill="#02C39A"/>
<path d="M492.446 164.677L492.399 165.062L492.333 165.607L492.306 165.835L492.239 166.379L492.21 166.607L492.143 167.15L491.388 173.344C491.319 173.896 490.415 174.328 489.324 174.328H485.392C484.3 174.328 483.398 173.896 483.331 173.344L482.572 167.15L482.506 166.607L482.479 166.379L482.411 165.835L482.384 165.607L482.317 165.062L482.27 164.677C482.232 164.359 482.722 164.101 483.339 164.101H491.384C491.995 164.101 492.486 164.363 492.446 164.677Z" fill="#65617D"/>
<path d="M492.399 165.062L492.332 165.607H482.382L482.317 165.062H492.399Z" fill="#9D9CB5"/>
<path d="M492.304 165.833L492.239 166.379H482.478L482.411 165.833H492.304Z" fill="#9D9CB5"/>
<path d="M492.209 166.605L492.143 167.15H482.572L482.505 166.605H492.209Z" fill="#9D9CB5"/>
</g>
<defs>
<filter id="filter0_d" x="0" y="96" width="274" height="214" filterUnits="userSpaceOnUse" color-interpolation-filters="sRGB">
<feFlood flood-opacity="0" result="BackgroundImageFix"/>
<feColorMatrix in="SourceAlpha" type="matrix" values="0 0 0 0 0 0 0 0 0 0 0 0 0 0 0 0 0 0 127 0"/>
<feOffset dx="4" dy="4"/>
<feGaussianBlur stdDeviation="5"/>
<feColorMatrix type="matrix" values="0 0 0 0 0 0 0 0 0 0 0 0 0 0 0 0 0 0 0.25 0"/>
<feBlend mode="normal" in2="BackgroundImageFix" result="effect1_dropShadow"/>
<feBlend mode="normal" in="SourceGraphic" in2="effect1_dropShadow" result="shape"/>
</filter>
<filter id="filter1_d" x="314" y="0" width="204" height="222" filterUnits="userSpaceOnUse" color-interpolation-filters="sRGB">
<feFlood flood-opacity="0" result="BackgroundImageFix"/>
<feColorMatrix in="SourceAlpha" type="matrix" values="0 0 0 0 0 0 0 0 0 0 0 0 0 0 0 0 0 0 127 0"/>
<feOffset dx="4" dy="4"/>
<feGaussianBlur stdDeviation="5"/>
<feColorMatrix type="matrix" values="0 0 0 0 0 0 0 0 0 0 0 0 0 0 0 0 0 0 0.25 0"/>
<feBlend mode="normal" in2="BackgroundImageFix" result="effect1_dropShadow"/>
<feBlend mode="normal" in="SourceGraphic" in2="effect1_dropShadow" result="shape"/>
</filter>
<linearGradient id="paint0_linear" x1="307.478" y1="64.8806" x2="242.836" y2="147.731" gradientUnits="userSpaceOnUse">
<stop stop-color="white"/>
<stop offset="1" stop-color="white" stop-opacity="0"/>
</linearGradient>
<linearGradient id="paint1_linear" x1="422.235" y1="164.322" x2="422.235" y2="78.608" gradientUnits="userSpaceOnUse">
<stop stop-color="#808080" stop-opacity="0.25"/>
<stop offset="0.54" stop-color="#808080" stop-opacity="0.12"/>
<stop offset="1" stop-color="#808080" stop-opacity="0.1"/>
</linearGradient>
<linearGradient id="paint2_linear" x1="30106.7" y1="67328" x2="28396.1" y2="22737.2" gradientUnits="userSpaceOnUse">
<stop stop-color="#808080" stop-opacity="0.25"/>
<stop offset="0.54" stop-color="#808080" stop-opacity="0.12"/>
<stop offset="1" stop-color="#808080" stop-opacity="0.1"/>
</linearGradient>
<clipPath id="clip0">
<rect x="325" y="57" width="173" height="131" fill="white"/>
</clipPath>
</defs>
</svg>
