<svg width="1032" height="577" viewBox="0 0 1032 577" fill="none" xmlns="http://www.w3.org/2000/svg">
<g filter="url(#filter0_d)">
<rect x="6.32985" y="190.386" width="515.992" height="372.614" rx="27" fill="white"/>
</g>
<g filter="url(#filter1_d)">
<rect x="644.21" y="6" width="373.79" height="387.979" rx="27" fill="white"/>
</g>
<line y1="-0.5" x2="455.051" y2="-0.5" transform="matrix(0.999991 -0.00433486 0.0048493 0.999988 40.8648 307.6)" stroke="#4ECDC4"/>
<path d="M43.0169 267.576L46.7083 277.384L50.3909 267.576H53.265V280.372H51.0501V276.154L51.2698 270.511L47.4905 280.372H45.8997L42.1292 270.52L42.3489 276.154V280.372H40.1341V267.576H43.0169ZM59.3558 274.8L61.7288 270.133H64.0755L60.3929 276.822V280.372H58.2659V276.707L54.6448 270.133H56.9915L59.3558 274.8ZM69.6478 280.372V270.133H73.4359C74.7366 270.133 75.7298 270.376 76.4153 270.863C77.1068 271.343 77.4525 272.04 77.4525 272.954C77.4525 273.417 77.3206 273.842 77.0569 274.229C76.7991 274.61 76.4036 274.903 75.8704 275.108C76.4329 275.243 76.8782 275.521 77.2064 275.943C77.5345 276.359 77.6985 276.857 77.6985 277.437C77.6985 278.392 77.3675 279.121 76.7054 279.625C76.0433 280.123 75.0648 280.372 73.7698 280.372H69.6478ZM71.7835 275.916V278.667H73.7874C74.3851 278.667 74.8304 278.544 75.1234 278.298C75.4163 278.046 75.5628 277.73 75.5628 277.349C75.5628 276.423 75.0355 275.946 73.9808 275.916H71.7835ZM71.7835 274.422H73.6468C74.18 274.411 74.5901 274.299 74.8773 274.088C75.1702 273.877 75.3167 273.57 75.3167 273.165C75.3167 272.703 75.1644 272.369 74.8597 272.163C74.5609 271.958 74.1155 271.856 73.5237 271.856H71.7835V274.422ZM81.7503 280.372H79.6234V270.133H81.7503V280.372ZM86.0921 278.667H90.97V280.372H83.9564V270.133H86.0921V278.667ZM94.4769 278.667H99.3548V280.372H92.3411V270.133H94.4769V278.667ZM106.456 277.683C106.456 277.296 106.304 276.989 105.999 276.76C105.695 276.526 105.094 276.297 104.198 276.075C103.307 275.852 102.604 275.597 102.088 275.31C101.573 275.023 101.192 274.689 100.946 274.308C100.705 273.921 100.585 273.458 100.585 272.919C100.585 272.064 100.946 271.364 101.666 270.819C102.387 270.268 103.319 269.993 104.461 269.993C105.692 269.993 106.679 270.286 107.423 270.871C108.167 271.457 108.539 272.219 108.539 273.157H106.404C106.404 272.682 106.228 272.31 105.876 272.04C105.525 271.765 105.053 271.627 104.461 271.627C103.905 271.627 103.465 271.742 103.143 271.97C102.821 272.193 102.659 272.492 102.659 272.867C102.659 273.206 102.824 273.488 103.152 273.71C103.486 273.933 104.072 274.147 104.909 274.352C106.204 274.668 107.133 275.087 107.696 275.609C108.258 276.13 108.539 276.807 108.539 277.639C108.539 278.536 108.176 279.239 107.45 279.748C106.723 280.258 105.762 280.513 104.567 280.513C103.758 280.513 103.017 280.378 102.343 280.109C101.675 279.833 101.157 279.447 100.787 278.949C100.418 278.451 100.234 277.87 100.234 277.208H102.378C102.378 278.333 103.128 278.896 104.628 278.896C105.197 278.896 105.642 278.787 105.964 278.571C106.292 278.354 106.456 278.058 106.456 277.683Z" fill="#00A896"/>
<path d="M677.518 39.9846L680.135 34.594H682.323L678.51 41.7815V45.969H676.526V41.7815L672.705 34.594H674.901L677.518 39.9846ZM690.846 41.6252C690.846 43.0002 690.468 44.0888 689.713 44.8908C688.963 45.6929 687.971 46.094 686.737 46.094C685.507 46.094 684.51 45.6929 683.744 44.8908C682.979 44.0835 682.596 42.982 682.596 41.5862V41.2268C682.596 40.3309 682.768 39.5419 683.112 38.8596C683.461 38.1721 683.948 37.6487 684.573 37.2893C685.198 36.9247 685.914 36.7424 686.721 36.7424C687.971 36.7424 688.971 37.1513 689.721 37.969C690.471 38.7815 690.846 39.883 690.846 41.2737V41.6252ZM688.955 41.2112C688.955 40.258 688.76 39.5315 688.369 39.0315C687.979 38.5315 687.429 38.2815 686.721 38.2815C686.023 38.2815 685.476 38.5315 685.08 39.0315C684.685 39.5315 684.487 40.258 684.487 41.2112V41.6252C684.487 42.5523 684.685 43.2763 685.08 43.7971C685.481 44.3127 686.034 44.5705 686.737 44.5705C687.445 44.5705 687.992 44.3179 688.377 43.8127C688.763 43.3023 688.955 42.5731 688.955 41.6252V41.2112ZM699.713 36.8674V42.8596C699.713 43.8492 699.377 44.6356 698.705 45.219C698.039 45.8023 697.135 46.094 695.994 46.094C694.854 46.094 693.95 45.8075 693.284 45.2346C692.617 44.6565 692.284 43.8648 692.284 42.8596V36.8674H694.166V42.8674C694.166 43.4664 694.33 43.9013 694.659 44.1721C694.987 44.4429 695.432 44.5783 695.994 44.5783C697.187 44.5783 697.794 44.0263 697.815 42.9221V36.8674H699.713ZM705.073 42.6487H703.33V45.969H701.432V36.8674H704.994C706.13 36.8674 707.01 37.107 707.635 37.5862C708.26 38.0601 708.573 38.7398 708.573 39.6252C708.573 40.8492 707.987 41.6981 706.815 42.1721L708.955 45.883V45.969H706.924L705.073 42.6487ZM703.33 41.133H704.994C705.557 41.133 705.979 41.0106 706.26 40.7658C706.541 40.5158 706.682 40.1877 706.682 39.7815C706.682 39.3596 706.544 39.0237 706.268 38.7737C705.997 38.5237 705.573 38.3987 704.994 38.3987H703.33V41.133ZM720.315 43.0393C720.315 42.5393 720.138 42.1539 719.784 41.883C719.435 41.6122 718.802 41.3388 717.885 41.0627C716.968 40.7867 716.239 40.4794 715.698 40.1408C714.661 39.4898 714.143 38.6408 714.143 37.594C714.143 36.6773 714.515 35.9221 715.26 35.3283C716.01 34.7346 716.981 34.4377 718.174 34.4377C718.966 34.4377 719.672 34.5835 720.291 34.8752C720.911 35.1669 721.398 35.5835 721.752 36.1252C722.106 36.6617 722.284 37.258 722.284 37.9143H720.315C720.315 37.3205 720.127 36.857 719.752 36.5237C719.382 36.1851 718.851 36.0158 718.159 36.0158C717.513 36.0158 717.01 36.1539 716.651 36.4299C716.297 36.7059 716.119 37.0914 716.119 37.5862C716.119 38.0028 716.312 38.3518 716.698 38.633C717.083 38.9091 717.718 39.1799 718.604 39.4455C719.489 39.7059 720.2 40.0054 720.737 40.344C721.273 40.6773 721.666 41.0627 721.916 41.5002C722.166 41.9325 722.291 42.4403 722.291 43.0237C722.291 43.9716 721.927 44.7268 721.198 45.2893C720.474 45.8466 719.489 46.1252 718.244 46.1252C717.422 46.1252 716.664 45.9742 715.971 45.6721C715.284 45.3648 714.747 44.9429 714.362 44.4065C713.981 43.87 713.791 43.245 713.791 42.5315H715.768C715.768 43.1773 715.981 43.6773 716.409 44.0315C716.836 44.3856 717.448 44.5627 718.244 44.5627C718.932 44.5627 719.448 44.4247 719.791 44.1487C720.14 43.8674 720.315 43.4976 720.315 43.0393ZM729.362 44.0237H725.596L724.854 45.969H722.94L726.619 36.8674H728.362L732.026 45.969H730.104L729.362 44.0237ZM726.151 42.5783H728.807L727.479 39.1252L726.151 42.5783ZM735.979 43.5315L736.127 44.133L736.268 43.5471L738.534 36.8674H740.541L737.088 45.969H735.166L731.721 36.8674H733.729L735.979 43.5315ZM743.549 45.969H741.659V36.8674H743.549V45.969ZM753.393 45.969H751.502L747.409 39.758V45.969H745.51V36.8674H747.409L751.502 43.0862V36.8674H753.393V45.969ZM762.885 44.8205L762.705 45.008C761.924 45.732 760.755 46.094 759.198 46.094C757.906 46.094 756.88 45.7007 756.119 44.9143C755.359 44.1278 754.979 43.0445 754.979 41.6643V41.1565C754.979 39.7763 755.341 38.6955 756.065 37.9143C756.789 37.133 757.786 36.7424 759.057 36.7424C760.177 36.7424 761.062 36.9976 761.713 37.508C762.364 38.0132 762.755 38.7658 762.885 39.7658H761.034C760.94 39.245 760.734 38.8648 760.416 38.6252C760.104 38.3856 759.666 38.2658 759.104 38.2658C757.625 38.2658 756.885 39.2424 756.885 41.1955V41.6955C756.885 42.6487 757.093 43.3674 757.51 43.8518C757.927 44.3362 758.52 44.5783 759.291 44.5783C760.062 44.5783 760.63 44.4299 760.994 44.133V42.5705H759.049V41.1877H762.885V44.8205ZM769.635 43.5783C769.635 43.2346 769.5 42.9612 769.229 42.758C768.958 42.5497 768.424 42.3466 767.627 42.1487C766.836 41.9507 766.211 41.7242 765.752 41.469C765.294 41.2138 764.955 40.9169 764.737 40.5783C764.523 40.2346 764.416 39.8231 764.416 39.344C764.416 38.5835 764.737 37.9612 765.377 37.4768C766.018 36.9872 766.846 36.7424 767.862 36.7424C768.955 36.7424 769.833 37.0028 770.494 37.5237C771.156 38.0445 771.487 38.7216 771.487 39.5549H769.588C769.588 39.133 769.432 38.8023 769.119 38.5627C768.807 38.3179 768.388 38.1955 767.862 38.1955C767.367 38.1955 766.976 38.2971 766.69 38.5002C766.403 38.6981 766.26 38.9638 766.26 39.2971C766.26 39.5992 766.406 39.8492 766.698 40.0471C766.994 40.245 767.515 40.4351 768.26 40.6174C769.411 40.8987 770.237 41.271 770.737 41.7346C771.237 42.1981 771.487 42.7997 771.487 43.5393C771.487 44.3362 771.164 44.9612 770.518 45.4143C769.872 45.8674 769.018 46.094 767.955 46.094C767.237 46.094 766.578 45.9742 765.979 45.7346C765.385 45.4898 764.924 45.146 764.596 44.7033C764.268 44.2606 764.104 43.745 764.104 43.1565H766.01C766.01 44.1565 766.677 44.6565 768.01 44.6565C768.515 44.6565 768.911 44.5601 769.198 44.3674C769.489 44.1747 769.635 43.9117 769.635 43.5783Z" fill="#00A896"/>
<path d="M43.6478 251.766H40.3323V255.086H39.7318V247.977H44.136V248.49H40.3323V251.253H43.6478V251.766ZM49.7659 252.528C49.7659 253.328 49.5495 253.968 49.1165 254.447C48.6836 254.925 48.1025 255.164 47.3734 255.164C46.6474 255.164 46.0648 254.923 45.6253 254.442C45.1891 253.96 44.971 253.314 44.971 252.503V251.966C44.971 251.442 45.0687 250.98 45.264 250.579C45.4593 250.179 45.7392 249.87 46.1038 249.652C46.4717 249.43 46.8916 249.32 47.3636 249.32C48.07 249.32 48.6413 249.551 49.0775 250.013C49.5169 250.472 49.7464 251.09 49.7659 251.868V252.528ZM49.1898 251.956C49.1898 251.292 49.0254 250.773 48.6966 250.399C48.3711 250.021 47.9267 249.832 47.3636 249.832C46.8069 249.832 46.3642 250.021 46.0355 250.399C45.7099 250.773 45.5472 251.302 45.5472 251.986V252.528C45.5472 253.188 45.7116 253.709 46.0403 254.09C46.3691 254.471 46.8135 254.661 47.3734 254.661C47.9398 254.661 48.3841 254.473 48.7064 254.095C49.0286 253.717 49.1898 253.188 49.1898 252.508V251.956ZM55.596 252.528C55.596 253.328 55.3795 253.968 54.9466 254.447C54.5137 254.925 53.9326 255.164 53.2034 255.164C52.4775 255.164 51.8948 254.923 51.4554 254.442C51.0192 253.96 50.8011 253.314 50.8011 252.503V251.966C50.8011 251.442 50.8987 250.98 51.0941 250.579C51.2894 250.179 51.5693 249.87 51.9339 249.652C52.3017 249.43 52.7217 249.32 53.1937 249.32C53.9 249.32 54.4713 249.551 54.9075 250.013C55.347 250.472 55.5765 251.09 55.596 251.868V252.528ZM55.0198 251.956C55.0198 251.292 54.8554 250.773 54.5267 250.399C54.2012 250.021 53.7568 249.832 53.1937 249.832C52.637 249.832 52.1943 250.021 51.8655 250.399C51.54 250.773 51.3773 251.302 51.3773 251.986V252.528C51.3773 253.188 51.5416 253.709 51.8704 254.09C52.1992 254.471 52.6435 254.661 53.2034 254.661C53.7698 254.661 54.2142 254.473 54.5364 254.095C54.8587 253.717 55.0198 253.188 55.0198 252.508V251.956ZM56.8704 255.086V249.398H58.5989C59.1002 249.398 59.5495 249.505 59.9466 249.72C60.3437 249.935 60.653 250.239 60.8743 250.633C61.0989 251.024 61.2145 251.465 61.221 251.956V252.489C61.221 252.993 61.112 253.442 60.8939 253.836C60.679 254.227 60.3714 254.531 59.971 254.749C59.5739 254.967 59.1198 255.08 58.6087 255.086H56.8704ZM57.4515 249.901V254.593H58.5648C59.1963 254.593 59.6992 254.403 60.0735 254.022C60.4512 253.641 60.64 253.12 60.64 252.459V251.995C60.64 251.361 60.456 250.853 60.0882 250.472C59.7204 250.091 59.2191 249.901 58.5843 249.901H57.4515Z" fill="#656380"/>
<rect x="95.7144" y="324.834" width="158.454" height="51.8586" rx="5" fill="#02C39A"/>
<rect x="296.829" y="324.834" width="158.454" height="51.8586" rx="5" fill="#02C39A"/>
<path d="M118.066 340.433H121.239V342.727H118.066V346.313H115.649V342.727H112.467V340.433H115.649V336.997H118.066V340.433ZM128.832 347.597H126.292V337.806L123.26 338.746V336.681L128.56 334.782H128.832V347.597ZM141.612 342.306C141.612 344.075 141.245 345.429 140.513 346.366C139.781 347.304 138.708 347.772 137.296 347.772C135.902 347.772 134.835 347.312 134.097 346.392C133.359 345.473 132.981 344.154 132.963 342.437V340.082C132.963 338.295 133.332 336.938 134.071 336.013C134.815 335.087 135.884 334.624 137.279 334.624C138.673 334.624 139.74 335.084 140.478 336.004C141.216 336.918 141.594 338.233 141.612 339.95V342.306ZM139.072 339.722C139.072 338.661 138.925 337.891 138.632 337.41C138.345 336.924 137.894 336.681 137.279 336.681C136.681 336.681 136.239 336.912 135.951 337.375C135.67 337.832 135.521 338.55 135.503 339.528V342.64C135.503 343.682 135.644 344.459 135.925 344.969C136.212 345.473 136.669 345.724 137.296 345.724C137.917 345.724 138.366 345.481 138.641 344.995C138.916 344.509 139.06 343.765 139.072 342.763V339.722ZM143.572 346.349C143.572 345.944 143.706 345.616 143.976 345.364C144.251 345.112 144.594 344.986 145.004 344.986C145.42 344.986 145.763 345.112 146.032 345.364C146.308 345.616 146.446 345.944 146.446 346.349C146.446 346.747 146.311 347.072 146.041 347.324C145.772 347.57 145.426 347.693 145.004 347.693C144.588 347.693 144.245 347.57 143.976 347.324C143.706 347.072 143.572 346.747 143.572 346.349ZM157.344 347.597H148.573V345.856L152.712 341.444C153.281 340.823 153.699 340.281 153.969 339.818C154.244 339.355 154.382 338.916 154.382 338.5C154.382 337.932 154.239 337.486 153.951 337.164C153.664 336.836 153.254 336.672 152.721 336.672C152.147 336.672 151.693 336.871 151.359 337.269C151.031 337.662 150.866 338.181 150.866 338.825H148.318C148.318 338.046 148.502 337.334 148.871 336.689C149.246 336.045 149.774 335.541 150.453 335.178C151.133 334.808 151.904 334.624 152.765 334.624C154.083 334.624 155.106 334.94 155.832 335.573C156.565 336.206 156.931 337.099 156.931 338.254C156.931 338.887 156.767 339.531 156.439 340.187C156.111 340.844 155.548 341.608 154.751 342.481L151.842 345.549H157.344V347.597ZM158.873 337.261C158.873 336.475 159.128 335.84 159.638 335.353C160.148 334.861 160.816 334.615 161.642 334.615C162.48 334.615 163.154 334.858 163.663 335.345C164.173 335.825 164.428 336.478 164.428 337.305V337.937C164.428 338.728 164.173 339.364 163.663 339.845C163.154 340.325 162.486 340.565 161.659 340.565C160.827 340.565 160.154 340.325 159.638 339.845C159.128 339.358 158.873 338.705 158.873 337.885V337.261ZM160.561 337.937C160.561 338.289 160.66 338.573 160.86 338.79C161.065 339.001 161.331 339.106 161.659 339.106C161.988 339.106 162.248 338.998 162.442 338.781C162.635 338.564 162.732 338.274 162.732 337.911V337.261C162.732 336.909 162.635 336.625 162.442 336.408C162.248 336.191 161.982 336.083 161.642 336.083C161.32 336.083 161.059 336.191 160.86 336.408C160.66 336.619 160.561 336.915 160.561 337.296V337.937ZM164.991 344.459C164.991 343.668 165.248 343.032 165.764 342.552C166.28 342.065 166.948 341.822 167.768 341.822C168.6 341.822 169.271 342.062 169.781 342.543C170.296 343.017 170.554 343.674 170.554 344.512V345.144C170.554 345.93 170.302 346.565 169.798 347.052C169.294 347.532 168.623 347.772 167.785 347.772C166.942 347.772 166.265 347.529 165.755 347.043C165.245 346.557 164.991 345.912 164.991 345.109V344.459ZM166.678 345.144C166.678 345.467 166.783 345.742 166.994 345.971C167.205 346.199 167.469 346.313 167.785 346.313C168.5 346.313 168.858 345.918 168.858 345.127V344.459C168.858 344.107 168.758 343.826 168.559 343.615C168.36 343.398 168.096 343.29 167.768 343.29C167.44 343.29 167.176 343.398 166.977 343.615C166.778 343.826 166.678 344.116 166.678 344.485V345.144ZM162.16 346.639L160.921 345.971L167.17 335.969L168.409 336.637L162.16 346.639Z" fill="white"/>
<path d="M319.181 340.433H322.354V342.727H319.181V346.313H316.764V342.727H313.582V340.433H316.764V336.997H319.181V340.433ZM329.851 344.23C329.851 343.75 329.716 343.369 329.446 343.088C329.183 342.801 328.732 342.537 328.093 342.297C327.454 342.057 326.903 341.819 326.441 341.585C325.978 341.345 325.579 341.072 325.245 340.767C324.917 340.457 324.659 340.094 324.472 339.678C324.29 339.262 324.199 338.766 324.199 338.192C324.199 337.202 324.516 336.391 325.149 335.758C325.781 335.125 326.622 334.756 327.671 334.65V332.769H329.077V334.677C330.114 334.823 330.926 335.257 331.512 335.977C332.098 336.692 332.391 337.621 332.391 338.764H329.851C329.851 338.06 329.704 337.536 329.411 337.19C329.124 336.839 328.737 336.663 328.251 336.663C327.771 336.663 327.399 336.801 327.135 337.076C326.871 337.346 326.739 337.721 326.739 338.201C326.739 338.646 326.868 339.004 327.126 339.273C327.384 339.543 327.861 339.818 328.559 340.099C329.262 340.381 329.839 340.647 330.29 340.899C330.741 341.145 331.122 341.427 331.433 341.743C331.743 342.054 331.981 342.411 332.145 342.815C332.309 343.214 332.391 343.68 332.391 344.213C332.391 345.209 332.08 346.017 331.459 346.639C330.838 347.26 329.983 347.626 328.893 347.737V349.486H327.495V347.746C326.294 347.617 325.362 347.192 324.7 346.472C324.044 345.745 323.716 344.781 323.716 343.58H326.256C326.256 344.277 326.42 344.813 326.748 345.188C327.082 345.557 327.56 345.742 328.181 345.742C328.696 345.742 329.104 345.607 329.403 345.338C329.701 345.062 329.851 344.693 329.851 344.23ZM342.454 338.201C342.454 338.822 342.299 339.373 341.988 339.853C341.678 340.334 341.25 340.718 340.705 341.005C341.326 341.304 341.819 341.717 342.182 342.244C342.545 342.766 342.727 343.381 342.727 344.09C342.727 345.226 342.34 346.126 341.567 346.788C340.793 347.444 339.741 347.772 338.411 347.772C337.081 347.772 336.027 347.441 335.247 346.779C334.468 346.117 334.078 345.221 334.078 344.09C334.078 343.381 334.26 342.763 334.623 342.235C334.986 341.708 335.476 341.298 336.091 341.005C335.546 340.718 335.118 340.334 334.808 339.853C334.503 339.373 334.351 338.822 334.351 338.201C334.351 337.111 334.714 336.244 335.441 335.599C336.167 334.949 337.154 334.624 338.403 334.624C339.645 334.624 340.629 334.946 341.356 335.591C342.088 336.229 342.454 337.099 342.454 338.201ZM340.178 343.905C340.178 343.349 340.017 342.903 339.695 342.569C339.372 342.235 338.939 342.068 338.394 342.068C337.855 342.068 337.424 342.235 337.102 342.569C336.779 342.897 336.618 343.343 336.618 343.905C336.618 344.45 336.777 344.89 337.093 345.224C337.409 345.557 337.849 345.724 338.411 345.724C338.962 345.724 339.393 345.563 339.703 345.241C340.02 344.919 340.178 344.474 340.178 343.905ZM339.914 338.324C339.914 337.826 339.782 337.428 339.519 337.129C339.255 336.824 338.883 336.672 338.403 336.672C337.928 336.672 337.559 336.818 337.295 337.111C337.031 337.404 336.9 337.808 336.9 338.324C336.9 338.834 337.031 339.244 337.295 339.555C337.559 339.865 337.931 340.02 338.411 340.02C338.892 340.02 339.261 339.865 339.519 339.555C339.782 339.244 339.914 338.834 339.914 338.324ZM350.391 342.481C349.729 343.132 348.955 343.457 348.07 343.457C346.94 343.457 346.034 343.07 345.355 342.297C344.675 341.517 344.335 340.469 344.335 339.15C344.335 338.312 344.517 337.545 344.88 336.848C345.249 336.144 345.762 335.599 346.418 335.213C347.074 334.82 347.813 334.624 348.633 334.624C349.477 334.624 350.227 334.835 350.883 335.257C351.539 335.679 352.049 336.285 352.412 337.076C352.776 337.867 352.96 338.772 352.966 339.792V340.732C352.966 342.865 352.436 344.541 351.375 345.76C350.315 346.978 348.812 347.629 346.866 347.711L346.242 347.72V345.601L346.805 345.593C349.014 345.493 350.209 344.456 350.391 342.481ZM348.695 341.515C349.105 341.515 349.456 341.409 349.749 341.198C350.048 340.987 350.274 340.732 350.426 340.433V339.388C350.426 338.526 350.262 337.858 349.934 337.384C349.606 336.909 349.166 336.672 348.615 336.672C348.106 336.672 347.687 336.906 347.359 337.375C347.03 337.838 346.866 338.421 346.866 339.124C346.866 339.821 347.025 340.395 347.341 340.847C347.663 341.292 348.114 341.515 348.695 341.515ZM355.023 346.349C355.023 345.944 355.157 345.616 355.427 345.364C355.702 345.112 356.045 344.986 356.455 344.986C356.871 344.986 357.214 345.112 357.484 345.364C357.759 345.616 357.897 345.944 357.897 346.349C357.897 346.747 357.762 347.072 357.492 347.324C357.223 347.57 356.877 347.693 356.455 347.693C356.039 347.693 355.696 347.57 355.427 347.324C355.157 347.072 355.023 346.747 355.023 346.349ZM366.194 347.597H363.653V337.806L360.621 338.746V336.681L365.921 334.782H366.194V347.597ZM372.944 340.073H374.297C374.942 340.073 375.419 339.912 375.73 339.59C376.04 339.267 376.195 338.84 376.195 338.307C376.195 337.791 376.04 337.39 375.73 337.102C375.425 336.815 375.003 336.672 374.464 336.672C373.978 336.672 373.57 336.807 373.242 337.076C372.914 337.34 372.75 337.685 372.75 338.113H370.21C370.21 337.445 370.389 336.848 370.746 336.32C371.11 335.787 371.613 335.371 372.258 335.072C372.908 334.773 373.623 334.624 374.403 334.624C375.756 334.624 376.817 334.949 377.584 335.599C378.352 336.244 378.736 337.135 378.736 338.271C378.736 338.857 378.557 339.396 378.199 339.889C377.842 340.381 377.373 340.759 376.793 341.022C377.514 341.28 378.05 341.667 378.402 342.182C378.759 342.698 378.938 343.307 378.938 344.011C378.938 345.147 378.522 346.058 377.69 346.744C376.863 347.43 375.768 347.772 374.403 347.772C373.125 347.772 372.079 347.435 371.265 346.762C370.456 346.088 370.052 345.197 370.052 344.09H372.592C372.592 344.57 372.771 344.963 373.128 345.267C373.491 345.572 373.937 345.724 374.464 345.724C375.068 345.724 375.539 345.566 375.879 345.25C376.225 344.928 376.398 344.503 376.398 343.975C376.398 342.698 375.695 342.059 374.288 342.059H372.944V340.073Z" fill="white"/>
<rect x="146.501" y="393.979" width="270.185" height="109.479" rx="4" fill="#F8F8F8"/>
<path d="M211.508 463.124L174.942 492.895H376.057V418.948L329.333 463.124L302.924 430.473L280.578 447.759L258.232 454.481L227.76 476.569L211.508 463.124Z" fill="#02C39A" fill-opacity="0.35"/>
<path d="M172.91 492.895L211.508 462.164L227.76 476.569L258.232 453.521L280.578 447.759L303.94 430.472L329.333 462.164L377.072 417.028" stroke="#00A896" stroke-width="2"/>
<path d="M433.287 206.377L429.352 199.99L425.416 206.377H427.648V210.103H427.65V220.64C427.674 222.398 428.282 223.781 429.475 224.786C430.668 225.792 432.278 226.295 434.305 226.295C436.365 226.295 437.987 225.777 439.171 224.742C440.364 223.706 440.96 222.298 440.96 220.517V209.799H437.37V220.629C437.339 222.611 436.317 223.602 434.305 223.602C433.343 223.602 432.588 223.36 432.039 222.875C431.499 222.384 431.228 221.605 431.228 220.54V209.799H431.226V206.377H433.287Z" fill="#00A896"/>
<path d="M383.702 222.73C383.702 222.335 383.491 222.026 383.069 221.802C382.656 221.571 381.988 221.367 381.066 221.188C377.997 220.584 376.462 219.362 376.462 217.522C376.462 216.449 376.935 215.555 377.881 214.84C378.836 214.117 380.08 213.756 381.614 213.756C383.252 213.756 384.56 214.117 385.538 214.84C386.524 215.563 387.017 216.501 387.017 217.656H383.57C383.57 217.194 383.411 216.814 383.093 216.516C382.775 216.211 382.278 216.058 381.602 216.058C381.022 216.058 380.573 216.181 380.255 216.427C379.937 216.673 379.778 216.986 379.778 217.366C379.778 217.723 379.957 218.014 380.314 218.237C380.68 218.453 381.292 218.643 382.151 218.807C383.01 218.964 383.733 219.143 384.322 219.344C386.142 219.97 387.053 221.054 387.053 222.596C387.053 223.699 386.548 224.593 385.538 225.278C384.528 225.956 383.224 226.295 381.626 226.295C380.545 226.295 379.583 226.116 378.74 225.759C377.905 225.394 377.249 224.898 376.772 224.272C376.295 223.639 376.057 222.957 376.057 222.227H379.325C379.356 222.801 379.583 223.24 380.004 223.546C380.426 223.851 380.99 224.004 381.698 224.004C382.358 224.004 382.855 223.889 383.189 223.658C383.531 223.419 383.702 223.11 383.702 222.73Z" fill="#00A896"/>
<path fill-rule="evenodd" clip-rule="evenodd" d="M396.761 226.072C396.602 225.781 396.487 225.42 396.415 224.987C395.58 225.859 394.495 226.295 393.159 226.295C391.895 226.295 390.845 225.952 390.011 225.267C389.184 224.581 388.77 223.717 388.77 222.674C388.77 221.393 389.275 220.409 390.285 219.724C391.303 219.038 392.77 218.692 394.686 218.684H396.272V217.991C396.272 217.433 396.117 216.986 395.807 216.65C395.505 216.315 395.024 216.147 394.364 216.147C393.783 216.147 393.326 216.278 392.992 216.539C392.666 216.799 392.503 217.157 392.503 217.611H389.056C389.056 216.911 389.287 216.263 389.748 215.667C390.209 215.071 390.861 214.605 391.704 214.27C392.547 213.927 393.493 213.756 394.543 213.756C396.133 213.756 397.393 214.132 398.323 214.885C399.262 215.63 399.731 216.68 399.731 218.036V223.278C399.739 224.425 399.91 225.293 400.243 225.882V226.072H396.761ZM393.911 223.825C394.419 223.825 394.888 223.721 395.318 223.512C395.747 223.296 396.065 223.009 396.272 222.652V220.573H394.984C393.259 220.573 392.34 221.132 392.229 222.249L392.217 222.439C392.217 222.842 392.368 223.173 392.67 223.434C392.972 223.695 393.386 223.825 393.911 223.825Z" fill="#00A896"/>
<path d="M407.018 222.126L409.415 213.979H413.017L408.664 226.072H405.372L401.019 213.979H404.62L407.018 222.126Z" fill="#00A896"/>
<path fill-rule="evenodd" clip-rule="evenodd" d="M420.316 226.295C418.423 226.295 416.881 225.751 415.688 224.663C414.503 223.576 413.911 222.126 413.911 220.316V220.003C413.911 218.789 414.162 217.705 414.662 216.751C415.163 215.79 415.871 215.052 416.785 214.538C417.708 214.017 418.757 213.756 419.934 213.756C421.699 213.756 423.087 214.277 424.096 215.32C425.114 216.363 425.623 217.842 425.623 219.757V221.076H417.406C417.517 221.866 417.851 222.499 418.407 222.976C418.972 223.453 419.684 223.691 420.542 223.691C421.87 223.691 422.908 223.24 423.655 222.339L425.349 224.116C424.832 224.801 424.132 225.338 423.25 225.725C422.367 226.105 421.389 226.295 420.316 226.295ZM419.922 216.371C419.238 216.371 418.682 216.587 418.252 217.019C417.831 217.451 417.561 218.07 417.441 218.874H422.236V218.617C422.22 217.902 422.013 217.351 421.616 216.963C421.218 216.568 420.654 216.371 419.922 216.371Z" fill="#00A896"/>
<path fill-rule="evenodd" clip-rule="evenodd" d="M455.284 220.137C455.284 222 454.831 223.494 453.924 224.619C453.026 225.736 451.809 226.295 450.275 226.295C448.971 226.295 447.917 225.87 447.114 225.021V230.721H443.668V213.979H446.864L446.983 215.164C447.818 214.225 448.907 213.756 450.251 213.756C451.841 213.756 453.077 214.307 453.96 215.41C454.843 216.512 455.284 218.032 455.284 219.97V220.137ZM451.837 219.902C451.837 218.777 451.622 217.909 451.193 217.299C450.772 216.688 450.156 216.382 449.345 216.382C448.263 216.382 447.52 216.77 447.114 217.544V222.495C447.536 223.292 448.287 223.691 449.368 223.691C451.014 223.691 451.837 222.428 451.837 219.902Z" fill="#00A896"/>
<path d="M957.405 39.277L953.47 32.8896L949.534 39.277H951.766V43.003H951.769V53.5401C951.792 55.2984 952.401 56.6805 953.593 57.6863C954.786 58.6921 956.396 59.195 958.424 59.195C960.483 59.195 962.105 58.6772 963.29 57.6416C964.482 56.606 965.078 55.1978 965.078 53.4171V42.6995H961.489V53.5289C961.457 55.5107 960.435 56.5017 958.424 56.5017C957.461 56.5017 956.706 56.2595 956.158 55.7752C955.617 55.2835 955.347 54.5049 955.347 53.4395V42.6995H955.344V39.277H957.405Z" fill="#00A896"/>
<path d="M907.82 55.6299C907.82 55.2351 907.609 54.9259 907.188 54.7023C906.774 54.4714 906.106 54.2665 905.184 54.0877C902.115 53.4842 900.58 52.2623 900.58 50.422C900.58 49.3491 901.054 48.455 902 47.7398C902.954 47.0171 904.198 46.6557 905.733 46.6557C907.371 46.6557 908.678 47.0171 909.656 47.7398C910.642 48.4625 911.135 49.4013 911.135 50.5561H907.689C907.689 50.0942 907.53 49.7142 907.212 49.4162C906.893 49.1107 906.397 48.9579 905.721 48.9579C905.14 48.9579 904.691 49.0809 904.373 49.3267C904.055 49.5726 903.896 49.8855 903.896 50.2655C903.896 50.6231 904.075 50.9137 904.433 51.1372C904.798 51.3533 905.411 51.5433 906.269 51.7072C907.128 51.8637 907.852 52.0425 908.44 52.2437C910.261 52.8695 911.171 53.9536 911.171 55.4958C911.171 56.5985 910.666 57.4926 909.656 58.178C908.647 58.856 907.343 59.195 905.745 59.195C904.663 59.195 903.701 59.0162 902.858 58.6586C902.024 58.2935 901.368 57.7981 900.891 57.1722C900.413 56.5389 900.175 55.8572 900.175 55.127H903.443C903.475 55.7007 903.701 56.1403 904.123 56.4458C904.544 56.7513 905.108 56.904 905.816 56.904C906.476 56.904 906.973 56.7885 907.307 56.5575C907.649 56.3191 907.82 56.0099 907.82 55.6299Z" fill="#00A896"/>
<path fill-rule="evenodd" clip-rule="evenodd" d="M920.879 58.9715C920.72 58.6809 920.605 58.3196 920.533 57.8875C919.698 58.7592 918.613 59.195 917.277 59.195C916.013 59.195 914.964 58.8523 914.129 58.1669C913.302 57.4814 912.888 56.6171 912.888 55.5741C912.888 54.2926 913.393 53.3091 914.403 52.6236C915.421 51.9382 916.888 51.5917 918.804 51.5843H920.39V50.8914C920.39 50.3326 920.235 49.8855 919.925 49.5503C919.623 49.215 919.142 49.0474 918.482 49.0474C917.902 49.0474 917.444 49.1777 917.11 49.4385C916.784 49.6993 916.621 50.0569 916.621 50.5114H913.175C913.175 49.811 913.405 49.1628 913.866 48.5668C914.328 47.9707 914.98 47.5051 915.822 47.1698C916.665 46.8271 917.611 46.6557 918.661 46.6557C920.251 46.6557 921.511 47.032 922.442 47.7845C923.38 48.5295 923.849 49.5801 923.849 50.9361V56.1776C923.857 57.3249 924.028 58.1929 924.362 58.7815V58.9715H920.879ZM918.029 56.7252C918.538 56.7252 919.007 56.6209 919.436 56.4122C919.865 56.1962 920.183 55.9093 920.39 55.5517V53.473H919.102C917.377 53.473 916.458 54.0318 916.347 55.1494L916.335 55.3394C916.335 55.7417 916.486 56.0732 916.788 56.334C917.091 56.5948 917.504 56.7252 918.029 56.7252Z" fill="#00A896"/>
<path d="M931.136 55.0264L933.533 46.8792H937.135L932.782 58.9715H929.49L925.137 46.8792H928.739L931.136 55.0264Z" fill="#00A896"/>
<path fill-rule="evenodd" clip-rule="evenodd" d="M944.434 59.195C942.542 59.195 940.999 58.6511 939.806 57.5634C938.622 56.4756 938.029 55.0264 938.029 53.216V52.903C938.029 51.6886 938.28 50.6045 938.781 49.6508C939.282 48.6897 939.989 47.9521 940.904 47.438C941.826 46.9165 942.875 46.6557 944.052 46.6557C945.817 46.6557 947.205 47.1773 948.215 48.2203C949.232 49.2634 949.741 50.7424 949.741 52.6572V53.9759H941.524C941.635 54.7657 941.969 55.399 942.526 55.8758C943.09 56.3526 943.802 56.5911 944.66 56.5911C945.988 56.5911 947.026 56.1403 947.773 55.2388L949.467 57.0157C948.95 57.7012 948.25 58.2376 947.368 58.6251C946.485 59.005 945.507 59.195 944.434 59.195ZM944.04 49.2709C943.357 49.2709 942.8 49.4869 942.371 49.9191C941.949 50.3512 941.679 50.9696 941.56 51.7743H946.354V51.5172C946.338 50.802 946.131 50.2506 945.734 49.8632C945.336 49.4683 944.772 49.2709 944.04 49.2709Z" fill="#00A896"/>
<path fill-rule="evenodd" clip-rule="evenodd" d="M979.402 53.0371C979.402 54.8998 978.949 56.3936 978.042 57.5187C977.144 58.6362 975.928 59.195 974.393 59.195C973.089 59.195 972.036 58.7704 971.233 57.921V63.6207H967.786V46.8792H970.982L971.101 48.0639C971.936 47.1251 973.025 46.6557 974.369 46.6557C975.959 46.6557 977.196 47.2071 978.078 48.3097C978.961 49.4124 979.402 50.9323 979.402 52.8695V53.0371ZM975.955 52.8024C975.955 51.6774 975.741 50.8094 975.311 50.1985C974.89 49.5875 974.274 49.282 973.463 49.282C972.381 49.282 971.638 49.6695 971.233 50.4443V55.3952C971.654 56.1925 972.405 56.5911 973.487 56.5911C975.132 56.5911 975.955 55.3282 975.955 52.8024Z" fill="#00A896"/>
<line x1="674.682" y1="72.7241" x2="977.371" y2="72.7241" stroke="#4ECDC4"/>
<g clip-path="url(#clip0)">
<path d="M723.731 106.518C723.731 106.518 722.509 111.016 731.045 123.732C739.58 136.448 738.987 138.249 738.495 141.886C738.002 145.522 738.031 147.513 733.072 151.977C733.072 151.977 718.214 156.583 716.229 159.455C714.243 162.326 719.51 172.767 719.51 172.767C719.51 172.767 724.57 185.449 706.401 190.315C706.401 190.315 692.185 190.333 688.243 193.29C688.243 193.29 689.768 188.143 685.026 180.574C680.284 173.005 686.817 165.626 686.817 165.626C686.817 165.626 692.078 162.892 695.417 162.681C698.757 162.47 699.816 161.027 697.668 157.403C697.668 157.403 694.562 155.874 690.261 159.149C685.959 162.424 682.746 164.758 678.998 164.482C675.25 164.207 669.906 162.715 666.398 156.167C662.89 149.62 661.043 140.363 658.417 136.136C655.79 131.91 654.368 130.983 654.368 130.983C654.368 130.983 657.688 133.362 669.151 125.286C680.614 117.209 686.597 120.665 686.597 120.665C686.597 120.665 695.809 123.001 697.286 138.338C697.286 138.338 699.965 152.953 705.41 144.1C705.41 144.1 703.567 139.115 699.884 131.775C696.201 124.436 706.058 117.527 713.275 115.215C720.491 112.903 723.731 106.518 723.731 106.518Z" fill="#02C39A"/>
<path d="M664.406 134.222L664.373 134.145C666.641 133.252 677.1 138.601 685.463 143.246L685.418 143.317C673.621 136.766 666.158 133.537 664.406 134.222Z" fill="#444053"/>
<path d="M685.246 143.216L685.337 143.17C692.016 146.886 700.03 151.601 706.032 155.43C706.602 155.794 707.195 156.155 707.801 156.494L707.707 156.638C707.101 156.296 706.505 155.935 705.932 155.568C699.936 151.742 691.922 146.928 685.246 143.216Z" fill="#444053"/>
<path d="M707.532 156.546L707.681 156.436C719.721 163.259 736.658 161.635 736.807 161.635L734.938 163.638C734.789 163.647 719.656 163.415 707.532 156.546Z" fill="#444053"/>
<path d="M719.209 116.796C719.209 116.796 715.267 127.16 718.263 134.463C721.259 141.766 715.024 159.861 715.024 159.861C715.024 159.861 712.954 167.473 709.624 169.375C709.624 169.375 704.795 175.036 701.964 175.684C699.133 176.333 692.622 182.076 692.794 185.253" stroke="#444053" stroke-miterlimit="10"/>
<path d="M724.54 117.527C724.54 117.527 721.761 122.848 717.625 122.803" stroke="#444053" stroke-miterlimit="10"/>
<path d="M730.112 124.445C730.112 124.445 728.431 131.763 718.017 133.809" stroke="#444053" stroke-miterlimit="10"/>
<path d="M734.449 135.35C734.449 135.35 729.548 142.763 718.989 141.861" stroke="#444053" stroke-miterlimit="10"/>
<path d="M733.532 149.237C733.532 149.237 724.31 154.941 717.337 151.809" stroke="#444053" stroke-miterlimit="10"/>
<path d="M712.692 117.527C712.692 117.527 715.102 122.341 717.767 120.891" stroke="#444053" stroke-miterlimit="10"/>
<path d="M703.868 124.839C703.868 124.839 707.107 131.298 717.243 130.164" stroke="#444053" stroke-miterlimit="10"/>
<path d="M702.89 134.552C702.89 134.552 711.804 139.665 719.034 138.28" stroke="#444053" stroke-miterlimit="10"/>
<path d="M707.583 144.904C707.583 144.904 714.638 150.216 717.949 148.996" stroke="#444053" stroke-miterlimit="10"/>
<path d="M705.931 148.864C705.931 148.864 707.839 154.445 705.964 155.5" stroke="#444053" stroke-miterlimit="10"/>
<path d="M699.683 157.234C699.683 157.234 703.321 153.825 702.307 153.198" stroke="#444053" stroke-miterlimit="10"/>
<path d="M693.001 128.91C693.001 128.91 696.185 143.188 692.049 147.042" stroke="#444053" stroke-miterlimit="10"/>
<path d="M679.688 162.883C679.688 162.883 694.099 154.146 695.356 148.984" stroke="#444053" stroke-miterlimit="10"/>
<path d="M671.341 156.724C671.341 156.724 684.897 150.757 688.573 145.042" stroke="#444053" stroke-miterlimit="10"/>
<path d="M680.443 124.335C680.443 124.335 687.002 134.665 682.904 141.895" stroke="#444053" stroke-width="0.75" stroke-miterlimit="10"/>
<path d="M666.919 147.341C666.919 147.341 676.961 143.503 678.992 139.806" stroke="#444053" stroke-width="0.75" stroke-miterlimit="10"/>
<path d="M669.038 127.485C669.038 127.485 672.397 133.332 670.832 135.873" stroke="#444053" stroke-width="0.75" stroke-miterlimit="10"/>
<path d="M703.839 162.079C703.839 162.079 712.909 160.932 713.88 163.167" stroke="#444053" stroke-miterlimit="10"/>
<path d="M718.341 179.626C718.341 179.626 717.852 170.262 712.186 166.641" stroke="#444053" stroke-miterlimit="10"/>
<path d="M693.471 165.846C693.471 165.846 702.99 166.907 706.356 172.77" stroke="#444053" stroke-miterlimit="10"/>
<path d="M709.436 186.419C709.436 186.419 710.907 179.559 703.952 174.709" stroke="#444053" stroke-miterlimit="10"/>
<path d="M686.613 174.134C686.613 174.134 694.51 173.752 698.741 177.296" stroke="#444053" stroke-miterlimit="10"/>
<path d="M697.497 187.694C697.497 187.694 696.758 182.25 694.698 181.22" stroke="#444053" stroke-miterlimit="10"/>
<path opacity="0.1" d="M819.982 164.317C802.209 172.761 782.77 176.443 763.818 179.281C744.866 182.119 725.736 184.305 707.059 190.238C695.048 194.055 682.354 200.235 676.433 209.838C670.725 219.058 672.834 228.89 675.853 237.459C678.12 243.903 681.035 250.423 687.242 254.362C691.556 257.096 697.157 258.377 701.86 260.704C718.221 268.793 720.874 287.766 718.237 305.219C717 313.406 714.875 321.699 714.904 329.724C714.933 337.749 717.385 345.7 724.129 350.44C730.815 355.137 740.853 356.092 750.69 355.333C770.679 353.804 790.778 345.978 809.921 337.568C852.308 318.953 892.911 296.76 933.42 274.622C948.404 266.429 963.456 258.197 977.252 248.493C984.912 243.105 992.476 236.915 996.013 229.508C1000.52 220.107 997.082 209.866 987.999 205.636C972.775 198.541 947.322 207.896 934.194 198.63C926.941 193.529 925.996 184.195 927.178 175.434C929.711 156.608 940.18 135.858 932.189 119.928C926.702 108.986 912.262 102.619 896.493 104.194C879.974 105.845 861.666 116.099 856.743 129.922C851.683 144.158 835.675 156.846 819.982 164.317Z" fill="#02C39A"/>
<path opacity="0.1" d="M862.593 344.342C880.502 344.342 895.02 340.956 895.02 336.779C895.02 332.602 880.502 329.216 862.593 329.216C844.684 329.216 830.166 332.602 830.166 336.779C830.166 340.956 844.684 344.342 862.593 344.342Z" fill="#02C39A"/>
<path d="M1001.77 145.457H702.032C699.797 145.457 697.986 147.168 697.986 149.277V306.268C697.986 308.377 699.797 310.088 702.032 310.088H1001.77C1004 310.088 1005.81 308.377 1005.81 306.268V149.277C1005.81 147.168 1004 145.457 1001.77 145.457Z" fill="url(#paint0_linear)"/>
<path d="M1001.31 147.772H702.521C700.286 147.772 698.475 149.483 698.475 151.592V305.72C698.475 307.83 700.286 309.54 702.521 309.54H1001.31C1003.55 309.54 1005.36 307.83 1005.36 305.72V151.592C1005.36 149.483 1003.55 147.772 1001.31 147.772Z" fill="white"/>
<path d="M1001.31 147.772H702.521C700.286 147.772 698.475 149.483 698.475 151.592V305.72C698.475 307.83 700.286 309.54 702.521 309.54H1001.31C1003.55 309.54 1005.36 307.83 1005.36 305.72V151.592C1005.36 149.483 1003.55 147.772 1001.31 147.772Z" fill="white"/>
<path opacity="0.04" d="M1001.31 147.772H702.521C700.286 147.772 698.475 149.483 698.475 151.592V305.72C698.475 307.83 700.286 309.54 702.521 309.54H1001.31C1003.55 309.54 1005.36 307.83 1005.36 305.72V151.592C1005.36 149.483 1003.55 147.772 1001.31 147.772Z" fill="#5A5773"/>
<path d="M1003.8 145.916H700.036C699.623 145.916 699.227 146.071 698.935 146.347C698.642 146.623 698.478 146.997 698.478 147.387V153.614H1005.36V147.387C1005.36 146.997 1005.2 146.623 1004.9 146.347C1004.61 146.071 1004.22 145.916 1003.8 145.916V145.916Z" fill="#5A5773"/>
<path d="M704.603 151.748C705.766 151.748 706.709 150.858 706.709 149.76C706.709 148.662 705.766 147.772 704.603 147.772C703.441 147.772 702.498 148.662 702.498 149.76C702.498 150.858 703.441 151.748 704.603 151.748Z" fill="white"/>
<path d="M710.272 151.748C711.435 151.748 712.377 150.858 712.377 149.76C712.377 148.662 711.435 147.772 710.272 147.772C709.109 147.772 708.167 148.662 708.167 149.76C708.167 150.858 709.109 151.748 710.272 151.748Z" fill="white"/>
<path d="M715.94 151.748C717.103 151.748 718.046 150.858 718.046 149.76C718.046 148.662 717.103 147.772 715.94 147.772C714.778 147.772 713.835 148.662 713.835 149.76C713.835 150.858 714.778 151.748 715.94 151.748Z" fill="white"/>
<path opacity="0.1" d="M971.609 189.422H722.318C720.495 189.422 719.018 190.817 719.018 192.538V279.274C719.018 280.995 720.495 282.39 722.318 282.39H971.609C973.432 282.39 974.91 280.995 974.91 279.274V192.538C974.91 190.817 973.432 189.422 971.609 189.422Z" fill="#02C39A"/>
<path d="M977.766 186.41L728.556 180.413C726.734 180.369 725.219 181.729 725.172 183.449L722.831 270.156C722.785 271.877 724.225 273.307 726.047 273.351L975.257 279.348C977.079 279.392 978.594 278.033 978.64 276.312L980.981 189.605C981.028 187.884 979.588 186.454 977.766 186.41Z" fill="white"/>
<path opacity="0.2" d="M763.533 200.061L941.79 204.339" stroke="#5A5773" stroke-miterlimit="10"/>
<path opacity="0.2" d="M763.18 213.208L941.437 217.486" stroke="#5A5773" stroke-miterlimit="10"/>
<path opacity="0.2" d="M762.827 226.352L941.084 230.63" stroke="#5A5773" stroke-miterlimit="10"/>
<path opacity="0.2" d="M762.471 239.499L940.73 243.777" stroke="#5A5773" stroke-miterlimit="10"/>
<path opacity="0.2" d="M778.673 236.319L778.223 253.031" stroke="#5A5773" stroke-miterlimit="10" stroke-dasharray="12 12"/>
<path opacity="0.2" d="M762.118 252.646L940.374 256.921" stroke="#5A5773" stroke-miterlimit="10"/>
<path opacity="0.2" d="M798.383 253.515L799.054 228.6" stroke="#5A5773" stroke-miterlimit="10" stroke-dasharray="12 12"/>
<path opacity="0.2" d="M916.304 226.63C913.126 226.89 910.023 225.208 908.122 223.441C906.153 221.606 904.724 219.349 903.344 217.153C902.907 216.459 902.453 215.743 901.997 215.052C899.59 211.45 897.187 209.027 894.437 207.428C893.429 206.842 892.349 206.376 891.22 206.04C891.112 206.282 890.957 206.504 890.763 206.694C890.347 207.103 889.777 207.34 889.176 207.352H889.069C888.531 207.338 888.015 207.144 887.614 206.803C887.214 206.463 886.954 206 886.883 205.495C885.863 205.541 884.856 205.736 883.9 206.073C881.072 207.079 878.924 209.242 876.971 211.373C874.607 213.948 872.326 216.648 870.201 219.404C869.769 219.96 869.338 220.52 868.906 221.083C866.599 224.123 864.215 227.263 861.132 229.719C856.992 233.034 852.014 234.462 847.812 233.542C842.772 232.438 839.167 228.233 836.592 224.691C836.268 224.233 835.944 223.774 835.594 223.306C833.191 219.942 830.706 216.465 827.04 214.437C822.21 211.761 815.541 212.223 811.168 215.529C809.037 217.141 807.436 219.33 805.885 221.447C805.354 222.175 804.803 222.927 804.236 223.649C801.321 227.346 798.383 229.352 795.215 229.786C793.959 229.918 792.691 229.918 791.435 229.786C790.599 229.731 789.735 229.67 788.889 229.691C786.78 229.776 784.73 230.375 782.938 231.429C781.146 232.483 779.674 233.957 778.663 235.707L778.216 253.31L918.247 256.674L919.031 227.551C918.791 227.674 918.527 227.748 918.254 227.768C917.982 227.788 917.708 227.754 917.451 227.667C917.193 227.581 916.958 227.444 916.761 227.266C916.563 227.088 916.407 226.872 916.304 226.633V226.63Z" fill="#02C39A"/>
<path opacity="0.2" d="M820.196 212.697L819.084 254.013" stroke="#5A5773" stroke-miterlimit="10" stroke-dasharray="12 12"/>
<path opacity="0.2" d="M839.724 228.505L839.025 254.49" stroke="#5A5773" stroke-miterlimit="10" stroke-dasharray="12 12"/>
<path opacity="0.2" d="M859.146 231.554L858.518 254.958" stroke="#5A5773" stroke-miterlimit="10" stroke-dasharray="12 12"/>
<path opacity="0.2" d="M877.995 210.609L876.79 255.395" stroke="#5A5773" stroke-miterlimit="10" stroke-dasharray="12 12"/>
<path opacity="0.2" d="M897.177 209.046L895.917 255.857" stroke="#5A5773" stroke-miterlimit="10" stroke-dasharray="12 12"/>
<path opacity="0.2" d="M918.422 226.646L917.619 256.377" stroke="#5A5773" stroke-miterlimit="10" stroke-dasharray="12 12"/>
<path d="M891.026 203.975C890.811 203.78 890.557 203.627 890.279 203.525C890.001 203.423 889.704 203.373 889.406 203.379C888.872 203.388 888.359 203.575 887.956 203.907C887.554 204.239 887.288 204.694 887.207 205.193C887.187 205.314 887.178 205.437 887.181 205.559C887.181 205.642 887.181 205.725 887.2 205.804C887.269 206.283 887.508 206.726 887.877 207.061C888.279 207.439 888.819 207.658 889.387 207.673H889.494C890.095 207.662 890.667 207.427 891.084 207.018C891.277 206.828 891.431 206.606 891.541 206.364C891.625 206.174 891.68 205.973 891.703 205.767C891.711 205.675 891.711 205.582 891.703 205.489C891.701 205.207 891.64 204.928 891.524 204.668C891.408 204.409 891.239 204.173 891.026 203.975ZM890.912 206.177C890.84 206.326 890.74 206.462 890.618 206.578C890.411 206.78 890.149 206.924 889.86 206.994C889.572 207.065 889.269 207.059 888.984 206.977C888.7 206.896 888.444 206.742 888.246 206.532C888.048 206.322 887.915 206.065 887.861 205.789C887.843 205.709 887.834 205.628 887.832 205.547C887.829 205.424 887.842 205.301 887.871 205.18C887.951 204.847 888.146 204.548 888.427 204.332C888.708 204.115 889.057 203.994 889.419 203.988H889.494C889.91 203.998 890.306 204.159 890.599 204.437C890.893 204.716 891.062 205.09 891.071 205.483C891.071 205.514 891.071 205.547 891.071 205.578C891.065 205.786 891.011 205.991 890.912 206.177V206.177Z" fill="#02C39A"/>
<path d="M918.442 228.08C919.515 228.08 920.385 227.258 920.385 226.245C920.385 225.232 919.515 224.41 918.442 224.41C917.369 224.41 916.498 225.232 916.498 226.245C916.498 227.258 917.369 228.08 918.442 228.08Z" fill="#02C39A"/>
<path d="M887.832 205.547C887.834 205.629 887.843 205.709 887.861 205.789C887.641 205.789 887.421 205.789 887.213 205.804C886.192 205.85 885.185 206.045 884.227 206.382C881.399 207.388 879.252 209.55 877.295 211.682C874.931 214.254 872.65 216.957 870.522 219.71C870.091 220.266 869.667 220.829 869.226 221.392C866.917 224.432 864.533 227.569 861.452 230.028C857.31 233.34 852.328 234.768 848.123 233.848C843.09 232.747 839.485 228.539 836.893 224.997C836.569 224.542 836.226 224.08 835.896 223.612C833.489 220.248 831.001 216.771 827.335 214.743C822.505 212.067 815.829 212.529 811.463 215.835C809.361 217.444 807.741 219.633 806.189 221.749C805.655 222.477 805.104 223.233 804.537 223.951C801.622 227.649 798.681 229.655 795.513 230.089C794.257 230.219 792.989 230.219 791.733 230.089C790.886 230.016 790.035 229.985 789.184 229.994C786.924 230.083 784.734 230.762 782.859 231.957C780.984 233.151 779.496 234.814 778.563 236.759L777.967 236.514C778.952 234.464 780.52 232.712 782.497 231.453C784.474 230.194 786.782 229.477 789.165 229.383C790.038 229.371 790.912 229.403 791.782 229.481C792.991 229.604 794.21 229.604 795.419 229.481C798.409 229.074 801.221 227.144 804.016 223.584C804.576 222.872 805.124 222.123 805.655 221.398C807.232 219.257 808.865 217.022 811.068 215.352C813.403 213.627 816.229 212.598 819.186 212.395C822.142 212.192 825.096 212.824 827.671 214.211C831.468 216.312 833.997 219.847 836.446 223.269C836.77 223.728 837.094 224.187 837.441 224.649C839.951 228.098 843.449 232.193 848.279 233.248C852.282 234.126 857.054 232.747 861.041 229.557C864.05 227.15 866.418 224.052 868.702 221.031C869.126 220.468 869.557 219.905 869.997 219.346C872.138 216.593 874.428 213.866 876.8 211.275C878.811 209.086 881.01 206.862 883.994 205.807C885.027 205.447 886.113 205.24 887.213 205.196C887.43 205.196 887.654 205.177 887.861 205.196C887.837 205.311 887.827 205.429 887.832 205.547V205.547Z" fill="#02C39A"/>
<path d="M918.555 226.532C914.756 227.872 910.739 225.872 908.452 223.749C906.483 221.915 905.054 219.655 903.675 217.459C903.237 216.768 902.784 216.049 902.324 215.361C899.917 211.755 897.514 209.333 894.76 207.734C893.752 207.149 892.672 206.684 891.544 206.349C891.337 206.284 891.126 206.229 890.896 206.177C890.995 205.992 891.049 205.788 891.055 205.581C891.269 205.633 891.479 205.691 891.703 205.752C892.893 206.104 894.032 206.596 895.094 207.214C897.938 208.862 900.406 211.346 902.868 215.034C903.331 215.731 903.785 216.45 904.229 217.15C905.589 219.309 906.995 221.544 908.903 223.312C911.05 225.306 914.811 227.199 918.325 225.96L918.555 226.532Z" fill="#02C39A"/>
<path opacity="0.5" d="M769.917 197.471L763.894 197.326C763.733 197.322 763.599 197.442 763.595 197.594L763.535 199.795C763.531 199.947 763.658 200.073 763.819 200.077L769.842 200.222C770.003 200.226 770.137 200.106 770.141 199.954L770.201 197.753C770.205 197.601 770.077 197.475 769.917 197.471Z" fill="#02C39A"/>
<path d="M769.559 210.614L763.536 210.469C763.375 210.465 763.241 210.585 763.237 210.737L763.178 212.939C763.173 213.091 763.301 213.217 763.462 213.221L769.484 213.366C769.645 213.37 769.779 213.249 769.783 213.097L769.843 210.896C769.847 210.744 769.72 210.618 769.559 210.614Z" fill="#02C39A"/>
<path opacity="0.5" d="M769.204 223.764L763.181 223.619C763.02 223.615 762.886 223.735 762.882 223.887L762.823 226.088C762.819 226.24 762.946 226.366 763.107 226.37L769.13 226.515C769.291 226.519 769.425 226.399 769.429 226.247L769.488 224.046C769.492 223.894 769.365 223.768 769.204 223.764Z" fill="#02C39A"/>
<path opacity="0.5" d="M768.849 236.907L762.827 236.762C762.666 236.758 762.532 236.878 762.528 237.03L762.468 239.231C762.464 239.383 762.591 239.51 762.752 239.514L768.775 239.659C768.936 239.662 769.07 239.542 769.074 239.39L769.133 237.189C769.137 237.037 769.01 236.911 768.849 236.907Z" fill="#02C39A"/>
<path opacity="0.5" d="M768.495 250.054L762.472 249.909C762.311 249.905 762.177 250.025 762.173 250.177L762.114 252.378C762.11 252.53 762.237 252.656 762.398 252.66L768.42 252.805C768.581 252.809 768.715 252.689 768.719 252.537L768.779 250.336C768.783 250.184 768.656 250.057 768.495 250.054Z" fill="#02C39A"/>
<path opacity="0.5" d="M780.75 255.854L774.727 255.709C774.566 255.706 774.432 255.826 774.428 255.978L774.369 258.179C774.365 258.331 774.492 258.457 774.653 258.461L780.676 258.606C780.837 258.61 780.97 258.49 780.974 258.338L781.034 256.137C781.038 255.985 780.911 255.858 780.75 255.854Z" fill="#02C39A"/>
<path opacity="0.5" d="M801.311 256.349L795.289 256.204C795.128 256.2 794.994 256.32 794.99 256.472L794.93 258.673C794.926 258.825 795.053 258.951 795.214 258.955L801.237 259.1C801.398 259.104 801.532 258.984 801.536 258.832L801.595 256.631C801.599 256.479 801.472 256.353 801.311 256.349Z" fill="#02C39A"/>
<path d="M821.281 257.695L815.256 257.524C815.095 257.52 814.961 257.639 814.956 257.791L814.886 259.993C814.881 260.145 815.008 260.272 815.169 260.277L821.194 260.447C821.355 260.452 821.489 260.332 821.494 260.18L821.564 257.978C821.569 257.826 821.442 257.699 821.281 257.695Z" fill="#02C39A"/>
<path opacity="0.5" d="M841.952 257.326L835.929 257.181C835.768 257.177 835.635 257.297 835.631 257.449L835.571 259.65C835.567 259.802 835.694 259.929 835.855 259.933L841.878 260.078C842.039 260.081 842.173 259.961 842.177 259.809L842.236 257.608C842.24 257.456 842.113 257.33 841.952 257.326Z" fill="#02C39A"/>
<path opacity="0.5" d="M861.443 257.798L855.42 257.653C855.259 257.649 855.125 257.769 855.121 257.921L855.061 260.122C855.057 260.274 855.185 260.401 855.345 260.404L861.368 260.549C861.529 260.553 861.663 260.433 861.667 260.281L861.727 258.08C861.731 257.928 861.604 257.802 861.443 257.798Z" fill="#02C39A"/>
<path d="M879.713 258.234L873.69 258.089C873.529 258.085 873.395 258.205 873.391 258.357L873.332 260.559C873.328 260.711 873.455 260.837 873.616 260.841L879.639 260.986C879.8 260.99 879.933 260.869 879.938 260.718L879.997 258.516C880.001 258.364 879.874 258.238 879.713 258.234Z" fill="#02C39A"/>
<path d="M898.977 258.697L892.954 258.553C892.793 258.549 892.659 258.669 892.655 258.821L892.596 261.022C892.592 261.174 892.719 261.3 892.88 261.304L898.903 261.449C899.064 261.453 899.197 261.333 899.201 261.181L899.261 258.98C899.265 258.828 899.138 258.701 898.977 258.697Z" fill="#02C39A"/>
<path d="M919.682 260.484L913.975 260.323C913.726 260.316 913.518 260.5 913.511 260.735L913.451 262.637C913.443 262.872 913.639 263.068 913.887 263.075L919.595 263.237C919.843 263.244 920.051 263.059 920.059 262.824L920.119 260.922C920.126 260.687 919.931 260.491 919.682 260.484Z" fill="#02C39A"/>
<path d="M972.085 289.124C972.827 289.124 973.546 289.367 974.12 289.811C974.693 290.255 975.086 290.874 975.231 291.561C975.375 292.248 975.263 292.961 974.914 293.578C974.564 294.196 973.998 294.68 973.313 294.948C972.627 295.217 971.865 295.252 971.155 295.049C970.445 294.845 969.832 294.416 969.419 293.834C969.007 293.251 968.822 292.552 968.894 291.855C968.967 291.158 969.293 290.506 969.818 290.011C970.115 289.729 970.468 289.505 970.858 289.353C971.247 289.201 971.664 289.123 972.085 289.124V289.124ZM972.085 288.653C971.351 288.653 970.634 288.858 970.024 289.244C969.414 289.629 968.939 290.176 968.658 290.816C968.378 291.456 968.305 292.161 968.448 292.84C968.592 293.519 968.946 294.143 969.465 294.633C969.984 295.122 970.646 295.455 971.366 295.59C972.086 295.724 972.832 295.654 973.509 295.388C974.187 295.122 974.765 294.672 975.172 294.095C975.579 293.519 975.795 292.841 975.794 292.148C975.794 291.689 975.697 291.234 975.511 290.81C975.324 290.386 975.051 290 974.707 289.675C974.362 289.351 973.953 289.094 973.504 288.918C973.054 288.743 972.572 288.653 972.085 288.653V288.653Z" fill="#02C39A"/>
<path d="M971.091 293.182L971.285 292.937C971.475 293.113 971.729 293.213 971.995 293.216C972.319 293.216 972.574 293.06 972.574 292.812C972.574 292.564 972.338 292.365 971.684 292.365V292.084C972.267 292.084 972.487 291.901 972.487 291.662C972.487 291.424 972.289 291.31 972.001 291.31C971.774 291.317 971.556 291.401 971.389 291.546L971.182 291.31C971.413 291.118 971.709 291.009 972.017 291.005C972.519 291.005 972.892 291.234 972.892 291.635C972.892 291.916 972.675 292.102 972.357 292.203V292.219C972.521 292.235 972.673 292.305 972.787 292.417C972.901 292.529 972.969 292.675 972.979 292.83C972.979 293.265 972.545 293.528 972.027 293.528C971.854 293.534 971.682 293.507 971.521 293.447C971.36 293.388 971.213 293.297 971.091 293.182V293.182Z" fill="#02C39A"/>
<path d="M987.403 289.329C988.145 289.329 988.864 289.572 989.438 290.016C990.011 290.46 990.404 291.079 990.549 291.765C990.693 292.452 990.581 293.166 990.232 293.783C989.882 294.401 989.316 294.885 988.631 295.153C987.945 295.421 987.183 295.457 986.473 295.254C985.763 295.05 985.149 294.621 984.737 294.038C984.325 293.456 984.139 292.757 984.212 292.06C984.285 291.363 984.611 290.711 985.136 290.216C985.433 289.934 985.786 289.71 986.175 289.558C986.565 289.406 986.982 289.328 987.403 289.329V289.329ZM987.403 288.858C986.67 288.858 985.953 289.063 985.343 289.448C984.733 289.833 984.257 290.38 983.977 291.019C983.696 291.659 983.623 292.363 983.766 293.043C983.909 293.722 984.262 294.346 984.781 294.835C985.299 295.325 985.96 295.659 986.68 295.794C987.399 295.929 988.145 295.859 988.823 295.594C989.5 295.329 990.079 294.881 990.487 294.305C990.895 293.729 991.112 293.052 991.112 292.359C991.113 291.899 991.017 291.444 990.831 291.019C990.644 290.594 990.371 290.208 990.027 289.882C989.682 289.557 989.273 289.299 988.823 289.124C988.373 288.948 987.89 288.857 987.403 288.858V288.858Z" fill="#5A5773"/>
<path d="M987.452 291.992C987.452 291.843 987.452 291.653 987.474 291.503H987.452C987.361 291.635 987.257 291.766 987.167 291.898L986.519 292.696H988.271V293.017H986.065V292.76L987.38 291.127H987.863V293.726H987.461L987.452 291.992Z" fill="#5A5773"/>
<path d="M978.952 290.359C979.016 290.3 979.101 290.268 979.19 290.268C979.279 290.268 979.365 290.3 979.428 290.359L981.1 291.943C981.131 291.972 981.156 292.006 981.173 292.044C981.19 292.082 981.199 292.123 981.199 292.164C981.199 292.205 981.19 292.245 981.173 292.283C981.156 292.321 981.131 292.355 981.1 292.384L979.454 293.943C979.424 293.975 979.387 294 979.346 294.017C979.304 294.035 979.26 294.044 979.215 294.044C979.17 294.044 979.125 294.035 979.084 294.017C979.042 294 979.005 293.975 978.975 293.943C978.942 293.915 978.916 293.88 978.898 293.841C978.88 293.803 978.871 293.761 978.871 293.719C978.871 293.676 978.88 293.635 978.898 293.596C978.916 293.557 978.942 293.523 978.975 293.494L980.387 292.148L978.952 290.809C978.919 290.78 978.892 290.745 978.874 290.706C978.856 290.667 978.846 290.625 978.846 290.583C978.846 290.54 978.856 290.498 978.874 290.459C978.892 290.42 978.919 290.385 978.952 290.356V290.359Z" fill="#5A5773"/>
<path d="M976.102 292.148C976.101 292.829 976.313 293.495 976.713 294.062C977.113 294.629 977.682 295.071 978.348 295.332C979.015 295.593 979.748 295.662 980.455 295.529C981.163 295.397 981.813 295.069 982.323 294.587C982.833 294.106 983.18 293.492 983.32 292.824C983.461 292.156 983.388 291.464 983.111 290.835C982.835 290.206 982.367 289.669 981.766 289.291C981.166 288.914 980.461 288.713 979.739 288.714C978.775 288.715 977.85 289.077 977.168 289.721C976.486 290.365 976.103 291.238 976.102 292.148V292.148ZM976.662 292.148C976.661 291.474 976.907 290.82 977.36 290.298C977.812 289.776 978.442 289.418 979.143 289.285C979.843 289.153 980.571 289.254 981.201 289.571C981.832 289.889 982.326 290.402 982.6 291.025C982.874 291.648 982.911 292.342 982.704 292.987C982.497 293.633 982.059 294.191 981.465 294.566C980.871 294.941 980.158 295.109 979.447 295.043C978.736 294.977 978.071 294.68 977.566 294.203C977.279 293.935 977.051 293.614 976.895 293.262C976.74 292.909 976.661 292.53 976.662 292.148V292.148Z" fill="#5A5773"/>
<path opacity="0.2" d="M780.522 161.77H709.417C708.726 161.77 708.167 162.298 708.167 162.95V167.883C708.167 168.535 708.726 169.063 709.417 169.063H780.522C781.213 169.063 781.773 168.535 781.773 167.883V162.95C781.773 162.298 781.213 161.77 780.522 161.77Z" fill="#5A5773"/>
<path d="M883.436 335.501C882.899 333.666 882.549 332.045 882.549 332.045C882.549 332.045 882.572 330.027 881.551 328.544L881.532 328.039L881.38 324.308C881.624 323.621 881.931 322.955 882.296 322.317C882.963 321.118 882.076 316.849 882.076 316.849C882.076 316.849 879.19 310.889 879.676 307.023C880.162 303.158 873.567 290.157 873.567 290.157C873.551 288.882 873.69 287.608 873.981 286.362C874.033 286.1 874.048 285.833 874.027 285.567C874.027 285.534 874.027 285.506 874.027 285.469C874.027 285.469 874.027 285.491 874.027 285.5C873.836 282.971 871.52 278.298 871.52 278.298L871.435 269.237C871.435 269.237 872.572 263.848 870.068 256.765C869.197 254.294 868.621 252.313 868.245 250.777C868.203 250.606 868.161 250.438 868.125 250.279C872.66 249.456 876.097 248.787 876.097 248.787C876.097 248.787 873.036 238.465 871.179 236.707C869.323 234.948 867.665 229.273 867.665 229.273C867.665 229.273 866.437 221.948 867.846 219.743C869.255 217.538 869.32 213.823 869.32 213.823C869.32 213.823 872.644 211.352 873.029 210.297C873.415 209.242 874.03 206.868 873.981 205.63C873.933 204.391 873.457 203.303 873.573 202.645C873.69 201.988 872.449 199.556 872.971 198.364C873.103 197.998 873.164 197.612 873.152 197.226C873.152 197.226 873.152 197.202 873.152 197.192C873.152 197.183 873.152 197.192 873.152 197.177C873.115 196.152 872.973 195.133 872.728 194.134C871.709 193.381 870.532 192.84 869.275 192.547L869.187 192.272L868.961 191.535C868.844 191.467 868.731 191.409 868.617 191.357L868.598 191.091L868.523 190.036L868.961 187.651C869.842 183.477 863.976 183.064 863.976 183.064C863.596 182.442 862.986 181.975 862.262 181.755C861.07 181.406 862.32 187.981 862.887 188.382C863.312 188.688 864.675 190.712 865.333 191.709L865.436 191.871C865.345 191.958 865.26 192.05 865.181 192.146L865.462 193.575L865.505 193.792C865.137 194.259 864.844 194.774 864.633 195.321C864.633 195.321 865.747 196.391 865.586 197.636C865.424 198.88 866.026 200.403 866.055 200.486C865.99 200.419 865.207 199.679 864.465 199.893C863.723 200.107 861.647 200.777 861.647 200.777C861.647 200.777 860.089 201.082 860.244 201.416C860.4 201.749 859.247 203.214 859.247 203.214L854.88 199.596C854.835 199.486 854.786 199.376 854.744 199.26C854.547 198.728 854.402 198.18 854.31 197.624C854.765 197.502 855.21 197.35 855.641 197.168C856.078 197.009 856.468 196.753 856.778 196.422C857.183 195.929 857.238 195.281 857.387 194.682C857.672 193.513 858.359 192.455 858.816 191.336C859.601 189.456 859.808 187.405 859.412 185.418C859.319 184.804 859.074 184.219 858.696 183.712C857.97 182.843 856.71 182.525 855.781 181.847C854.851 181.168 854.213 180.1 853.134 179.602C852.163 179.155 850.996 179.253 849.927 179.461C847.826 179.86 845.822 180.627 844.019 181.721C843.42 182.085 842.763 182.507 842.05 182.412C841.441 182.33 840.978 181.889 840.57 181.467C840.57 181.449 840.57 181.431 840.586 181.412L840.537 181.36C840.13 182.311 839.948 183.336 840.006 184.36C840.006 184.519 840.019 184.678 840.045 184.837C840.045 184.892 840.045 184.947 840.061 185.003C840.064 185.048 840.064 185.094 840.061 185.14V185.14C840.063 185.211 840.056 185.282 840.038 185.351C839.958 185.559 839.831 185.747 839.666 185.905C839.544 186.047 839.436 186.198 839.342 186.357C839.342 186.302 839.374 186.247 839.394 186.195C839.139 186.575 839.006 187.015 839.008 187.464C838.998 187.791 839.125 188.109 839.361 188.348C839.58 188.536 839.818 188.702 840.071 188.847C840.005 189.287 839.981 189.732 840 190.177C840.059 191.502 840.48 192.789 841.222 193.915C841.965 195.04 843.003 195.965 844.236 196.599L844.392 196.935C844.985 198.254 845.454 199.798 845.334 201.244C845.334 201.351 845.312 201.455 845.296 201.55C845.244 201.605 845.195 201.663 845.15 201.722C845.15 201.722 838.195 202.027 836.501 200.697C834.807 199.367 832.507 204.266 832.507 204.266C832.507 204.266 830.033 204.813 829.518 204.376C829.003 203.939 826.094 204.434 826.094 204.434C824.858 203.475 823.282 202.997 821.685 203.095C820.685 202.431 819.588 201.906 818.43 201.535V201.535L818.352 201.511C817.844 201.356 817.305 201.311 816.775 201.379C816.775 201.379 813.247 198.835 812.192 197.437C811.136 196.039 806.167 190.899 806.144 190.877L806.121 190.617L806.037 189.847C805.897 189.872 805.755 189.888 805.613 189.896C805.585 189.82 805.549 189.731 805.506 189.63C805.202 188.889 804.834 188.173 804.408 187.489C804.408 187.489 804.369 186.51 804.661 186.266C804.952 186.021 804.379 182.443 804.379 182.443C804.379 182.443 801.02 175.752 798.464 180.932C798.464 180.932 793.379 184.409 797.917 188.076C797.917 188.076 799.698 188.81 799.97 189.434C800.148 189.841 800.79 190.963 801.221 191.715L801.412 192.052L801.363 192.091L801.454 192.727L801.489 192.975C800.683 193.449 800.142 193.908 800.291 194.232C800.557 194.787 800.748 195.372 800.861 195.972C800.861 195.972 807.21 202.917 808.12 205.948C808.12 205.948 824.737 214.474 830.107 214.933L829.369 219.52C829.369 219.52 829.194 222.272 829.304 223.239C829.414 224.205 828.883 228.667 828.883 228.667C828.883 228.667 828.235 235.215 827.477 236.153C826.719 237.092 827.03 240.994 827.03 240.994C826.919 242.872 826.637 244.737 826.188 246.569C825.504 249.071 826.188 252.111 826.188 252.111C826.188 252.111 823.72 258.071 830.039 253.863C830.039 253.863 833.217 253.557 836.877 253.31C836.877 253.423 836.877 253.536 836.877 253.655C836.877 254.102 836.896 254.573 836.913 255.093C837 258.457 837.169 263.077 837.47 266.57C838.007 272.744 840.502 284.919 840.502 284.919L840.751 291.069C840.647 291.652 840.609 292.243 840.638 292.833C840.68 295.003 841.375 297.116 842.643 298.925L843.31 303.011C843.31 303.011 844.606 305.668 844.677 307.292C844.678 307.425 844.668 307.557 844.644 307.687C844.609 307.895 844.598 308.106 844.612 308.317C844.612 310.182 845.992 314.595 845.992 314.595C845.992 314.595 846.248 319.085 846.964 319.32C847.582 319.522 846.254 321.938 845.859 322.635C845.859 322.592 845.836 322.55 845.827 322.507L845.746 322.644C845.612 323.012 845.552 323.4 845.568 323.788C845.54 324.096 845.606 324.406 845.757 324.68C845.909 324.955 846.14 325.183 846.423 325.339C847.809 326.073 848.564 326.696 847.424 326.999C847.004 327.081 846.589 327.183 846.18 327.305L846.115 327.158C845.967 327.227 845.847 327.339 845.772 327.478C845.698 327.617 845.674 327.776 845.704 327.929C845.684 328.256 845.82 328.733 846.19 329.437C847.427 331.804 848.256 332.687 848.256 332.687L848.8 332.608C848.727 332.808 848.628 332.999 848.506 333.177C848.31 333.467 848.043 333.708 847.728 333.88C847.434 334.061 847.103 334.181 846.756 334.232C846.37 334.257 845.993 334.359 845.652 334.531C845.31 334.704 845.011 334.942 844.774 335.232C844.1 336.125 843.702 337.324 845.15 338.311L850.313 339.785C850.313 339.785 859.12 340.544 858.579 338.703C858.038 336.862 857.692 335.247 857.692 335.247C857.68 334.111 857.391 332.994 856.846 331.981C856.751 331.815 856.643 331.657 856.522 331.507L856.83 331.461C856.83 331.461 857.306 327.336 858.126 326.525C858.314 326.336 858.352 326.198 858.304 326.091C858.382 325.865 858.155 325.742 857.863 325.678C857.844 325.733 857.825 325.785 857.808 325.843C857.534 325.798 857.255 325.78 856.976 325.788C856.976 325.788 856.603 323.647 857.497 322.834C857.569 322.742 857.62 322.638 857.646 322.527C857.672 322.415 857.673 322.3 857.65 322.189C857.646 321.894 857.602 321.601 857.52 321.317C857.52 321.317 857.501 321.351 857.488 321.369C856.94 319.436 855.236 316.393 855.236 316.393C855.236 316.393 855.087 314.442 855.625 313.641C856.163 312.84 855.12 303.029 855.12 303.029C855.12 303.029 855.139 298.268 854.407 296.078C853.675 293.888 854.981 291.231 854.981 291.231C854.981 291.231 854.981 291.179 854.958 291.09C854.965 291.08 854.97 291.068 854.974 291.057C854.974 291.057 854.932 290.751 854.861 290.31C854.861 290.31 854.861 290.341 854.861 290.356C854.666 289.102 854.3 286.833 854.057 285.787C853.711 284.301 853.776 277.124 853.776 277.124L854.935 274.016L857.429 279.215L860.137 286.16C860.137 286.16 861.401 287.601 861.488 289.105C861.488 289.179 861.488 289.252 861.488 289.326C861.488 289.488 861.488 289.631 861.488 289.797C861.482 290.687 861.777 291.556 862.33 292.277C862.33 292.277 863.108 295.573 864.138 296.384C865.168 297.194 865.239 298.83 865.239 298.83C865.239 298.83 866.645 303.604 867.25 304.43C867.759 305.127 867.866 307.087 867.898 307.687C867.898 307.797 867.898 307.861 867.898 307.861C867.898 307.861 868.138 309.577 868.19 311.026C868.19 311.204 868.19 311.378 868.19 311.54C868.19 311.54 868.19 311.516 868.19 311.503C868.205 311.898 868.171 312.293 868.089 312.681C868.089 312.699 868.089 312.724 868.07 312.748C868.07 312.666 868.07 312.583 868.07 312.503C867.858 313.495 867.777 314.508 867.827 315.519C867.866 317.253 868.229 319.293 869.388 320.458C871.397 322.473 872.598 322.167 872.598 322.167C872.598 322.167 871.779 324.806 870.655 325.369C870.613 325.39 870.574 325.416 870.538 325.446C870.538 325.397 870.512 325.345 870.503 325.296C870.384 325.431 870.296 325.588 870.245 325.757C870.195 325.926 870.182 326.103 870.208 326.277C870.172 327.427 871.014 329.259 871.775 330.088C872.052 330.326 872.385 330.496 872.747 330.583C872.691 330.624 872.633 330.66 872.572 330.693C872.448 330.764 872.319 330.828 872.187 330.883C872.005 330.967 871.811 331.023 871.61 331.048C871.224 331.073 870.848 331.175 870.507 331.347C870.165 331.519 869.867 331.758 869.631 332.048C868.957 332.938 868.556 334.137 870.004 335.125L875.17 336.599C875.17 336.599 883.977 337.342 883.436 335.501Z" fill="url(#paint1_linear)"/>
<path d="M850.086 339.794L845.088 338.327C843.686 337.336 844.068 336.137 844.722 335.247C844.946 334.96 845.233 334.722 845.564 334.55C845.894 334.377 846.26 334.274 846.637 334.247C846.97 334.196 847.287 334.077 847.566 333.898C847.874 333.725 848.133 333.484 848.321 333.195C848.658 332.643 848.827 332.013 848.81 331.375C848.81 331.375 854.164 329.681 855.706 331.125C855.982 331.386 856.215 331.683 856.399 332.008C856.929 333.023 857.211 334.137 857.225 335.268C857.225 335.268 857.565 336.883 858.09 338.724C858.615 340.565 850.086 339.794 850.086 339.794Z" fill="#2D293D"/>
<path d="M874.143 336.623L869.142 335.143C867.74 334.152 868.125 332.953 868.776 332.063C869 331.776 869.287 331.539 869.617 331.366C869.948 331.194 870.314 331.092 870.69 331.067C870.885 331.041 871.073 330.985 871.248 330.901C871.377 330.847 871.503 330.785 871.623 330.715C872.974 329.947 872.864 328.192 872.864 328.192C872.864 328.192 878.218 326.498 879.763 327.941C879.969 328.136 880.152 328.353 880.307 328.586C881.299 330.07 881.279 332.094 881.279 332.094C881.279 332.094 881.623 333.712 882.144 335.55C882.666 337.388 874.143 336.623 874.143 336.623Z" fill="#2D293D"/>
<path opacity="0.1" d="M855.706 331.112C855.982 331.373 856.215 331.671 856.399 331.996V331.996L848.321 333.18C848.658 332.627 848.827 331.998 848.81 331.36C848.81 331.36 854.164 329.669 855.706 331.112Z" fill="black"/>
<path opacity="0.1" d="M880.298 328.586L880.356 330.021C879.177 332.03 873.052 331.822 871.238 330.901C871.368 330.847 871.493 330.785 871.614 330.715C872.964 329.947 872.854 328.192 872.854 328.192C872.854 328.192 878.209 326.498 879.754 327.941C879.96 328.136 880.142 328.353 880.298 328.586V328.586Z" fill="black"/>
<path d="M881.01 322.369C880.657 323.007 880.361 323.672 880.126 324.357L880.337 329.501C879.041 331.7 871.84 331.244 870.827 330.112C869.813 328.981 868.656 325.953 869.738 325.391C870.82 324.828 871.61 322.195 871.61 322.195C871.61 322.195 870.448 322.501 868.501 320.482C866.554 318.464 866.917 313.822 867.205 312.702C867.493 311.583 867.004 307.883 867.004 307.883C867.004 307.883 866.969 305.277 866.382 304.451C865.796 303.626 864.439 298.849 864.439 298.849C864.439 298.849 864.374 297.219 863.373 296.402C862.372 295.586 861.618 292.292 861.618 292.292C861.019 291.483 860.735 290.503 860.814 289.518C860.954 287.882 859.502 286.173 859.502 286.173L856.872 279.228L854.449 274.029L853.332 277.136C853.332 277.136 853.28 284.31 853.617 285.797C853.954 287.283 854.53 291.243 854.53 291.243C854.53 291.243 853.254 293.898 853.967 296.087C854.679 298.277 854.663 303.042 854.663 303.042C854.663 303.042 855.687 312.852 855.165 313.653C854.644 314.455 854.796 316.406 854.796 316.406C854.796 316.406 857.857 322.033 856.992 322.846C856.127 323.66 856.49 325.797 856.49 325.797C856.49 325.797 858.434 325.727 857.624 326.54C856.814 327.354 856.377 331.476 856.377 331.476L848.075 332.7C848.075 332.7 847.271 331.816 846.07 329.446C844.868 327.076 846.19 327.29 847.288 326.999C848.386 326.709 847.66 326.082 846.316 325.339C844.972 324.595 845.668 322.819 845.668 322.819C845.668 322.819 847.537 319.556 846.837 319.32C846.138 319.085 845.885 314.595 845.885 314.595C845.885 314.595 844.288 309.305 844.589 307.867C844.891 306.43 843.294 303.023 843.294 303.023L842.646 298.937C839.97 294.971 840.78 291.231 840.78 291.231L840.521 284.913C840.521 284.913 838.092 272.741 837.564 266.564C837.24 262.607 837.055 257.2 836.977 253.823C836.932 251.927 836.916 250.674 836.916 250.674L866.593 246.661C866.593 246.661 866.616 247.961 867.302 250.82C867.668 252.349 868.229 254.337 869.077 256.811C871.507 263.894 870.415 269.282 870.415 269.282L870.509 278.344C870.509 278.344 873.376 284.304 872.909 286.408C872.634 287.655 872.505 288.927 872.524 290.2C872.524 290.2 878.924 303.207 878.461 307.072C877.998 310.938 880.793 316.898 880.793 316.898C880.793 316.898 881.652 321.17 881.01 322.369Z" fill="#575988"/>
<path opacity="0.05" d="M862.593 289.063L871.617 287.592C871.617 287.592 866.693 292.729 862.593 289.063Z" fill="black"/>
<path opacity="0.1" d="M869.965 279.273C869.965 279.273 870.399 282.289 868.478 283.5C868.478 283.5 871.976 282.852 869.965 279.273Z" fill="black"/>
<path opacity="0.1" d="M869.016 269.656C869.016 269.656 861.673 275.824 858.897 275.436C856.121 275.047 869.016 269.656 869.016 269.656Z" fill="black"/>
<path opacity="0.1" d="M851.469 292.237C851.469 292.237 845.756 293.677 845.671 295.87C845.587 298.063 851.469 292.237 851.469 292.237Z" fill="black"/>
<path opacity="0.05" d="M853.837 319.345C853.837 319.345 845.759 321.072 848.107 321.965C850.456 322.858 854.284 323.495 854.284 323.495C854.284 323.495 856.908 323.537 853.837 319.345Z" fill="black"/>
<g opacity="0.05">
<path opacity="0.05" d="M846.526 323.574C846.318 323.46 846.139 323.303 846.003 323.115C845.867 322.927 845.777 322.713 845.739 322.488L845.662 322.629C845.662 322.629 844.972 324.415 846.309 325.149C846.465 325.232 846.607 325.314 846.747 325.397C846.983 325.345 847.246 325.305 847.492 325.235C848.599 324.935 847.871 324.308 846.526 323.574Z" fill="black"/>
<path opacity="0.05" d="M856.976 322.675C857.193 322.47 857.164 321.972 857.002 321.332C856.655 321.852 856.597 322.638 856.616 323.235C856.691 323.025 856.814 322.834 856.976 322.675Z" fill="black"/>
<path opacity="0.05" d="M854.417 290.313C854.148 291.094 853.996 291.906 853.964 292.726C854.097 292.155 854.285 291.596 854.527 291.057C854.527 291.057 854.485 290.778 854.417 290.313Z" fill="black"/>
<path opacity="0.05" d="M872.909 286.228C872.955 285.992 872.971 285.752 872.958 285.512C872.874 286.005 872.822 286.457 872.786 286.855C872.822 286.644 872.864 286.442 872.909 286.228Z" fill="black"/>
<path opacity="0.05" d="M855.165 313.479C855.269 313.317 855.311 312.776 855.311 312.026C855.081 312.613 854.971 313.236 854.987 313.861C855.03 313.728 855.09 313.599 855.165 313.479V313.479Z" fill="black"/>
<path opacity="0.05" d="M857.374 325.696C856.866 327.183 856.587 329.73 856.587 329.73L848.285 330.953C848.285 330.953 847.482 330.07 846.287 327.693C846.183 327.485 846.096 327.299 846.028 327.128C845.539 327.363 845.36 327.859 846.076 329.268C847.278 331.638 848.078 332.522 848.078 332.522L856.38 331.299C856.38 331.299 856.833 327.174 857.63 326.36C858.016 325.969 857.747 325.788 857.374 325.696Z" fill="black"/>
<path opacity="0.05" d="M845.879 314.403C845.879 314.403 846.131 318.895 846.831 319.131C847.155 318.372 847.352 317.66 847.038 317.556C846.339 317.32 846.086 312.828 846.086 312.828C846.086 312.828 844.489 307.54 844.79 306.1C845.091 304.659 843.495 301.256 843.495 301.256L842.847 297.173C840.2 293.225 841.013 289.479 841.013 289.479L840.754 283.163C840.754 283.163 838.325 270.992 837.797 264.815C837.473 260.86 837.288 255.45 837.211 252.074C837.211 251.463 837.185 250.924 837.175 250.469L836.939 250.499C836.939 250.499 836.939 251.753 836.997 253.649C837.078 257.013 837.246 262.432 837.586 266.386C838.114 272.564 840.544 284.735 840.544 284.735L840.78 291.047C840.78 291.047 839.967 294.794 842.614 298.742L843.261 302.827C843.261 302.827 844.852 306.225 844.557 307.669C844.262 309.112 845.879 314.403 845.879 314.403Z" fill="black"/>
<path opacity="0.05" d="M871.037 328.357C870.32 327.458 869.825 326.418 869.589 325.314C868.766 326.07 869.861 328.849 870.823 329.932C871.837 331.07 879.038 331.525 880.33 329.32L880.278 328.079C878.487 329.898 871.993 329.434 871.037 328.357Z" fill="black"/>
<path opacity="0.05" d="M881.218 320.62C880.864 321.258 880.568 321.923 880.333 322.608L880.369 323.525C880.512 323.186 880.719 322.733 881.017 322.195C881.214 321.675 881.295 321.122 881.253 320.571C881.234 320.589 881.227 320.605 881.218 320.62Z" fill="black"/>
<path opacity="0.05" d="M871.202 322.011C871.443 321.501 871.649 320.975 871.818 320.439C871.818 320.439 870.655 320.745 868.708 318.727C867.293 317.259 867.088 314.4 867.215 312.522C866.914 313.641 866.551 318.283 868.51 320.299C869.77 321.617 870.707 321.944 871.202 322.011Z" fill="black"/>
<path opacity="0.05" d="M867.017 307.702C867.189 308.981 867.288 310.267 867.312 311.555C867.337 311.35 867.376 311.145 867.429 310.944C867.73 309.825 867.228 306.127 867.228 306.127C867.228 306.127 867.192 303.519 866.606 302.693C866.02 301.867 864.662 297.09 864.662 297.09C864.662 297.09 864.598 295.463 863.597 294.644C862.596 293.824 861.835 290.543 861.835 290.543C861.234 289.734 860.95 288.754 861.031 287.769C861.171 286.133 859.736 284.426 859.736 284.426L857.083 277.469L854.66 272.27L853.542 275.39C853.542 275.39 853.542 275.775 853.542 276.38L854.449 273.857L856.872 279.056L859.506 286.004C859.506 286.004 860.957 287.714 860.801 289.347C860.722 290.332 861.005 291.314 861.605 292.124C861.605 292.124 862.363 295.421 863.36 296.234C864.358 297.048 864.429 298.681 864.429 298.681C864.429 298.681 865.796 303.457 866.373 304.283C866.949 305.109 867.017 307.702 867.017 307.702Z" fill="black"/>
</g>
<path d="M867.924 187.691L867.503 190.088L867.578 191.143L867.629 191.923L864.766 192.308L864.419 191.758C863.772 190.761 862.46 188.733 862.048 188.428C861.498 188.027 860.28 181.452 861.436 181.801C862.141 182.03 862.732 182.497 863.095 183.113C863.095 183.113 868.773 183.519 867.924 187.691Z" fill="#FFCDD3"/>
<path opacity="0.1" d="M867.629 191.923L864.766 192.309L864.419 191.758C864.79 191.327 865.307 191.031 865.883 190.919C866.459 190.808 867.057 190.888 867.578 191.146L867.629 191.923Z" fill="black"/>
<path d="M868.41 193.186L864.649 194.153L864.546 193.624L864.274 192.195C864.274 192.195 865.699 190.25 867.927 191.584L868.148 192.309L868.41 193.186Z" fill="#DCE6F2"/>
<path d="M806.724 190.174L802.759 192.376C802.759 192.376 802.591 192.07 802.361 191.666C801.946 190.917 801.324 189.789 801.149 189.385C800.884 188.773 799.161 188.021 799.161 188.021C794.765 184.351 799.682 180.88 799.682 180.88C802.147 175.703 805.409 182.409 805.409 182.409C805.409 182.409 805.966 185.978 805.684 186.232C805.402 186.486 805.441 187.455 805.441 187.455C805.858 188.14 806.215 188.856 806.507 189.596C806.649 189.954 806.724 190.174 806.724 190.174Z" fill="#FFCDD3"/>
<path opacity="0.1" d="M806.724 190.174L802.759 192.376C802.759 192.376 802.591 192.07 802.361 191.666C802.915 191.195 804.878 189.568 805.548 189.614C805.871 189.643 806.197 189.643 806.52 189.614C806.649 189.954 806.724 190.174 806.724 190.174Z" fill="black"/>
<path d="M807.184 191.318L802.72 193.599L802.591 192.682L802.5 192.046C802.5 192.046 805.053 189.816 805.833 189.868C806.23 189.907 806.63 189.891 807.022 189.822L807.106 190.596L807.184 191.318Z" fill="#DCE6F2"/>
<path d="M857.533 203.884C857.533 203.884 837.774 206.719 841.435 205.446C843.984 204.56 844.949 202.972 845.092 201.244C845.208 199.798 844.768 198.254 844.178 196.936C843.661 195.77 843.019 194.657 842.264 193.614C842.264 193.614 857.115 185.183 854.385 192.452C853.959 193.552 853.716 194.707 853.662 195.877C853.616 197.039 853.795 198.199 854.19 199.299C854.835 201.09 855.992 202.676 857.533 203.884V203.884Z" fill="#FFCDD3"/>
<path opacity="0.1" d="M854.385 192.452C853.959 193.552 853.716 194.708 853.662 195.877C852.279 197.064 850.708 197.046 848.697 197.119C847.148 197.174 845.458 197.59 844.188 196.932C843.67 195.767 843.029 194.654 842.273 193.611C842.273 193.611 857.115 185.183 854.385 192.452Z" fill="black"/>
<path d="M848.12 197.633C852.657 197.633 856.335 194.161 856.335 189.877C856.335 185.594 852.657 182.122 848.12 182.122C843.583 182.122 839.906 185.594 839.906 189.877C839.906 194.161 843.583 197.633 848.12 197.633Z" fill="#FFCDD3"/>
<path opacity="0.1" d="M857.533 203.884C857.533 203.884 837.774 206.719 841.435 205.446C843.984 204.559 844.949 202.972 845.092 201.244C846.041 200.199 848.007 199.41 849.254 198.963C850.403 198.552 851.659 198.487 852.849 198.777C853.318 198.89 853.766 199.067 854.181 199.303C854.828 201.093 855.989 202.678 857.533 203.884V203.884Z" fill="black"/>
<path opacity="0.1" d="M868.41 193.186L864.649 194.153L864.546 193.624C864.93 193.082 865.483 192.665 866.127 192.43C866.772 192.195 867.477 192.154 868.148 192.312L868.41 193.186Z" fill="black"/>
<path opacity="0.1" d="M807.184 191.318L802.72 193.599L802.591 192.682C804.181 191.715 806.873 190.685 807.106 190.596L807.184 191.318Z" fill="black"/>
<path opacity="0.1" d="M867.309 250.817C859.671 252.242 848.791 254.132 847.035 253.695C845.577 253.334 840.981 253.545 836.994 253.82C836.948 251.924 836.932 250.671 836.932 250.671L866.609 246.658C866.609 246.658 866.622 247.958 867.309 250.817Z" fill="black"/>
<path d="M874.908 248.836C874.908 248.836 849.762 253.857 847.012 253.175C844.262 252.493 830.353 253.845 830.353 253.845C824.238 258.044 826.622 252.089 826.622 252.089C826.622 252.089 825.945 249.05 826.603 246.548C827.035 244.715 827.306 242.851 827.412 240.976C827.412 240.976 827.114 237.074 827.837 236.135C828.559 235.196 829.187 228.652 829.187 228.652C829.187 228.652 829.696 224.196 829.589 223.223C829.482 222.251 829.644 219.505 829.644 219.505L830.353 214.918C825.171 214.453 809.059 205.908 809.059 205.908C808.175 202.874 802.021 195.926 802.021 195.926C801.912 195.327 801.726 194.743 801.467 194.186C801.01 193.159 807.132 190.85 807.132 190.85C807.132 190.85 811.971 196.021 812.995 197.419C814.018 198.816 817.439 201.364 817.439 201.364C817.952 201.299 818.473 201.345 818.965 201.498C818.992 201.503 819.019 201.51 819.046 201.52C820.172 201.895 821.236 202.421 822.204 203.082C824.678 202.862 826.47 204.428 826.47 204.428C826.47 204.428 829.281 203.936 829.783 204.373C830.285 204.81 832.679 204.269 832.679 204.269C832.679 204.269 834.898 199.361 836.54 200.703C838.182 202.046 844.913 201.737 844.913 201.737C845.765 200.578 847.913 199.691 849.26 199.226C850.41 198.815 851.666 198.75 852.856 199.04C853.372 199.164 853.862 199.371 854.304 199.651L858.54 203.278C858.54 203.278 859.655 201.804 859.512 201.483C859.37 201.162 860.869 200.847 860.869 200.847C860.869 200.847 862.845 200.186 863.597 199.966C864.348 199.746 865.074 200.492 865.135 200.559C865.109 200.477 864.526 198.92 864.679 197.709C864.831 196.498 863.755 195.394 863.755 195.394C865.942 189.706 871.581 194.198 871.581 194.198C871.581 194.198 872.326 197.235 871.821 198.428C871.316 199.621 872.521 202.055 872.41 202.709C872.3 203.364 872.757 204.459 872.809 205.694C872.861 206.93 872.258 209.272 871.876 210.339C871.494 211.407 868.313 213.859 868.313 213.859C868.313 213.859 868.258 217.578 866.897 219.777C865.537 221.976 866.732 229.306 866.732 229.306C866.732 229.306 868.352 234.985 870.143 236.747C871.934 238.508 874.908 248.836 874.908 248.836Z" fill="#656691"/>
<path opacity="0.1" d="M836.262 207.33C836.262 207.33 835.416 205.208 834.717 205.04C834.021 204.825 833.341 204.566 832.682 204.266L833.094 203.446C833.094 203.446 835.714 204.024 836.155 204.725C836.595 205.425 836.262 207.33 836.262 207.33Z" fill="black"/>
<path opacity="0.1" d="M822.207 203.079C822.094 203.737 815.981 204.544 815.981 204.544L818.965 201.486L819.042 201.511C820.172 201.887 821.238 202.415 822.207 203.079V203.079Z" fill="black"/>
<path d="M804.081 195.309C804.385 195.309 804.631 195.076 804.631 194.789C804.631 194.502 804.385 194.269 804.081 194.269C803.777 194.269 803.53 194.502 803.53 194.789C803.53 195.076 803.777 195.309 804.081 195.309Z" fill="#575988"/>
<path d="M804.829 196.324C805.133 196.324 805.38 196.091 805.38 195.804C805.38 195.517 805.133 195.284 804.829 195.284C804.525 195.284 804.278 195.517 804.278 195.804C804.278 196.091 804.525 196.324 804.829 196.324Z" fill="#575988"/>
<path d="M805.558 197.26C805.862 197.26 806.108 197.027 806.108 196.74C806.108 196.453 805.862 196.22 805.558 196.22C805.254 196.22 805.007 196.453 805.007 196.74C805.007 197.027 805.254 197.26 805.558 197.26Z" fill="#575988"/>
<path d="M806.325 198.275C806.63 198.275 806.876 198.042 806.876 197.755C806.876 197.468 806.63 197.235 806.325 197.235C806.021 197.235 805.775 197.468 805.775 197.755C805.775 198.042 806.021 198.275 806.325 198.275Z" fill="#575988"/>
<path d="M871.335 195.761C871.584 195.761 871.785 195.571 871.785 195.336C871.785 195.101 871.584 194.911 871.335 194.911C871.086 194.911 870.885 195.101 870.885 195.336C870.885 195.571 871.086 195.761 871.335 195.761Z" fill="#575988"/>
<path d="M871.442 196.718C871.691 196.718 871.892 196.528 871.892 196.293C871.892 196.059 871.691 195.868 871.442 195.868C871.193 195.868 870.992 196.059 870.992 196.293C870.992 196.528 871.193 196.718 871.442 196.718Z" fill="#575988"/>
<path d="M871.542 197.676C871.791 197.676 871.993 197.485 871.993 197.25C871.993 197.016 871.791 196.825 871.542 196.825C871.294 196.825 871.092 197.016 871.092 197.25C871.092 197.485 871.294 197.676 871.542 197.676Z" fill="#575988"/>
<path opacity="0.1" d="M837.016 224.976C836.948 224.899 853.251 242.872 864.873 231.722C864.886 231.722 845.914 234.857 837.016 224.976Z" fill="black"/>
<path opacity="0.1" d="M828.471 234.936C828.471 234.936 837.784 234.838 838.859 237.328L838.966 239.958C838.708 240.107 838.413 240.191 838.11 240.202C837.808 240.214 837.507 240.152 837.237 240.022C836.265 239.575 830.545 237.083 828.614 238.453L828.471 234.936Z" fill="black"/>
<path d="M828.65 234.93C828.65 234.93 837.557 234.835 838.584 237.212L838.688 239.716C838.44 239.858 838.158 239.938 837.869 239.949C837.579 239.96 837.291 239.901 837.033 239.777C836.116 239.355 830.632 236.976 828.786 238.285L828.65 234.93Z" fill="#656691"/>
<path opacity="0.1" d="M832.776 215.694C833.813 217.736 835.105 219.653 836.624 221.404C838.279 223.343 840.259 225.015 842.484 226.352C842.484 226.352 832.984 216.881 832.776 215.694Z" fill="black"/>
<path opacity="0.1" d="M829.317 205.584C829.317 205.584 831.128 211.853 835.215 213.856L829.317 205.584Z" fill="black"/>
<path opacity="0.1" d="M826.965 206.309C826.92 206.193 825.789 211.361 832.439 213.954C832.439 213.957 829.628 213.168 826.965 206.309Z" fill="black"/>
<path opacity="0.1" d="M867.416 200.59C867.312 200.59 870.723 202.474 871.662 203.37C871.662 203.37 869.375 200.403 867.416 200.59Z" fill="black"/>
<path d="M846.19 196.984C846.322 197.379 846.484 197.81 846.873 198.006C847.118 198.109 847.386 198.155 847.654 198.14C850.161 198.199 852.768 198.208 855.045 197.223C855.472 197.063 855.851 196.805 856.147 196.474C856.539 195.984 856.591 195.336 856.733 194.737C857.008 193.568 857.659 192.51 858.113 191.391C858.876 189.498 859.073 187.444 858.683 185.452C858.594 184.84 858.356 184.256 857.987 183.746C857.287 182.874 856.063 182.556 855.156 181.877C854.249 181.198 853.64 180.128 852.593 179.629C851.651 179.18 850.524 179.278 849.49 179.483C847.455 179.887 845.521 180.656 843.793 181.749C843.213 182.113 842.578 182.535 841.888 182.437C841.282 182.354 840.829 181.892 840.424 181.461C839.979 182.541 839.816 183.707 839.948 184.859C839.979 185.028 839.979 185.201 839.948 185.37C839.87 185.575 839.748 185.762 839.588 185.92C838.999 186.62 838.655 187.703 839.293 188.367C839.572 188.654 839.987 188.801 840.265 189.094C840.751 189.623 840.628 190.412 840.644 191.11C840.627 191.352 840.702 191.593 840.855 191.789C840.993 191.901 841.159 191.977 841.338 192.011C841.517 192.045 841.702 192.034 841.875 191.981C842.22 191.868 842.586 191.821 842.95 191.844C843.344 191.948 843.687 192.177 843.922 192.492C845.124 193.822 845.639 195.33 846.19 196.984Z" fill="#2D293D"/>
<g opacity="0.1">
<path opacity="0.1" d="M856.396 195.859C856.101 196.19 855.724 196.446 855.298 196.605C853.031 197.599 850.413 197.59 847.903 197.523C847.635 197.536 847.368 197.49 847.122 197.388C846.737 197.192 846.572 196.758 846.439 196.364C845.888 194.712 845.373 193.202 844.172 191.856C843.935 191.543 843.592 191.315 843.2 191.211C842.836 191.189 842.47 191.235 842.124 191.345C841.951 191.399 841.766 191.409 841.587 191.376C841.407 191.343 841.24 191.267 841.101 191.156C840.95 190.958 840.875 190.717 840.89 190.474C840.874 189.776 840.997 188.987 840.515 188.461C840.243 188.156 839.828 188.021 839.543 187.73C839.362 187.515 839.247 187.258 839.208 186.985C839.169 186.713 839.209 186.436 839.323 186.183C838.911 186.856 838.756 187.712 839.29 188.263C839.566 188.55 839.983 188.697 840.262 188.993C840.748 189.52 840.625 190.309 840.641 191.006C840.624 191.248 840.699 191.489 840.851 191.685C840.99 191.797 841.156 191.873 841.335 191.907C841.514 191.941 841.699 191.931 841.872 191.877C842.217 191.766 842.583 191.719 842.947 191.74C843.34 191.844 843.684 192.073 843.919 192.388C845.134 193.734 845.645 195.241 846.186 196.896C846.319 197.29 846.481 197.722 846.87 197.92C847.115 198.022 847.383 198.068 847.65 198.055C850.158 198.11 852.765 198.119 855.042 197.137C855.468 196.977 855.846 196.721 856.144 196.391C856.288 196.196 856.398 195.979 856.467 195.749C856.448 195.786 856.425 195.816 856.396 195.859Z" fill="black"/>
<path opacity="0.1" d="M839.967 185.146C840.074 185.03 840.153 184.893 840.2 184.746C840.233 184.578 840.233 184.406 840.2 184.238C840.091 183.292 840.183 182.334 840.469 181.421L840.421 181.369C839.976 182.45 839.813 183.615 839.945 184.767C839.965 184.893 839.973 185.019 839.967 185.146Z" fill="black"/>
</g>
<path opacity="0.1" d="M844.917 201.734C844.917 201.734 855.22 202.651 856.085 201.156Z" fill="black"/>
<path opacity="0.1" d="M864.685 197.003C864.685 197.003 870.383 196.804 871.717 198.773Z" fill="black"/>
<path d="M989.266 299.182C989.266 299.182 991.187 301.552 988.378 305.133C985.57 308.714 983.257 311.736 984.193 313.968C984.193 313.968 988.43 307.32 991.877 307.225C995.323 307.13 993.059 303.176 989.266 299.182Z" fill="#02C39A"/>
<path opacity="0.1" d="M989.266 299.182C989.435 299.41 989.567 299.661 989.658 299.925C993.023 303.656 994.814 307.139 991.582 307.225C988.569 307.308 984.954 312.393 984.09 313.675C984.118 313.778 984.153 313.88 984.193 313.981C984.193 313.981 988.43 307.332 991.876 307.237C995.323 307.143 993.059 303.176 989.266 299.182Z" fill="black"/>
<path d="M992.838 302.201C992.838 303.035 992.738 303.711 992.615 303.711C992.492 303.711 992.395 303.035 992.395 302.201C992.395 301.366 992.518 301.76 992.641 301.76C992.764 301.76 992.838 301.366 992.838 302.201Z" fill="#FFD037"/>
<path d="M994.063 303.197C993.286 303.595 992.609 303.837 992.55 303.736C992.492 303.635 993.075 303.228 993.846 302.818C994.617 302.408 994.316 302.708 994.377 302.818C994.439 302.928 994.837 302.797 994.063 303.197Z" fill="#FFD037"/>
<path d="M979.121 299.182C979.121 299.182 977.2 301.552 980.005 305.133C982.81 308.714 985.129 311.736 984.193 313.968C984.193 313.968 979.956 307.32 976.51 307.225C973.064 307.13 975.328 303.176 979.121 299.182Z" fill="#02C39A"/>
<path opacity="0.1" d="M979.121 299.182C978.952 299.41 978.82 299.661 978.729 299.925C975.363 303.656 973.572 307.139 976.805 307.225C979.817 307.308 983.429 312.393 984.297 313.675C984.268 313.778 984.234 313.88 984.193 313.981C984.193 313.981 979.956 307.332 976.51 307.237C973.064 307.143 975.328 303.176 979.121 299.182Z" fill="black"/>
<path d="M975.548 302.201C975.548 303.035 975.648 303.711 975.771 303.711C975.895 303.711 975.992 303.035 975.992 302.201C975.992 301.366 975.869 301.76 975.746 301.76C975.622 301.76 975.548 301.366 975.548 302.201Z" fill="#FFD037"/>
<path d="M974.324 303.197C975.101 303.595 975.778 303.837 975.836 303.736C975.895 303.635 975.312 303.228 974.541 302.818C973.77 302.408 974.068 302.708 974.009 302.818C973.951 302.928 973.546 302.797 974.324 303.197Z" fill="#FFD037"/>
<path opacity="0.1" d="M984.19 332.106C995.281 332.106 1004.27 330.804 1004.27 329.198C1004.27 327.592 995.281 326.29 984.19 326.29C973.099 326.29 964.107 327.592 964.107 329.198C964.107 330.804 973.099 332.106 984.19 332.106Z" fill="#02C39A"/>
<path d="M994.529 310.77L994.432 311.51L994.299 312.555L994.244 312.993L994.108 314.039L994.05 314.476L993.914 315.519L992.378 327.415C992.239 328.476 990.403 329.305 988.187 329.305H980.199C977.981 329.305 976.147 328.476 976.011 327.415L974.469 315.519L974.337 314.476L974.282 314.039L974.142 312.993L974.087 312.555L973.951 311.51L973.857 310.77C973.779 310.158 974.774 309.662 976.027 309.662H992.372C993.613 309.662 994.61 310.167 994.529 310.77Z" fill="#65617D"/>
<path d="M994.432 311.51L994.296 312.555H974.084L973.951 311.51H994.432Z" fill="#9D9CB5"/>
<path d="M994.241 312.99L994.108 314.039H974.278L974.142 312.99H994.241Z" fill="#9D9CB5"/>
<path d="M994.047 314.473L993.914 315.519H974.469L974.333 314.473H994.047Z" fill="#9D9CB5"/>
</g>
<defs>
<filter id="filter0_d" x="0.329849" y="184.386" width="535.992" height="392.614" filterUnits="userSpaceOnUse" color-interpolation-filters="sRGB">
<feFlood flood-opacity="0" result="BackgroundImageFix"/>
<feColorMatrix in="SourceAlpha" type="matrix" values="0 0 0 0 0 0 0 0 0 0 0 0 0 0 0 0 0 0 127 0"/>
<feOffset dx="4" dy="4"/>
<feGaussianBlur stdDeviation="5"/>
<feColorMatrix type="matrix" values="0 0 0 0 0 0 0 0 0 0 0 0 0 0 0 0 0 0 0.25 0"/>
<feBlend mode="normal" in2="BackgroundImageFix" result="effect1_dropShadow"/>
<feBlend mode="normal" in="SourceGraphic" in2="effect1_dropShadow" result="shape"/>
</filter>
<filter id="filter1_d" x="638.21" y="0" width="393.79" height="407.979" filterUnits="userSpaceOnUse" color-interpolation-filters="sRGB">
<feFlood flood-opacity="0" result="BackgroundImageFix"/>
<feColorMatrix in="SourceAlpha" type="matrix" values="0 0 0 0 0 0 0 0 0 0 0 0 0 0 0 0 0 0 127 0"/>
<feOffset dx="4" dy="4"/>
<feGaussianBlur stdDeviation="5"/>
<feColorMatrix type="matrix" values="0 0 0 0 0 0 0 0 0 0 0 0 0 0 0 0 0 0 0.25 0"/>
<feBlend mode="normal" in2="BackgroundImageFix" result="effect1_dropShadow"/>
<feBlend mode="normal" in="SourceGraphic" in2="effect1_dropShadow" result="shape"/>
</filter>
<linearGradient id="paint0_linear" x1="851.897" y1="310.088" x2="851.897" y2="145.457" gradientUnits="userSpaceOnUse">
<stop stop-color="#808080" stop-opacity="0.25"/>
<stop offset="0.54" stop-color="#808080" stop-opacity="0.12"/>
<stop offset="1" stop-color="#808080" stop-opacity="0.1"/>
</linearGradient>
<linearGradient id="paint1_linear" x1="61154.9" y1="129311" x2="58048.1" y2="43652.2" gradientUnits="userSpaceOnUse">
<stop stop-color="#808080" stop-opacity="0.25"/>
<stop offset="0.54" stop-color="#808080" stop-opacity="0.12"/>
<stop offset="1" stop-color="#808080" stop-opacity="0.1"/>
</linearGradient>
<clipPath id="clip0">
<rect x="654.368" y="103.955" width="351.444" height="251.61" fill="white"/>
</clipPath>
</defs>
</svg>
