<svg width="1440" height="1140" viewBox="0 0 1440 1140" fill="none" xmlns="http://www.w3.org/2000/svg">
<path d="M0 55.605C0 55.605 164 -1.89512 362 55.605C560 113.105 795.5 180.716 1029 55.605C1262.5 -69.5062 1440 55.605 1440 55.605V527.605H0V55.605Z" fill="#02C39A"/>
<path d="M0 187.875C0 187.875 203 134.156 387 187.875C571 241.594 699 276.897 846 248.741C993 220.585 1072 219.569 1163.5 219.569C1255 219.569 1440 276.897 1440 276.897V1093C1440 1093 1157.5 1197 904.5 1093C651.5 989 622 1016 327 1093C32 1170 0 1093 0 1093V187.875Z" fill="#16D9AF"/>
<path d="M0 187.875C0 187.875 203 134.156 387 187.875C571 241.594 699 276.897 846 248.741C993 220.585 1072 219.569 1163.5 219.569C1255 219.569 1440 276.897 1440 276.897V1093C1440 1093 1157.5 1197 904.5 1093C651.5 989 622 1016 327 1093C32 1170 0 1093 0 1093V187.875Z" fill="#16D9AF"/>
</svg>
