<svg width="1440" height="1155" viewBox="0 0 1440 1155" fill="none" xmlns="http://www.w3.org/2000/svg">
<path d="M-11 55.605C-11 55.605 153 -1.89512 351 55.605C549 113.105 784.5 180.716 1018 55.605C1251.5 -69.5062 1429 55.605 1429 55.605V527.605H-11V55.605Z" fill="#02C39A"/>
<path d="M1438 1077C1438 1077 1235 1182 1056 1147.5C877 1113 704 923.5 400 1041C96 1158.5 -2 1077 -2 1077V605L1438 605V1077Z" fill="#02C39A"/>
<path d="M0 112.875C0 112.875 203 59.1562 387 112.875C571 166.594 699 201.897 846 173.741C993 145.585 1072 144.569 1163.5 144.569C1255 144.569 1440 201.897 1440 201.897V1018C1440 1018 1157.5 1122 904.5 1018C651.5 914 622 941 327 1018C32 1095 0 1018 0 1018V112.875Z" fill="#16D9AF"/>
<path d="M0 112.875C0 112.875 203 59.1562 387 112.875C571 166.594 699 201.897 846 173.741C993 145.585 1072 144.569 1163.5 144.569C1255 144.569 1440 201.897 1440 201.897V1018C1440 1018 1157.5 1122 904.5 1018C651.5 914 622 941 327 1018C32 1095 0 1018 0 1018V112.875Z" fill="#16D9AF"/>
<path d="M700.5 368.5C700.5 621.17 495.67 826 243 826C-9.67043 826 -214.5 621.17 -214.5 368.5C-214.5 115.83 -148.17 192.5 104.5 192.5C357.17 192.5 700.5 115.83 700.5 368.5Z" fill="#00A896" fill-opacity="0.24"/>
<path d="M1593 584C1593 836.67 1529.67 700.564 1277 700.564C1024.33 700.564 717.5 1032.23 717.5 779.564C717.5 526.894 734.33 254.564 987 254.564C1239.67 254.564 1640.98 130.064 1593 584Z" fill="#1ACFA9"/>
</svg>
