<svg width="112" height="46" viewBox="0 0 112 46" fill="none" xmlns="http://www.w3.org/2000/svg">
<path d="M80.9041 9.56103L75.3408 0L69.7775 9.56103H72.9318V15.1383H72.9357V30.9107C72.9694 33.5427 73.8293 35.6115 75.5153 37.1171C77.2013 38.6227 79.4773 39.3754 82.3435 39.3754C85.2547 39.3754 87.5476 38.6003 89.2223 37.0502C90.9083 35.5 91.7513 33.3921 91.7513 30.7267V14.6839H86.6765V30.894C86.6315 33.8605 85.1872 35.3438 82.3435 35.3438C80.9835 35.3438 79.9157 34.9814 79.1402 34.2565C78.3758 33.5204 77.9937 32.355 77.9937 30.7602V14.6839H77.9907V9.56103H80.9041Z" fill="#02C39A"/>
<path d="M10.8072 34.039C10.8072 33.4479 10.5093 32.9851 9.91359 32.6505C9.32912 32.3048 8.38497 31.9981 7.08114 31.7304C2.74254 30.8271 0.573235 28.9981 0.573235 26.2434C0.573235 24.6375 1.24201 23.2992 2.57956 22.2285C3.92835 21.1467 5.68739 20.6059 7.85669 20.6059C10.1721 20.6059 12.0211 21.1467 13.4036 22.2285C14.7973 23.3103 15.4942 24.7155 15.4942 26.4442H10.6217C10.6217 25.7527 10.3969 25.1839 9.94731 24.7378C9.49772 24.2806 8.79522 24.052 7.83983 24.052C7.01932 24.052 6.38426 24.236 5.93467 24.604C5.48507 24.972 5.26027 25.4404 5.26027 26.0092C5.26027 26.5445 5.51317 26.9795 6.01897 27.3141C6.536 27.6375 7.40148 27.9219 8.61539 28.1672C9.82929 28.4014 10.8521 28.6691 11.6839 28.9702C14.2578 29.907 15.5448 31.5297 15.5448 33.8382C15.5448 35.4888 14.8311 36.8271 13.4036 37.8531C11.9761 38.868 10.1328 39.3754 7.87355 39.3754C6.34492 39.3754 4.9849 39.1078 3.79347 38.5725C2.61328 38.026 1.68599 37.2844 1.01159 36.3475C0.337197 35.3996 0 34.3791 0 33.2862H4.6196C4.66456 34.1449 4.9849 34.8029 5.58061 35.2602C6.17633 35.7174 6.97436 35.9461 7.97471 35.9461C8.90762 35.9461 9.61012 35.7732 10.0822 35.4275C10.5655 35.0706 10.8072 34.6078 10.8072 34.039Z" fill="#02C39A"/>
<path fill-rule="evenodd" clip-rule="evenodd" d="M29.2687 39.0409C29.0439 38.6059 28.8809 38.065 28.7798 37.4182C27.5996 38.723 26.0653 39.3754 24.177 39.3754C22.3899 39.3754 20.9062 38.8624 19.726 37.8364C18.5571 36.8104 17.9726 35.5167 17.9726 33.9553C17.9726 32.0371 18.6863 30.565 20.1138 29.539C21.5525 28.5129 23.6263 27.9944 26.3351 27.9832H28.5774V26.946C28.5774 26.1096 28.3583 25.4404 27.9199 24.9386C27.4928 24.4367 26.8128 24.1858 25.8799 24.1858C25.0594 24.1858 24.4131 24.381 23.941 24.7713C23.4802 25.1616 23.2497 25.697 23.2497 26.3773H18.3772C18.3772 25.3289 18.7032 24.3587 19.3551 23.4665C20.007 22.5743 20.9287 21.8772 22.1201 21.3754C23.3116 20.8624 24.6491 20.6059 26.1328 20.6059C28.3808 20.6059 30.1623 21.1691 31.4773 22.2955C32.8037 23.4107 33.4668 24.9832 33.4668 27.0129V34.8587C33.478 36.5762 33.7197 37.8754 34.1918 38.7565V39.0409H29.2687ZM25.2392 35.6784C25.9586 35.6784 26.6217 35.5223 27.2287 35.21C27.8356 34.8866 28.2852 34.4572 28.5774 33.9219V30.8104H26.7566C24.3175 30.8104 23.0193 31.6468 22.862 33.3197L22.8451 33.604C22.8451 34.2063 23.0587 34.7026 23.4858 35.0929C23.9129 35.4832 24.4974 35.6784 25.2392 35.6784Z" fill="#02C39A"/>
<path d="M43.7682 33.1356L47.157 20.9404H52.2487L46.0948 39.0409H41.4415L35.2877 20.9404H40.3793L43.7682 33.1356Z" fill="#02C39A"/>
<path fill-rule="evenodd" clip-rule="evenodd" d="M62.5669 39.3754C59.8918 39.3754 57.7113 38.5613 56.0253 36.9331C54.3505 35.3048 53.5132 33.1356 53.5132 30.4256V29.9572C53.5132 28.1393 53.8672 26.5167 54.5753 25.0891C55.2835 23.6505 56.2838 22.5464 57.5764 21.7769C58.8802 20.9962 60.3639 20.6059 62.0274 20.6059C64.5227 20.6059 66.484 21.3865 67.9115 22.9479C69.3502 24.5092 70.0695 26.723 70.0695 29.5892V31.5631H58.4531C58.6105 32.7453 59.0825 33.6933 59.8693 34.407C60.6674 35.1208 61.6733 35.4777 62.8872 35.4777C64.7643 35.4777 66.2311 34.8029 67.2877 33.4535L69.6818 36.1133C68.9512 37.1394 67.9621 37.9424 66.7144 38.5223C65.4668 39.0911 64.0843 39.3754 62.5669 39.3754ZM62.0105 24.5204C61.0439 24.5204 60.2571 24.8438 59.6502 25.4906C59.0544 26.1375 58.6723 27.0631 58.5037 28.2676H65.2813V27.8828C65.2589 26.8122 64.9666 25.9869 64.4046 25.407C63.8426 24.8159 63.0446 24.5204 62.0105 24.5204Z" fill="#02C39A"/>
<path fill-rule="evenodd" clip-rule="evenodd" d="M112 30.1579C112 32.946 111.359 35.1821 110.078 36.8661C108.808 38.539 107.088 39.3754 104.919 39.3754C103.076 39.3754 101.586 38.7397 100.451 37.4684V46H95.5785V20.9404H100.097L100.266 22.7137C101.446 21.3085 102.986 20.6059 104.885 20.6059C107.133 20.6059 108.881 21.4311 110.129 23.0817C111.376 24.7323 112 27.0074 112 29.907V30.1579ZM107.128 29.8066C107.128 28.1226 106.824 26.8233 106.217 25.9088C105.621 24.9943 104.75 24.5371 103.604 24.5371C102.075 24.5371 101.024 25.117 100.451 26.2769V33.6877C101.047 34.881 102.109 35.4777 103.638 35.4777C105.964 35.4777 107.128 33.5873 107.128 29.8066Z" fill="#02C39A"/>
</svg>
