<svg width="541" height="352" viewBox="0 0 541 352" fill="none" xmlns="http://www.w3.org/2000/svg">
<g clip-path="url(#clip0)">
<path d="M106.224 224.296L103.234 222.439C102.948 222.263 102.668 222.073 102.383 221.893C108.749 220.801 114.555 217.578 118.845 212.754C123.135 207.929 125.654 201.79 125.989 195.346C126.324 188.901 124.454 182.535 120.686 177.293C116.919 172.051 111.478 168.245 105.259 166.501L105.406 178.218L98.9644 165.476H98.8741C95.1411 165.301 91.4103 165.863 87.8947 167.129C84.3792 168.395 81.1477 170.341 78.3849 172.855C75.6221 175.369 73.3821 178.402 71.7927 181.78C70.2034 185.159 69.2959 188.817 69.122 192.547C69.0935 193.088 69.122 193.625 69.122 194.161C66.8827 191.606 64.8432 188.866 63.4977 185.864C60.7735 179.79 60.7212 172.903 60.9352 164.54C61.363 147.96 62.0809 131.257 63.0128 114.606C69.7398 113.857 75.9796 110.738 80.6117 105.808C85.2438 100.878 87.9649 94.4595 88.2863 87.7055C88.3244 86.8364 88.3101 85.9768 88.2863 85.1267C88.2863 84.9129 88.2863 84.6992 88.2531 84.4903C88.196 83.6639 88.1199 82.847 87.9916 82.0396C87.9916 81.9066 87.944 81.7784 87.9203 81.6502C87.8062 80.9663 87.6635 80.2919 87.5019 79.6222C87.4401 79.3752 87.3783 79.1473 87.3117 78.8766C87.112 78.1547 86.8933 77.4518 86.6366 76.7346C86.551 76.5019 86.4512 76.2597 86.3609 76.0412C86.1612 75.5235 85.9425 75.0106 85.7095 74.5072C85.5859 74.2412 85.4671 73.9753 85.3387 73.7141C85.3007 73.6476 85.2769 73.5763 85.2389 73.5098C82.2346 67.5799 77.2437 62.8903 71.135 60.2574C65.0263 57.6245 58.1867 57.2151 51.807 59.1004L51.9972 74.3457L45.6265 61.7505C40.3879 64.7487 36.2455 69.3407 33.8037 74.8566C31.3619 80.3724 30.7486 86.5234 32.0531 92.4121H32.0246C32.0674 92.6163 32.1292 92.8063 32.1767 93.0105C32.2671 93.3857 32.3621 93.7561 32.4667 94.1266C32.5999 94.6015 32.752 95.0765 32.9089 95.5514C33.0277 95.8981 33.1418 96.2495 33.275 96.5962C33.4699 97.0997 33.6886 97.5888 33.9073 98.078C34.0356 98.363 34.1497 98.6574 34.2876 98.9376C34.6489 99.6754 35.042 100.393 35.4667 101.089C35.614 101.336 35.7804 101.564 35.9421 101.806C36.2464 102.281 36.5506 102.756 36.8929 103.198C37.0974 103.478 37.3161 103.744 37.53 104.019C37.8438 104.414 38.1623 104.803 38.4809 105.178C38.7138 105.449 38.9563 105.705 39.1987 105.967C39.5506 106.332 39.9071 106.689 40.278 107.04C40.5204 107.273 40.7534 107.515 41.0244 107.733C41.4428 108.104 41.8801 108.46 42.3223 108.807C42.5457 108.978 42.7644 109.163 42.9926 109.334C43.6677 109.809 44.3619 110.284 45.0798 110.759C45.2129 110.844 45.3603 110.911 45.4934 110.991C46.0972 111.343 46.7057 111.675 47.3333 111.984C47.6043 112.117 47.88 112.231 48.1558 112.354C48.6692 112.587 49.1874 112.829 49.7199 113.01C50.0289 113.129 50.3427 113.238 50.6707 113.347C51.1937 113.523 51.7262 113.684 52.2634 113.822C52.5772 113.907 52.8957 113.998 53.2143 114.074C53.7943 114.211 54.3886 114.325 54.9876 114.43L55.1017 114.454C54.7119 121.476 54.3632 128.504 54.0558 135.536C52.3612 132.054 49.972 128.955 47.035 126.429C44.098 123.903 40.6751 122.004 36.9766 120.848C33.2781 119.691 29.3819 119.302 25.5275 119.705C21.673 120.107 17.9415 121.292 14.5622 123.188L19.5922 136.961L9.23273 126.987C3.68515 132.054 0.378065 139.114 0.0380203 146.616C-0.094514 149.248 0.148811 151.885 0.760666 154.448C2.06146 159.993 5.00011 165.02 9.19551 168.876C13.3909 172.733 18.6495 175.241 24.2893 176.076C29.9291 176.911 35.6899 176.034 40.8247 173.559C45.9594 171.083 50.2311 167.124 53.0859 162.194C53.0859 162.906 53.0384 163.619 53.0193 164.336C52.8292 171.716 52.5915 180.901 56.276 189.103C58.772 194.66 62.7846 199.172 66.7353 203.218C69.3169 205.854 71.9935 208.4 74.7367 210.865C77.4349 214.489 80.9583 217.42 85.0154 219.413C89.5225 222.885 94.1911 226.148 99.0167 229.159L102.031 231.03C104.741 232.707 107.517 234.431 110.237 236.221C109.761 236.174 109.286 236.121 108.81 236.098C102.777 235.817 96.8103 237.46 91.7731 240.79C86.7359 244.119 82.8892 248.963 80.7889 254.62L98.5698 269.072L79.0108 264.541C79.0169 269.349 80.2425 274.076 82.5731 278.281C84.9037 282.487 88.2634 286.034 92.3382 288.591C96.413 291.148 101.07 292.632 105.875 292.904C110.679 293.175 115.474 292.226 119.812 290.145C119.374 290.696 118.934 291.244 118.49 291.788C117.615 292.874 116.752 293.954 115.899 295.027C104.327 309.665 101.109 323.566 106.837 334.162L113.807 330.4C108.23 320.089 116.617 306.886 122.113 299.933C122.95 298.873 123.799 297.812 124.661 296.751C132.063 287.552 140.44 277.16 140.236 264.394C139.927 245.164 121.219 233.595 106.224 224.296Z" fill="#F2F2F2"/>
<path d="M381.5 166.354L384.49 164.497C384.775 164.321 385.056 164.131 385.341 163.951C378.976 162.856 373.172 159.63 368.885 154.804C364.597 149.978 362.081 143.839 361.749 137.395C361.417 130.95 363.29 124.585 367.059 119.345C370.828 114.105 376.269 110.301 382.489 108.56L382.341 120.276L388.783 107.534H388.864C392.597 107.36 396.328 107.922 399.843 109.188C403.359 110.454 406.59 112.399 409.353 114.913C412.116 117.427 414.356 120.46 415.945 123.839C417.535 127.217 418.442 130.876 418.616 134.605C418.645 135.146 418.616 135.683 418.616 136.22C420.855 133.665 422.895 130.924 424.24 127.923C426.965 121.848 427.017 114.962 426.803 106.598C426.375 90.0184 425.657 73.3151 424.725 56.664C417.998 55.9158 411.759 52.7966 407.126 47.8664C402.494 42.9362 399.773 36.5179 399.452 29.7639C399.414 28.8948 399.428 28.0352 399.452 27.185C399.452 26.9713 399.452 26.7576 399.485 26.5486C399.542 25.7223 399.618 24.9054 399.747 24.098C399.747 23.965 399.794 23.8368 399.818 23.7085C399.932 23.0246 400.075 22.3502 400.236 21.6806C400.298 21.4336 400.36 21.2057 400.426 20.935C400.626 20.2131 400.845 19.5102 401.102 18.793C401.187 18.5603 401.287 18.3181 401.377 18.0996C401.577 17.5819 401.796 17.069 402.029 16.5656C402.152 16.2996 402.271 16.0337 402.404 15.7725C402.437 15.706 402.461 15.6347 402.499 15.5682C405.502 9.64149 410.49 4.9537 416.594 2.32019C422.699 -0.313329 429.534 -0.725957 435.912 1.15407L435.722 16.3994L442.093 3.80419C447.333 6.80188 451.477 11.3944 453.92 16.9113C456.362 22.4282 456.976 28.5806 455.671 34.4705H455.699C455.657 34.6747 455.595 34.8647 455.547 35.0689C455.457 35.4441 455.362 35.8145 455.257 36.185C455.124 36.6599 454.972 37.1349 454.815 37.6098C454.696 37.9565 454.582 38.3079 454.449 38.6546C454.254 39.1581 454.035 39.6472 453.817 40.1364C453.688 40.4214 453.574 40.7158 453.436 40.996C453.075 41.7338 452.682 42.4509 452.257 43.1475C452.11 43.3945 451.943 43.6224 451.782 43.8646C451.478 44.3396 451.173 44.8145 450.831 45.2562C450.627 45.5364 450.408 45.8023 450.194 46.0778C449.88 46.472 449.562 46.8614 449.243 47.2366C449.01 47.5074 448.768 47.7638 448.525 48.025C448.178 48.3907 447.817 48.7469 447.446 49.0984C447.203 49.3311 446.97 49.5733 446.7 49.7918C446.281 50.1622 445.844 50.5184 445.402 50.8651C445.178 51.0361 444.959 51.2213 444.731 51.3923C444.056 51.8672 443.362 52.3422 442.644 52.7933C442.511 52.8788 442.364 52.9453 442.231 53.0261C441.627 53.3775 441.018 53.71 440.391 54.0187C440.12 54.1516 439.844 54.2656 439.568 54.3891C439.055 54.6218 438.536 54.864 438.004 55.0445C437.695 55.1632 437.381 55.2725 437.053 55.3817C436.53 55.5574 435.998 55.7189 435.46 55.8566C435.147 55.9421 434.828 56.0324 434.51 56.1084C433.93 56.2461 433.335 56.3601 432.736 56.4646H432.622C433.012 63.4904 433.361 70.5178 433.668 77.5467C435.363 74.065 437.752 70.9661 440.689 68.4402C443.626 65.9144 447.049 64.0149 450.747 62.8585C454.446 61.7021 458.342 61.3132 462.196 61.7156C466.051 62.118 469.782 63.3032 473.162 65.1985L468.132 78.9715L478.482 69.0455C484.029 74.1128 487.336 81.1728 487.676 88.6744C487.809 91.306 487.566 93.943 486.954 96.506C485.653 102.051 482.714 107.078 478.519 110.935C474.323 114.791 469.065 117.3 463.425 118.135C457.785 118.97 452.024 118.093 446.89 115.617C441.755 113.142 437.483 109.182 434.628 104.252C434.628 104.965 434.681 105.677 434.695 106.394C434.885 113.774 435.123 122.96 431.438 131.162C428.942 136.718 424.93 141.23 420.979 145.277C418.397 147.913 415.721 150.458 412.978 152.923C410.279 156.548 406.756 159.478 402.699 161.472C398.192 164.944 393.523 168.206 388.698 171.217L385.684 173.089C382.974 174.765 380.197 176.489 377.478 178.28C377.953 178.232 378.429 178.18 378.904 178.156C384.938 177.875 390.904 179.519 395.941 182.848C400.978 186.178 404.825 191.021 406.926 196.678L389.145 211.131L408.704 206.6C408.698 211.407 407.472 216.134 405.141 220.34C402.811 224.546 399.451 228.093 395.376 230.65C391.301 233.207 386.644 234.69 381.84 234.962C377.035 235.234 372.24 234.285 367.903 232.203C368.34 232.754 368.781 233.302 369.224 233.847C370.099 234.933 370.963 236.012 371.815 237.086C383.387 251.723 386.606 265.624 380.877 276.22L373.907 272.458C379.484 262.148 371.098 248.945 365.602 241.992C364.765 240.931 363.915 239.87 363.053 238.81C355.66 229.634 347.283 219.233 347.488 206.476C347.797 187.223 366.486 175.653 381.5 166.354Z" fill="#F2F2F2"/>
<path d="M305.579 352C435.599 352 541 344.983 541 336.327C541 327.671 435.599 320.655 305.579 320.655C175.56 320.655 70.1584 327.671 70.1584 336.327C70.1584 344.983 175.56 352 305.579 352Z" fill="#F2F2F2"/>
<path d="M313.486 336.802L228.77 335.719L229.017 333.549L233.115 297.744H307.514L312.986 333.549L313.405 336.261L313.486 336.802Z" fill="#79797E"/>
<path opacity="0.1" d="M313.405 336.261H271.125L228.77 335.719L229.017 333.549H312.986L313.405 336.261Z" fill="black"/>
<path d="M327.064 334.09H214.649V336.802H327.064V334.09Z" fill="#3F3D56"/>
<path d="M434.319 82.6903C434.324 81.7628 434.145 80.8436 433.794 79.9851C433.443 79.1266 432.926 78.3456 432.272 77.6867C431.619 77.0279 430.842 76.504 429.986 76.1451C429.13 75.7861 428.212 75.5991 427.283 75.5948H113.351C112.422 75.5991 111.504 75.7861 110.648 76.1451C109.792 76.504 109.015 77.0279 108.362 77.6867C107.708 78.3456 107.191 79.1266 106.84 79.9851C106.489 80.8436 106.31 81.7628 106.314 82.6903V272.786H434.319V82.6903Z" fill="#515151"/>
<path d="M106.314 270.891V293.156C106.314 295.02 107.056 296.808 108.375 298.126C109.695 299.444 111.485 300.185 113.351 300.185H427.283C429.149 300.185 430.939 299.444 432.259 298.126C433.578 296.808 434.319 295.02 434.319 293.156V270.891H106.314Z" fill="#88888D"/>
<path d="M422.367 87.5298H119.888V258.415H422.367V87.5298Z" fill="#2F2E41"/>
<path d="M271.929 291.736C273.039 291.737 274.136 291.486 275.135 291.001C276.134 290.517 277.01 289.811 277.696 288.939C277.905 288.672 278.096 288.391 278.266 288.098L274.244 287.438L278.594 287.471C279.01 286.564 279.238 285.582 279.262 284.584C279.287 283.586 279.108 282.594 278.737 281.667L272.898 284.693L278.28 280.741C277.775 279.873 277.096 279.119 276.286 278.524C275.477 277.929 274.553 277.507 273.573 277.284C272.593 277.061 271.578 277.041 270.59 277.227C269.602 277.412 268.663 277.798 267.831 278.362C266.999 278.925 266.292 279.653 265.753 280.501C265.215 281.349 264.857 282.298 264.701 283.29C264.545 284.282 264.596 285.295 264.848 286.267C265.101 287.239 265.552 288.148 266.171 288.939C266.856 289.81 267.73 290.515 268.728 290.999C269.725 291.484 270.82 291.736 271.929 291.736Z" fill="#02C39A"/>
<path opacity="0.1" d="M279.274 300.185L313.072 334.09L307.885 300.185H279.274Z" fill="black"/>
<path d="M370.047 323.324L379.151 318.004C377.918 315.907 376.345 314.027 374.497 312.443L357.329 317.777L370.779 309.874C367.448 308.051 363.7 307.126 359.903 307.19C356.106 307.254 352.391 308.305 349.124 310.239C345.857 312.172 343.15 314.923 341.27 318.219C339.39 321.515 338.402 325.244 338.403 329.037C338.403 341.105 348.196 341.523 360.272 341.523C372.348 341.523 382.142 341.105 382.142 329.037C382.145 325.985 381.507 322.965 380.268 320.175L370.047 323.324Z" fill="#57B894"/>
<path opacity="0.1" d="M372.367 335.054C371.396 334.085 370.312 333.235 369.139 332.523C367.489 331.426 365.777 330.31 363.828 329.935C362.121 329.607 360.353 329.882 358.599 329.787C355.571 329.602 352.722 328.297 350.607 326.126C349.361 324.843 348.386 323.276 346.889 322.284C345.277 321.229 343.233 321.001 341.326 321.262C340.77 321.345 340.22 321.459 339.677 321.604C338.818 323.98 338.381 326.487 338.383 329.013C338.383 341.081 348.177 341.499 360.253 341.499C366.115 341.499 371.44 341.4 375.367 339.918L374.711 338.692C374.086 337.386 373.299 336.163 372.367 335.054Z" fill="black"/>
<path opacity="0.3" d="M143.379 153.455H133.323V156.504H143.379V153.455Z" fill="#02C39A"/>
<path opacity="0.3" d="M411.685 153.545H401.629V156.594H411.685V153.545Z" fill="#02C39A"/>
<path opacity="0.3" d="M143.469 174.889H133.414V177.938H143.469V174.889Z" fill="#02C39A"/>
<path opacity="0.3" d="M143.559 196.322H133.504V199.371H143.559V196.322Z" fill="#02C39A"/>
<path opacity="0.3" d="M143.65 217.751H133.594V220.8H143.65V217.751Z" fill="#02C39A"/>
<g opacity="0.2">
<path opacity="0.2" d="M146.231 154.923H143.379V155.041H146.231V154.923Z" fill="#F2F2F2"/>
<path opacity="0.2" d="M392.991 155.041H387.385V154.923H392.991V155.041ZM381.775 155.041H376.17V154.923H381.775V155.041ZM370.56 155.041H364.95V154.923H370.56V155.041ZM359.345 155.041H353.735V154.923H359.345V155.041ZM348.13 155.041H342.52V154.923H348.13V155.041ZM336.91 155.041H331.304V154.923H336.91V155.041ZM325.694 155.041H320.084V154.923H325.694V155.041ZM314.479 155.041H308.869V154.923H314.479V155.041ZM303.264 155.041H297.654V154.923H303.264V155.041ZM292.044 155.041H286.439V154.923H292.044V155.041ZM280.829 155.041H275.219V154.923H280.829V155.041ZM269.613 155.041H264.003V154.923H269.613V155.041ZM258.398 155.041H252.788V154.923H258.398V155.041ZM247.178 155.041H241.573V154.923H247.178V155.041ZM235.963 155.041H230.357V154.923H235.963V155.041ZM224.747 155.041H219.156V154.923H224.766L224.747 155.041ZM213.532 155.041H207.922V154.923H213.532V155.041ZM202.312 155.041H196.707V154.923H202.312V155.041ZM191.097 155.041H185.492V154.923H191.106L191.097 155.041ZM179.882 155.041H174.272V154.923H179.882V155.041ZM168.666 155.041H163.056V154.923H168.666V155.041ZM157.446 155.041H151.841V154.923H157.446V155.041Z" fill="#F2F2F2"/>
<path opacity="0.2" d="M401.453 154.923H398.601V155.041H401.453V154.923Z" fill="#F2F2F2"/>
<path opacity="0.2" d="M146.231 154.923H143.379V155.041H146.231V154.923Z" fill="#F2F2F2"/>
<path opacity="0.2" d="M392.991 155.041H387.385V154.923H392.991V155.041ZM381.775 155.041H376.17V154.923H381.775V155.041ZM370.56 155.041H364.95V154.923H370.56V155.041ZM359.345 155.041H353.735V154.923H359.345V155.041ZM348.13 155.041H342.52V154.923H348.13V155.041ZM336.91 155.041H331.304V154.923H336.91V155.041ZM325.694 155.041H320.084V154.923H325.694V155.041ZM314.479 155.041H308.869V154.923H314.479V155.041ZM303.264 155.041H297.654V154.923H303.264V155.041ZM292.044 155.041H286.439V154.923H292.044V155.041ZM280.829 155.041H275.219V154.923H280.829V155.041ZM269.613 155.041H264.003V154.923H269.613V155.041ZM258.398 155.041H252.788V154.923H258.398V155.041ZM247.178 155.041H241.573V154.923H247.178V155.041ZM235.963 155.041H230.357V154.923H235.963V155.041ZM224.747 155.041H219.156V154.923H224.766L224.747 155.041ZM213.532 155.041H207.922V154.923H213.532V155.041ZM202.312 155.041H196.707V154.923H202.312V155.041ZM191.097 155.041H185.492V154.923H191.106L191.097 155.041ZM179.882 155.041H174.272V154.923H179.882V155.041ZM168.666 155.041H163.056V154.923H168.666V155.041ZM157.446 155.041H151.841V154.923H157.446V155.041Z" fill="#F2F2F2"/>
<path opacity="0.2" d="M401.453 154.923H398.601V155.041H401.453V154.923Z" fill="#F2F2F2"/>
</g>
<path opacity="0.3" d="M143.379 132.083H133.323V135.132H143.379V132.083Z" fill="#02C39A"/>
<path opacity="0.3" d="M411.685 132.173H401.629V135.222H411.685V132.173Z" fill="#02C39A"/>
<g opacity="0.2">
<path opacity="0.2" d="M146.231 133.551H143.379V133.669H146.231V133.551Z" fill="#F2F2F2"/>
<path opacity="0.2" d="M392.991 133.669H387.385V133.551H392.991V133.669ZM381.775 133.669H376.17V133.551H381.775V133.669ZM370.56 133.669H364.95V133.551H370.56V133.669ZM359.345 133.669H353.735V133.551H359.345V133.669ZM348.13 133.669H342.52V133.551H348.13V133.669ZM336.91 133.669H331.304V133.551H336.91V133.669ZM325.694 133.669H320.084V133.551H325.694V133.669ZM314.479 133.669H308.869V133.551H314.479V133.669ZM303.264 133.669H297.654V133.551H303.264V133.669ZM292.044 133.669H286.439V133.551H292.044V133.669ZM280.829 133.669H275.219V133.551H280.829V133.669ZM269.613 133.669H264.003V133.551H269.613V133.669ZM258.398 133.669H252.788V133.551H258.398V133.669ZM247.178 133.669H241.573V133.551H247.178V133.669ZM235.963 133.669H230.357V133.551H235.963V133.669ZM224.747 133.669H219.156V133.551H224.766L224.747 133.669ZM213.532 133.669H207.922V133.551H213.532V133.669ZM202.312 133.669H196.707V133.551H202.312V133.669ZM191.097 133.669H185.492V133.551H191.106L191.097 133.669ZM179.882 133.669H174.272V133.551H179.882V133.669ZM168.666 133.669H163.056V133.551H168.666V133.669ZM157.446 133.669H151.841V133.551H157.446V133.669Z" fill="#F2F2F2"/>
<path opacity="0.2" d="M401.453 133.551H398.601V133.669H401.453V133.551Z" fill="#F2F2F2"/>
</g>
<path opacity="0.3" d="M411.685 174.889H401.629V177.938H411.685V174.889Z" fill="#02C39A"/>
<g opacity="0.2">
<path opacity="0.2" d="M146.231 176.265H143.379V176.384H146.231V176.265Z" fill="#F2F2F2"/>
<path opacity="0.2" d="M392.991 176.38H387.385V176.261H392.991V176.38ZM381.775 176.38H376.17V176.261H381.775V176.38ZM370.56 176.38H364.95V176.261H370.56V176.38ZM359.345 176.38H353.735V176.261H359.345V176.38ZM348.13 176.38H342.52V176.261H348.13V176.38ZM336.91 176.38H331.304V176.261H336.91V176.38ZM325.694 176.38H320.084V176.261H325.694V176.38ZM314.479 176.38H308.869V176.261H314.479V176.38ZM303.264 176.38H297.654V176.261H303.264V176.38ZM292.044 176.38H286.439V176.261H292.044V176.38ZM280.829 176.38H275.219V176.261H280.829V176.38ZM269.613 176.38H264.003V176.261H269.613V176.38ZM258.398 176.38H252.788V176.261H258.398V176.38ZM247.178 176.38H241.573V176.261H247.178V176.38ZM235.963 176.38H230.357V176.261H235.963V176.38ZM224.747 176.38H219.156V176.261H224.766L224.747 176.38ZM213.532 176.38H207.922V176.261H213.532V176.38ZM202.312 176.38H196.707V176.261H202.312V176.38ZM191.097 176.38H185.492V176.261H191.106L191.097 176.38ZM179.882 176.38H174.272V176.261H179.882V176.38ZM168.666 176.38H163.056V176.261H168.666V176.38ZM157.446 176.38H151.841V176.261H157.446V176.38Z" fill="#F2F2F2"/>
<path opacity="0.2" d="M401.453 176.266H398.601V176.385H401.453V176.266Z" fill="#F2F2F2"/>
<path opacity="0.2" d="M146.231 176.265H143.379V176.384H146.231V176.265Z" fill="#F2F2F2"/>
<path opacity="0.2" d="M392.991 176.38H387.385V176.261H392.991V176.38ZM381.775 176.38H376.17V176.261H381.775V176.38ZM370.56 176.38H364.95V176.261H370.56V176.38ZM359.345 176.38H353.735V176.261H359.345V176.38ZM348.13 176.38H342.52V176.261H348.13V176.38ZM336.91 176.38H331.304V176.261H336.91V176.38ZM325.694 176.38H320.084V176.261H325.694V176.38ZM314.479 176.38H308.869V176.261H314.479V176.38ZM303.264 176.38H297.654V176.261H303.264V176.38ZM292.044 176.38H286.439V176.261H292.044V176.38ZM280.829 176.38H275.219V176.261H280.829V176.38ZM269.613 176.38H264.003V176.261H269.613V176.38ZM258.398 176.38H252.788V176.261H258.398V176.38ZM247.178 176.38H241.573V176.261H247.178V176.38ZM235.963 176.38H230.357V176.261H235.963V176.38ZM224.747 176.38H219.156V176.261H224.766L224.747 176.38ZM213.532 176.38H207.922V176.261H213.532V176.38ZM202.312 176.38H196.707V176.261H202.312V176.38ZM191.097 176.38H185.492V176.261H191.106L191.097 176.38ZM179.882 176.38H174.272V176.261H179.882V176.38ZM168.666 176.38H163.056V176.261H168.666V176.38ZM157.446 176.38H151.841V176.261H157.446V176.38Z" fill="#F2F2F2"/>
<path opacity="0.2" d="M401.453 176.266H398.601V176.385H401.453V176.266Z" fill="#F2F2F2"/>
</g>
<path opacity="0.3" d="M411.685 196.232H401.629V199.281H411.685V196.232Z" fill="#02C39A"/>
<g opacity="0.2">
<path opacity="0.2" d="M146.231 197.605H143.379V197.723H146.231V197.605Z" fill="#F2F2F2"/>
<path opacity="0.2" d="M392.991 197.723H387.385V197.605H392.991V197.723ZM381.775 197.723H376.17V197.605H381.775V197.723ZM370.56 197.723H364.95V197.605H370.56V197.723ZM359.345 197.723H353.735V197.605H359.345V197.723ZM348.13 197.723H342.52V197.605H348.13V197.723ZM336.91 197.723H331.304V197.605H336.91V197.723ZM325.694 197.723H320.084V197.605H325.694V197.723ZM314.479 197.723H308.869V197.605H314.479V197.723ZM303.264 197.723H297.654V197.605H303.264V197.723ZM292.044 197.723H286.439V197.605H292.044V197.723ZM280.829 197.723H275.219V197.605H280.829V197.723ZM269.613 197.723H264.003V197.605H269.613V197.723ZM258.398 197.723H252.788V197.605H258.398V197.723ZM247.178 197.723H241.573V197.605H247.178V197.723ZM235.963 197.723H230.357V197.605H235.963V197.723ZM224.747 197.723H219.156V197.605H224.766L224.747 197.723ZM213.532 197.723H207.922V197.605H213.532V197.723ZM202.312 197.723H196.707V197.605H202.312V197.723ZM191.097 197.723H185.492V197.605H191.106L191.097 197.723ZM179.882 197.723H174.272V197.605H179.882V197.723ZM168.666 197.723H163.056V197.605H168.666V197.723ZM157.446 197.723H151.841V197.605H157.446V197.723Z" fill="#F2F2F2"/>
<path opacity="0.2" d="M401.453 197.605H398.601V197.723H401.453V197.605Z" fill="#F2F2F2"/>
<path opacity="0.2" d="M146.231 197.605H143.379V197.723H146.231V197.605Z" fill="#F2F2F2"/>
<path opacity="0.2" d="M392.991 197.723H387.385V197.605H392.991V197.723ZM381.775 197.723H376.17V197.605H381.775V197.723ZM370.56 197.723H364.95V197.605H370.56V197.723ZM359.345 197.723H353.735V197.605H359.345V197.723ZM348.13 197.723H342.52V197.605H348.13V197.723ZM336.91 197.723H331.304V197.605H336.91V197.723ZM325.694 197.723H320.084V197.605H325.694V197.723ZM314.479 197.723H308.869V197.605H314.479V197.723ZM303.264 197.723H297.654V197.605H303.264V197.723ZM292.044 197.723H286.439V197.605H292.044V197.723ZM280.829 197.723H275.219V197.605H280.829V197.723ZM269.613 197.723H264.003V197.605H269.613V197.723ZM258.398 197.723H252.788V197.605H258.398V197.723ZM247.178 197.723H241.573V197.605H247.178V197.723ZM235.963 197.723H230.357V197.605H235.963V197.723ZM224.747 197.723H219.156V197.605H224.766L224.747 197.723ZM213.532 197.723H207.922V197.605H213.532V197.723ZM202.312 197.723H196.707V197.605H202.312V197.723ZM191.097 197.723H185.492V197.605H191.106L191.097 197.723ZM179.882 197.723H174.272V197.605H179.882V197.723ZM168.666 197.723H163.056V197.605H168.666V197.723ZM157.446 197.723H151.841V197.605H157.446V197.723Z" fill="#F2F2F2"/>
<path opacity="0.2" d="M401.453 197.605H398.601V197.723H401.453V197.605Z" fill="#F2F2F2"/>
</g>
<path opacity="0.3" d="M411.685 217.571H401.629V220.62H411.685V217.571Z" fill="#02C39A"/>
<g opacity="0.2">
<path opacity="0.2" d="M146.231 218.948H143.379V219.067H146.231V218.948Z" fill="#F2F2F2"/>
<path opacity="0.2" d="M392.991 219.067H387.385V218.948H392.991V219.067ZM381.775 219.067H376.17V218.948H381.775V219.067ZM370.56 219.067H364.95V218.948H370.56V219.067ZM359.345 219.067H353.735V218.948H359.345V219.067ZM348.13 219.067H342.52V218.948H348.13V219.067ZM336.91 219.067H331.304V218.948H336.91V219.067ZM325.694 219.067H320.084V218.948H325.694V219.067ZM314.479 219.067H308.869V218.948H314.479V219.067ZM303.264 219.067H297.654V218.948H303.264V219.067ZM292.044 219.067H286.439V218.948H292.044V219.067ZM280.829 219.067H275.219V218.948H280.829V219.067ZM269.613 219.067H264.003V218.948H269.613V219.067ZM258.398 219.067H252.788V218.948H258.398V219.067ZM247.178 219.067H241.573V218.948H247.178V219.067ZM235.963 219.067H230.357V218.948H235.963V219.067ZM224.747 219.067H219.156V218.948H224.766L224.747 219.067ZM213.532 219.067H207.922V218.948H213.532V219.067ZM202.312 219.067H196.707V218.948H202.312V219.067ZM191.097 219.067H185.492V218.948H191.106L191.097 219.067ZM179.882 219.067H174.272V218.948H179.882V219.067ZM168.666 219.067H163.056V218.948H168.666V219.067ZM157.446 219.067H151.841V218.948H157.446V219.067Z" fill="#F2F2F2"/>
<path opacity="0.2" d="M401.453 218.948H398.601V219.067H401.453V218.948Z" fill="#F2F2F2"/>
<path opacity="0.2" d="M146.231 218.948H143.379V219.067H146.231V218.948Z" fill="#F2F2F2"/>
<path opacity="0.2" d="M392.991 219.067H387.385V218.948H392.991V219.067ZM381.775 219.067H376.17V218.948H381.775V219.067ZM370.56 219.067H364.95V218.948H370.56V219.067ZM359.345 219.067H353.735V218.948H359.345V219.067ZM348.13 219.067H342.52V218.948H348.13V219.067ZM336.91 219.067H331.304V218.948H336.91V219.067ZM325.694 219.067H320.084V218.948H325.694V219.067ZM314.479 219.067H308.869V218.948H314.479V219.067ZM303.264 219.067H297.654V218.948H303.264V219.067ZM292.044 219.067H286.439V218.948H292.044V219.067ZM280.829 219.067H275.219V218.948H280.829V219.067ZM269.613 219.067H264.003V218.948H269.613V219.067ZM258.398 219.067H252.788V218.948H258.398V219.067ZM247.178 219.067H241.573V218.948H247.178V219.067ZM235.963 219.067H230.357V218.948H235.963V219.067ZM224.747 219.067H219.156V218.948H224.766L224.747 219.067ZM213.532 219.067H207.922V218.948H213.532V219.067ZM202.312 219.067H196.707V218.948H202.312V219.067ZM191.097 219.067H185.492V218.948H191.106L191.097 219.067ZM179.882 219.067H174.272V218.948H179.882V219.067ZM168.666 219.067H163.056V218.948H168.666V219.067ZM157.446 219.067H151.841V218.948H157.446V219.067Z" fill="#F2F2F2"/>
<path opacity="0.2" d="M401.453 218.948H398.601V219.067H401.453V218.948Z" fill="#F2F2F2"/>
</g>
<path d="M176.159 133.698V219.276" stroke="#F2F2F2" stroke-width="0.1" stroke-miterlimit="10"/>
<path d="M210.865 133.698V219.276" stroke="#F2F2F2" stroke-width="0.1" stroke-miterlimit="10"/>
<path d="M245.571 133.698V219.276" stroke="#F2F2F2" stroke-width="0.1" stroke-miterlimit="10"/>
<path d="M280.277 133.698V219.276" stroke="#F2F2F2" stroke-width="0.1" stroke-miterlimit="10"/>
<path d="M314.983 133.698V219.276" stroke="#F2F2F2" stroke-width="0.1" stroke-miterlimit="10"/>
<path d="M349.689 133.698V219.276" stroke="#F2F2F2" stroke-width="0.1" stroke-miterlimit="10"/>
<path d="M384.395 133.698V219.276" stroke="#F2F2F2" stroke-width="0.1" stroke-miterlimit="10"/>
<path opacity="0.3" d="M391.902 127.923L387.932 132.055C387.852 132.141 387.785 132.239 387.733 132.344L385.27 137.412C385.172 137.615 385.015 137.785 384.819 137.897C384.623 138.01 384.397 138.061 384.172 138.043L383.382 137.982C383.153 137.965 382.935 137.879 382.756 137.735C382.578 137.591 382.448 137.395 382.384 137.174L381.623 134.543C381.557 134.313 381.419 134.11 381.229 133.964C381.039 133.818 380.808 133.736 380.568 133.73C380.328 133.724 380.093 133.795 379.897 133.931C379.7 134.068 379.552 134.264 379.474 134.491L378.196 138.233C378.12 138.457 377.976 138.651 377.784 138.788C377.592 138.925 377.362 138.999 377.126 138.998H372.243C371.975 138.997 371.716 138.901 371.513 138.727C371.309 138.553 371.174 138.313 371.131 138.048L369.752 129.428C369.715 129.192 369.605 128.974 369.436 128.806C369.267 128.637 369.049 128.526 368.813 128.489C368.577 128.452 368.336 128.491 368.123 128.6C367.911 128.709 367.739 128.883 367.632 129.096L360.562 143.035C360.489 143.179 360.386 143.306 360.26 143.407C360.133 143.508 359.986 143.581 359.829 143.62C359.673 143.659 359.509 143.664 359.35 143.634C359.191 143.605 359.04 143.541 358.908 143.448L354.705 140.485C354.476 140.324 354.195 140.253 353.917 140.287C353.639 140.32 353.382 140.455 353.198 140.665L351.605 142.503C351.558 142.557 351.517 142.616 351.481 142.679L347.231 150.026C347.123 150.214 346.963 150.367 346.77 150.466C346.576 150.564 346.358 150.605 346.142 150.582L343.551 150.325C343.37 150.308 343.188 150.334 343.019 150.401L340.699 151.327C340.43 151.429 340.133 151.423 339.868 151.313C339.603 151.203 339.39 150.996 339.273 150.734L338.764 149.57C338.672 149.362 338.52 149.186 338.326 149.066C338.133 148.945 337.908 148.886 337.68 148.896L335.027 149.019C334.863 149.026 334.702 149.069 334.557 149.146C334.411 149.222 334.284 149.33 334.186 149.461L333.434 150.439C333.311 150.601 333.146 150.725 332.957 150.801C332.768 150.876 332.562 150.899 332.361 150.867C332.16 150.834 331.972 150.749 331.816 150.618C331.66 150.488 331.543 150.318 331.476 150.126L330.525 147.442C330.466 147.275 330.369 147.125 330.241 147.002C330.113 146.88 329.958 146.789 329.789 146.738C329.619 146.687 329.44 146.676 329.265 146.707C329.091 146.737 328.926 146.809 328.785 146.915L324.268 150.297L319.276 154.319C319.106 154.456 318.899 154.541 318.681 154.563C318.464 154.585 318.244 154.543 318.05 154.443L314.175 152.434C313.967 152.327 313.731 152.288 313.5 152.32L305.651 153.417C305.423 153.448 305.21 153.547 305.04 153.701C304.87 153.856 304.752 154.058 304.7 154.281L303.307 160.327C303.263 160.516 303.172 160.69 303.041 160.833C302.911 160.976 302.746 161.083 302.562 161.144C302.378 161.205 302.181 161.217 301.991 161.179C301.801 161.142 301.624 161.056 301.476 160.93C301.346 160.819 301.192 160.739 301.026 160.696C300.86 160.653 300.686 160.649 300.518 160.682C300.35 160.716 300.192 160.788 300.056 160.892C299.92 160.995 299.809 161.129 299.731 161.282L298.662 163.424C298.582 163.582 298.465 163.719 298.323 163.825C298.18 163.931 298.014 164.001 297.839 164.032L295.41 164.435C295.253 164.463 295.104 164.523 294.972 164.611L291.145 167.157C290.961 167.28 290.744 167.347 290.523 167.347H288.73C288.51 167.347 288.294 167.283 288.11 167.162C287.926 167.042 287.781 166.87 287.694 166.668L287.218 165.533C287.158 165.395 287.07 165.271 286.961 165.168C286.852 165.064 286.723 164.984 286.582 164.931C286.441 164.879 286.291 164.855 286.14 164.861C285.99 164.867 285.843 164.903 285.706 164.967L281.551 166.91C281.384 166.988 281.199 167.025 281.015 167.016C280.83 167.006 280.65 166.952 280.491 166.858L278.589 165.713C278.414 165.608 278.214 165.552 278.009 165.552H273.811C273.59 165.552 273.373 165.618 273.189 165.741L269 168.52C268.839 168.627 268.652 168.691 268.459 168.705C268.266 168.719 268.072 168.683 267.897 168.601L265.995 167.703C265.774 167.6 265.525 167.571 265.285 167.621C265.046 167.672 264.83 167.799 264.669 167.983L263.766 169.014C263.647 169.15 263.498 169.256 263.33 169.323C263.162 169.389 262.981 169.414 262.801 169.396C262.621 169.377 262.449 169.315 262.298 169.216C262.147 169.116 262.023 168.982 261.935 168.824L261.664 168.349C261.591 168.218 261.492 168.102 261.373 168.01C261.254 167.918 261.118 167.85 260.973 167.811C260.827 167.772 260.676 167.763 260.527 167.783C260.378 167.804 260.234 167.854 260.105 167.931L256.81 169.883C256.639 169.981 256.446 170.032 256.249 170.032C256.052 170.032 255.859 169.981 255.688 169.883L254.328 169.128C254.175 169.041 254.003 168.992 253.827 168.985C253.651 168.978 253.476 169.012 253.316 169.085L252.023 169.674C251.877 169.739 251.72 169.773 251.56 169.773C251.401 169.774 251.243 169.74 251.097 169.676C250.952 169.611 250.821 169.517 250.714 169.399C250.608 169.281 250.527 169.141 250.477 168.99L249.641 166.501C249.569 166.273 249.426 166.073 249.233 165.932C249.04 165.791 248.806 165.716 248.566 165.718H247.349C247.158 165.718 246.969 165.669 246.802 165.575L242.129 163.015C241.939 162.913 241.723 162.867 241.507 162.883C241.292 162.899 241.085 162.976 240.912 163.106L237.484 165.67C237.289 165.816 237.052 165.894 236.809 165.893H232.497C232.275 165.894 232.058 165.96 231.874 166.083L231.066 166.62C230.933 166.709 230.783 166.769 230.625 166.795C230.467 166.822 230.305 166.814 230.15 166.773C229.996 166.732 229.851 166.659 229.727 166.558C229.603 166.457 229.502 166.331 229.43 166.188L229.236 165.803C229.143 165.615 229 165.456 228.821 165.346C228.643 165.235 228.437 165.176 228.228 165.176H226.064C225.893 165.177 225.723 165.216 225.569 165.292C225.415 165.368 225.28 165.478 225.175 165.613L223.835 167.328C223.724 167.47 223.58 167.583 223.416 167.658C223.252 167.734 223.072 167.768 222.891 167.759C222.711 167.75 222.535 167.698 222.379 167.608C222.223 167.517 222.091 167.39 221.995 167.238L221.614 166.644C221.458 166.395 221.209 166.218 220.923 166.151C220.637 166.083 220.335 166.131 220.084 166.283L218.971 166.948C218.782 167.061 218.563 167.116 218.343 167.107C218.122 167.098 217.909 167.024 217.73 166.896L213.247 163.652C213.167 163.595 213.081 163.547 212.99 163.509L209.486 162.165C209.214 162.066 208.913 162.076 208.647 162.193C208.382 162.31 208.171 162.524 208.06 162.792L205.621 168.729C205.586 168.812 205.562 168.9 205.55 168.99L204.761 174.338C204.726 174.564 204.623 174.774 204.466 174.941L202.797 176.731C202.624 176.914 202.395 177.034 202.147 177.073C201.898 177.111 201.644 177.067 201.423 176.945L198.528 175.34C198.384 175.259 198.224 175.211 198.059 175.199C197.894 175.187 197.729 175.212 197.575 175.271C197.421 175.329 197.281 175.422 197.167 175.54C197.052 175.659 196.965 175.801 196.911 175.957L195.076 181.319C195.035 181.437 195.014 181.56 195.014 181.685V185.066C195.014 185.286 194.949 185.5 194.829 185.683C194.708 185.866 194.536 186.01 194.335 186.097L191.392 187.398C191.228 187.469 191.05 187.499 190.873 187.488C190.695 187.476 190.523 187.423 190.37 187.332L188.154 186.031C187.933 185.901 187.675 185.851 187.422 185.888L183.538 186.444C183.316 186.475 183.089 186.44 182.887 186.342C182.686 186.244 182.518 186.087 182.406 185.893L181.75 184.772C181.608 184.53 181.381 184.351 181.113 184.269L179.349 183.718C179.144 183.652 178.923 183.647 178.715 183.704C178.507 183.76 178.319 183.876 178.175 184.036L175.726 186.752C175.533 186.966 175.267 187.098 174.98 187.123L171.367 187.427C171.199 187.436 171.036 187.485 170.891 187.569L164.592 191.188C164.395 191.3 164.17 191.35 163.944 191.332C163.719 191.314 163.504 191.229 163.327 191.089L161.54 189.664C161.34 189.505 161.092 189.418 160.836 189.417H154.066C153.897 189.417 153.73 189.38 153.578 189.306C153.425 189.233 153.292 189.126 153.187 188.994L151.48 186.866C151.378 186.739 151.249 186.636 151.103 186.563C150.956 186.491 150.796 186.451 150.633 186.446C150.469 186.442 150.307 186.473 150.157 186.537C150.007 186.601 149.873 186.698 149.764 186.819L147.71 189.099C147.524 189.304 147.421 189.572 147.42 189.849V218.174C147.42 218.472 147.538 218.759 147.75 218.97C147.961 219.181 148.248 219.299 148.546 219.299H392.786C392.935 219.299 393.082 219.27 393.219 219.213C393.356 219.156 393.48 219.073 393.585 218.968C393.689 218.863 393.772 218.738 393.829 218.601C393.885 218.464 393.914 218.317 393.913 218.169L393.847 128.725C393.85 128.499 393.785 128.277 393.66 128.087C393.536 127.898 393.357 127.751 393.147 127.664C392.938 127.578 392.707 127.556 392.485 127.602C392.263 127.648 392.06 127.76 391.902 127.923Z" fill="#02C39A"/>
<path opacity="0.3" d="M391.683 164.602L388.004 167.052C387.874 167.139 387.76 167.247 387.666 167.37L385.379 170.386C385.241 170.565 385.061 170.708 384.856 170.804C384.651 170.9 384.426 170.945 384.2 170.937L383.454 170.899C383.198 170.886 382.95 170.803 382.738 170.659C382.525 170.515 382.357 170.316 382.251 170.082L381.775 169.071C381.669 168.833 381.498 168.63 381.282 168.485C381.066 168.34 380.813 168.258 380.553 168.25C380.292 168.242 380.035 168.307 379.81 168.437C379.585 168.568 379.401 168.76 379.28 168.99L378.329 170.809C378.21 171.032 378.033 171.219 377.816 171.348C377.599 171.478 377.35 171.546 377.097 171.545H372.381C372.07 171.547 371.768 171.443 371.523 171.252C371.278 171.061 371.105 170.793 371.031 170.491L369.899 165.965C369.836 165.712 369.704 165.483 369.517 165.302C369.33 165.121 369.096 164.996 368.842 164.941C368.587 164.886 368.323 164.904 368.078 164.991C367.833 165.079 367.617 165.234 367.456 165.438L360.657 174.024C360.465 174.268 360.197 174.441 359.895 174.514C359.593 174.587 359.276 174.557 358.993 174.428L354.624 172.457C354.395 172.35 354.142 172.307 353.89 172.333C353.639 172.359 353.4 172.453 353.198 172.604L351.634 173.758C351.559 173.814 351.49 173.878 351.429 173.948L347.302 178.512C347.164 178.671 346.991 178.797 346.796 178.879C346.602 178.961 346.391 178.998 346.18 178.987L343.485 178.816C343.338 178.808 343.191 178.82 343.047 178.854L340.618 179.476C340.341 179.549 340.048 179.534 339.78 179.433C339.512 179.333 339.282 179.152 339.12 178.916L338.845 178.508C338.713 178.316 338.535 178.16 338.327 178.055C338.12 177.949 337.889 177.898 337.656 177.904L334.946 177.985C334.633 177.99 334.332 178.105 334.095 178.308L333.43 178.864C333.272 178.996 333.087 179.092 332.888 179.144C332.689 179.196 332.481 179.204 332.279 179.166C332.076 179.128 331.885 179.046 331.718 178.926C331.551 178.805 331.413 178.65 331.314 178.47L330.61 177.197C330.439 176.886 330.155 176.652 329.816 176.543C329.478 176.435 329.11 176.459 328.789 176.613L324.23 178.802L319.186 181.405C319.021 181.489 318.841 181.54 318.657 181.554C318.472 181.568 318.287 181.544 318.111 181.485L314.094 180.156C313.913 180.096 313.723 180.074 313.533 180.089L305.755 180.749C305.491 180.777 305.24 180.877 305.03 181.039C304.82 181.201 304.66 181.418 304.567 181.666L303.44 184.81C303.372 184.999 303.264 185.171 303.123 185.314C302.982 185.457 302.812 185.568 302.624 185.64C302.436 185.711 302.235 185.741 302.034 185.727C301.834 185.713 301.638 185.657 301.462 185.56L301.414 185.537C301.126 185.377 300.789 185.325 300.466 185.391C300.142 185.457 299.853 185.637 299.651 185.898L298.766 187.028C298.532 187.322 298.19 187.512 297.815 187.555L295.381 187.816C295.244 187.83 295.11 187.864 294.982 187.916L291.126 189.564C290.953 189.635 290.767 189.672 290.58 189.673H288.725C288.499 189.673 288.275 189.618 288.075 189.512C287.874 189.406 287.703 189.253 287.575 189.065L287.309 188.676C287.142 188.432 286.901 188.248 286.623 188.15C286.344 188.052 286.042 188.045 285.759 188.13L281.437 189.436C281.141 189.525 280.823 189.513 280.534 189.403L278.528 188.633C278.376 188.574 278.215 188.541 278.052 188.538H273.745C273.558 188.538 273.373 188.577 273.203 188.652L268.924 190.466C268.623 190.596 268.286 190.615 267.973 190.519L265.857 189.887C265.651 189.826 265.434 189.813 265.222 189.849C265.01 189.885 264.809 189.97 264.636 190.096L263.709 190.775C263.428 190.98 263.08 191.073 262.735 191.035C262.389 190.997 262.07 190.832 261.84 190.571L261.702 190.414C261.515 190.201 261.268 190.05 260.992 189.981C260.717 189.912 260.427 189.929 260.162 190.029L256.715 191.345C256.408 191.457 256.071 191.457 255.764 191.345L254.252 190.804C253.976 190.708 253.678 190.7 253.397 190.78L251.97 191.193C251.658 191.283 251.324 191.261 251.026 191.131C250.728 191.001 250.485 190.771 250.34 190.481L249.807 189.412C249.691 189.181 249.513 188.987 249.293 188.851C249.073 188.716 248.82 188.643 248.561 188.643H247.325C247.164 188.645 247.003 188.62 246.85 188.567L242.053 186.885C241.881 186.824 241.698 186.797 241.515 186.807C241.332 186.817 241.153 186.863 240.988 186.942L237.484 188.624C237.295 188.713 237.089 188.76 236.88 188.761H232.454C232.266 188.762 232.081 188.799 231.907 188.871L231.004 189.26C230.721 189.38 230.407 189.403 230.11 189.327C229.813 189.251 229.549 189.079 229.359 188.837C229.229 188.67 229.063 188.535 228.872 188.442C228.682 188.349 228.473 188.3 228.261 188.301H226.026C225.704 188.3 225.392 188.411 225.142 188.614L223.844 189.678C223.577 189.899 223.237 190.011 222.891 189.994C222.545 189.976 222.219 189.83 221.976 189.583L221.681 189.289C221.491 189.097 221.248 188.965 220.984 188.909C220.72 188.852 220.445 188.874 220.193 188.97L218.9 189.469C218.546 189.601 218.155 189.587 217.811 189.431L213.261 187.322C213.181 187.284 213.096 187.255 213.009 187.237L209.439 186.358C209.157 186.288 208.861 186.308 208.591 186.415C208.321 186.523 208.092 186.712 207.936 186.957L205.692 190.452C205.607 190.586 205.544 190.734 205.507 190.889L204.827 193.857C204.746 194.196 204.543 194.494 204.257 194.693L202.773 195.71C202.593 195.834 202.385 195.913 202.168 195.942C201.95 195.97 201.729 195.945 201.523 195.871L198.471 194.788C198.152 194.676 197.802 194.683 197.488 194.809C197.174 194.935 196.917 195.171 196.764 195.472L195.157 198.474C195.051 198.676 194.996 198.901 194.995 199.129V200.483C194.994 200.787 194.894 201.082 194.709 201.324C194.525 201.565 194.266 201.74 193.973 201.822L191.301 202.563C191.018 202.643 190.716 202.63 190.441 202.525L188.111 201.646C187.915 201.571 187.703 201.541 187.493 201.561L183.476 201.926C183.262 201.947 183.046 201.918 182.845 201.84C182.645 201.763 182.465 201.639 182.321 201.48L181.845 200.953C181.647 200.731 181.381 200.581 181.089 200.525L179.259 200.155C179.072 200.12 178.879 200.122 178.693 200.162C178.507 200.202 178.331 200.279 178.175 200.388L175.764 202.102C175.549 202.254 175.295 202.342 175.032 202.359L171.338 202.553C171.199 202.562 171.061 202.591 170.929 202.639L164.516 205.014C164.336 205.082 164.144 205.111 163.953 205.099C163.761 205.088 163.574 205.036 163.403 204.947L161.549 203.997C161.353 203.897 161.137 203.845 160.917 203.845H154.023C153.705 203.845 153.396 203.736 153.148 203.537L151.48 202.202C151.243 202.013 150.951 201.906 150.649 201.897C150.346 201.889 150.048 201.979 149.802 202.154L148.014 203.427C147.833 203.556 147.686 203.727 147.584 203.924C147.482 204.122 147.429 204.34 147.429 204.562V217.913C147.429 218.282 147.576 218.636 147.837 218.897C148.098 219.158 148.453 219.304 148.822 219.304H392.52C392.89 219.304 393.244 219.158 393.505 218.897C393.766 218.636 393.913 218.282 393.913 217.913L393.847 165.779C393.85 165.526 393.784 165.277 393.656 165.058C393.528 164.84 393.343 164.66 393.12 164.539C392.898 164.418 392.646 164.36 392.393 164.371C392.14 164.382 391.895 164.462 391.683 164.602Z" fill="#02C39A"/>
<path d="M392.667 167.575C394.505 167.575 395.995 166.086 395.995 164.25C395.995 162.414 394.505 160.926 392.667 160.926C390.829 160.926 389.339 162.414 389.339 164.25C389.339 166.086 390.829 167.575 392.667 167.575Z" fill="#02C39A"/>
<path opacity="0.3" d="M392.454 197.139L387.932 198.645C387.846 198.675 387.763 198.714 387.685 198.763L385.203 200.402C385.023 200.52 384.81 200.579 384.595 200.573L383.05 200.535C382.906 200.532 382.764 200.5 382.633 200.44C382.503 200.38 382.385 200.295 382.289 200.188L381.338 199.143C381.244 199.039 381.129 198.955 381.002 198.895C380.874 198.835 380.736 198.801 380.595 198.796C380.454 198.79 380.314 198.812 380.182 198.861C380.05 198.91 379.929 198.985 379.826 199.082L378.224 200.582C378.029 200.768 377.771 200.872 377.501 200.872H371.948C371.751 200.873 371.556 200.819 371.388 200.715C371.22 200.61 371.084 200.461 370.998 200.283L369.728 197.752C369.662 197.62 369.569 197.503 369.455 197.409C369.341 197.315 369.208 197.246 369.066 197.206C368.924 197.166 368.774 197.157 368.628 197.178C368.482 197.199 368.342 197.251 368.216 197.329L360.358 202.302C360.12 202.45 359.833 202.5 359.559 202.439L354.177 201.228C353.978 201.181 353.77 201.195 353.578 201.266L351.615 201.993C351.563 202.009 351.513 202.031 351.467 202.059L347.127 204.463C346.959 204.554 346.771 204.6 346.58 204.596L343.366 204.491C343.311 204.486 343.255 204.486 343.2 204.491L340.109 204.885C339.84 204.918 339.569 204.849 339.349 204.691L338.721 204.216C338.535 204.079 338.31 204.007 338.079 204.011L334.689 204.059C334.554 204.059 334.42 204.087 334.295 204.14L332.773 204.781C332.587 204.858 332.383 204.88 332.184 204.846C331.986 204.811 331.801 204.721 331.651 204.586L330.406 203.484C330.279 203.37 330.126 203.288 329.96 203.246C329.795 203.204 329.621 203.202 329.455 203.242L324.254 204.496L318.905 205.878C318.761 205.909 318.612 205.909 318.468 205.878L313.951 205.128C313.879 205.123 313.806 205.123 313.733 205.128L305.38 205.503C305.219 205.51 305.063 205.553 304.922 205.63C304.781 205.706 304.66 205.814 304.567 205.944L303.307 207.678C303.181 207.854 303.004 207.987 302.8 208.059C302.596 208.132 302.374 208.139 302.166 208.082L300.82 207.711C300.677 207.673 300.527 207.666 300.381 207.689C300.234 207.712 300.094 207.765 299.969 207.844L298.624 208.704C298.469 208.8 298.292 208.855 298.11 208.865L295.258 209.022C295.204 209.017 295.15 209.017 295.096 209.022L290.979 209.901C290.905 209.916 290.831 209.923 290.755 209.924H288.34C288.116 209.924 287.898 209.853 287.717 209.72L287.09 209.245C286.979 209.163 286.853 209.103 286.72 209.07C286.586 209.036 286.447 209.03 286.31 209.05L281.171 209.82C281.053 209.839 280.932 209.839 280.814 209.82L278.399 209.345C278.333 209.338 278.266 209.338 278.199 209.345H273.564C273.491 209.338 273.418 209.338 273.345 209.345L268.643 210.342C268.518 210.366 268.389 210.366 268.263 210.342L265.463 209.92C265.286 209.896 265.107 209.915 264.94 209.977L263.143 210.632C262.998 210.686 262.843 210.707 262.69 210.694C262.536 210.681 262.387 210.634 262.254 210.556L261.403 210.081C261.187 209.954 260.931 209.91 260.685 209.958L256.406 210.77C256.279 210.793 256.148 210.793 256.021 210.77L253.962 210.404C253.85 210.387 253.737 210.387 253.625 210.404L251.352 210.732C251.19 210.757 251.024 210.743 250.868 210.692C250.712 210.641 250.57 210.553 250.454 210.437L249.703 209.72C249.502 209.524 249.232 209.413 248.951 209.411H247.149C247.089 209.416 247.029 209.416 246.969 209.411L241.711 208.49C241.568 208.459 241.421 208.459 241.278 208.49L237.303 209.44C237.222 209.459 237.139 209.469 237.056 209.468H232.269C232.196 209.461 232.123 209.461 232.05 209.468L230.429 209.815C230.156 209.891 229.864 209.857 229.616 209.72L229.169 209.43C228.998 209.322 228.801 209.264 228.598 209.264H225.703C225.566 209.265 225.43 209.292 225.304 209.345L223.278 210.171C223.139 210.23 222.988 210.257 222.837 210.251C222.686 210.245 222.538 210.207 222.404 210.138L221.329 209.597C221.121 209.492 220.883 209.459 220.654 209.502L218.534 209.91C218.39 209.941 218.24 209.941 218.096 209.91L213.18 208.77H213.071L208.892 208.253C208.614 208.221 208.334 208.299 208.112 208.471L205.735 210.314C205.602 210.417 205.496 210.55 205.426 210.703L204.894 211.886C204.834 212.016 204.748 212.132 204.642 212.229C204.536 212.325 204.411 212.399 204.276 212.446L202.45 213.068C202.281 213.13 202.099 213.145 201.922 213.111L197.862 212.389C197.7 212.361 197.534 212.371 197.376 212.418C197.219 212.465 197.074 212.548 196.954 212.66L195.342 214.165C195.237 214.265 195.153 214.385 195.095 214.518C195.038 214.651 195.009 214.795 195.01 214.94C195.01 215.195 194.917 215.441 194.749 215.633C194.582 215.825 194.35 215.95 194.097 215.984L191.049 216.407C190.936 216.426 190.82 216.426 190.707 216.407L187.95 215.885C187.867 215.875 187.785 215.875 187.702 215.885L183.096 216.094C182.902 216.101 182.71 216.057 182.539 215.965L181.731 215.524C181.607 215.453 181.469 215.409 181.327 215.396L178.907 215.153C178.746 215.137 178.584 215.156 178.432 215.21L175.579 216.222C175.474 216.259 175.363 216.28 175.251 216.284L171.196 216.393C171.14 216.388 171.085 216.388 171.029 216.393L164.159 217.661C164.01 217.692 163.857 217.692 163.708 217.661L161.369 217.063C161.281 217.042 161.192 217.031 161.102 217.029H153.729C153.593 217.031 153.459 217.005 153.334 216.953L151.023 216.032C150.782 215.939 150.514 215.939 150.272 216.032L148.123 216.797C147.917 216.869 147.739 217.003 147.613 217.181C147.487 217.359 147.419 217.571 147.42 217.789V218.264C147.419 218.403 147.446 218.541 147.499 218.669C147.551 218.798 147.629 218.914 147.727 219.013C147.825 219.111 147.942 219.189 148.07 219.242C148.198 219.296 148.336 219.323 148.475 219.323H392.843C392.982 219.323 393.12 219.296 393.248 219.242C393.377 219.189 393.493 219.111 393.591 219.013C393.689 218.914 393.767 218.798 393.82 218.669C393.873 218.541 393.899 218.403 393.899 218.264L393.837 198.189C393.844 198.019 393.809 197.849 393.736 197.695C393.663 197.541 393.555 197.407 393.419 197.304C393.283 197.201 393.124 197.132 392.956 197.104C392.788 197.075 392.616 197.087 392.454 197.139Z" fill="#02C39A"/>
<path d="M209.629 189.896C211.467 189.896 212.957 188.408 212.957 186.572C212.957 184.736 211.467 183.247 209.629 183.247C207.791 183.247 206.301 184.736 206.301 186.572C206.301 188.408 207.791 189.896 209.629 189.896Z" fill="#02C39A"/>
<path d="M369.372 169C371.21 169 372.7 167.511 372.7 165.675C372.7 163.839 371.21 162.35 369.372 162.35C367.534 162.35 366.044 163.839 366.044 165.675C366.044 167.511 367.534 169 369.372 169Z" fill="#02C39A"/>
<path d="M286.648 191.321C288.486 191.321 289.976 189.833 289.976 187.997C289.976 186.161 288.486 184.672 286.648 184.672C284.81 184.672 283.32 186.161 283.32 187.997C283.32 189.833 284.81 191.321 286.648 191.321Z" fill="#02C39A"/>
<path d="M329.911 179.448C331.749 179.448 333.239 177.96 333.239 176.123C333.239 174.287 331.749 172.799 329.911 172.799C328.073 172.799 326.583 174.287 326.583 176.123C326.583 177.96 328.073 179.448 329.911 179.448Z" fill="#02C39A"/>
<path d="M394.322 165.751C394.321 165.5 394.252 165.254 394.122 165.038C393.992 164.823 393.807 164.647 393.585 164.529C393.363 164.411 393.114 164.354 392.863 164.366C392.611 164.378 392.368 164.458 392.159 164.597L388.479 167.048C388.35 167.134 388.236 167.242 388.141 167.366L385.855 170.382C385.716 170.56 385.537 170.703 385.332 170.799C385.127 170.895 384.902 170.941 384.676 170.932L383.929 170.894C383.673 170.882 383.425 170.799 383.213 170.655C383.001 170.511 382.832 170.311 382.726 170.078L382.251 169.066C382.145 168.828 381.974 168.625 381.757 168.48C381.541 168.335 381.289 168.254 381.028 168.245C380.768 168.237 380.51 168.302 380.285 168.433C380.06 168.564 379.876 168.755 379.755 168.985L378.804 170.804C378.685 171.027 378.508 171.214 378.291 171.344C378.074 171.473 377.826 171.541 377.573 171.54H372.856C372.546 171.542 372.243 171.438 371.998 171.247C371.753 171.056 371.58 170.788 371.506 170.486L370.375 165.96C370.312 165.708 370.179 165.478 369.992 165.297C369.806 165.116 369.572 164.991 369.317 164.936C369.063 164.882 368.798 164.899 368.553 164.987C368.308 165.074 368.093 165.229 367.931 165.433L361.133 174.02C360.941 174.264 360.672 174.436 360.371 174.509C360.069 174.583 359.751 174.552 359.469 174.423L355.099 172.452C354.871 172.345 354.617 172.303 354.366 172.328C354.115 172.354 353.875 172.448 353.673 172.599L352.109 173.754C352.034 173.809 351.966 173.873 351.904 173.944L347.778 178.508C347.639 178.667 347.466 178.792 347.272 178.874C347.077 178.956 346.867 178.994 346.656 178.983L343.96 178.812C343.813 178.803 343.666 178.816 343.523 178.85L341.093 179.472C340.816 179.544 340.524 179.529 340.256 179.429C339.988 179.328 339.757 179.148 339.596 178.911L339.32 178.503C339.188 178.311 339.01 178.155 338.803 178.05C338.595 177.945 338.364 177.893 338.131 177.9L335.422 177.98C335.109 177.986 334.808 178.1 334.571 178.303L333.905 178.859C333.747 178.991 333.562 179.087 333.363 179.139C333.164 179.191 332.956 179.199 332.754 179.161C332.552 179.124 332.36 179.042 332.193 178.921C332.027 178.801 331.889 178.645 331.789 178.465L331.086 177.192C330.914 176.881 330.63 176.647 330.291 176.539C329.953 176.43 329.586 176.455 329.265 176.608L324.705 178.797L319.661 181.4C319.497 181.485 319.317 181.535 319.132 181.549C318.948 181.563 318.762 181.54 318.587 181.481L314.569 180.151C314.389 180.092 314.198 180.069 314.008 180.084L306.23 180.749C305.967 180.777 305.716 180.877 305.506 181.039C305.296 181.201 305.135 181.418 305.042 181.666L303.915 184.81C303.847 184.999 303.739 185.171 303.598 185.314C303.457 185.457 303.287 185.568 303.099 185.64C302.911 185.711 302.71 185.741 302.51 185.727C302.309 185.713 302.114 185.657 301.937 185.56L301.89 185.537C301.601 185.377 301.265 185.325 300.941 185.391C300.618 185.457 300.329 185.637 300.126 185.898L299.242 187.028C299.007 187.322 298.665 187.512 298.291 187.555L295.857 187.816C295.719 187.83 295.585 187.864 295.457 187.916L291.602 189.564C291.428 189.635 291.243 189.672 291.055 189.673H289.201C288.974 189.673 288.751 189.618 288.55 189.512C288.35 189.406 288.178 189.253 288.05 189.065L287.784 188.676C287.617 188.432 287.377 188.248 287.098 188.15C286.82 188.052 286.517 188.045 286.234 188.13L281.913 189.436C281.616 189.525 281.298 189.513 281.009 189.403L279.003 188.633C278.851 188.574 278.69 188.541 278.527 188.538H274.22C274.033 188.538 273.849 188.577 273.678 188.652L269.399 190.466C269.099 190.596 268.762 190.615 268.448 190.519L266.333 189.887C266.127 189.826 265.909 189.813 265.697 189.849C265.486 189.885 265.285 189.97 265.111 190.096L264.184 190.775C263.903 190.98 263.556 191.073 263.21 191.035C262.864 190.997 262.545 190.832 262.316 190.571L262.178 190.414C261.991 190.201 261.743 190.05 261.468 189.981C261.192 189.912 260.903 189.929 260.637 190.029L257.19 191.345C256.883 191.457 256.547 191.457 256.24 191.345L254.728 190.804C254.452 190.708 254.153 190.7 253.872 190.78L252.446 191.193C252.133 191.283 251.799 191.261 251.502 191.131C251.204 191.001 250.961 190.771 250.815 190.481L250.283 189.412C250.166 189.181 249.989 188.987 249.769 188.851C249.549 188.716 249.295 188.643 249.037 188.643H247.801C247.639 188.645 247.478 188.62 247.325 188.567L242.528 186.885C242.356 186.824 242.173 186.797 241.99 186.807C241.807 186.817 241.628 186.863 241.463 186.942L237.96 188.624C237.771 188.713 237.565 188.76 237.356 188.761H232.93C232.742 188.762 232.556 188.799 232.383 188.871L231.479 189.26C231.197 189.38 230.883 189.403 230.585 189.327C230.288 189.251 230.024 189.079 229.835 188.837C229.705 188.67 229.538 188.535 229.348 188.442C229.157 188.349 228.948 188.3 228.736 188.301H226.502C226.18 188.3 225.867 188.411 225.617 188.614L224.32 189.678C224.053 189.899 223.713 190.011 223.367 189.994C223.021 189.976 222.694 189.83 222.451 189.583L222.156 189.289C221.966 189.097 221.724 188.965 221.46 188.909C221.195 188.852 220.921 188.874 220.668 188.97L219.375 189.469C219.022 189.601 218.63 189.587 218.286 189.431L213.737 187.322C213.656 187.284 213.572 187.255 213.485 187.237L209.914 186.358C209.633 186.288 209.336 186.308 209.066 186.415C208.797 186.523 208.568 186.712 208.412 186.957L206.168 190.452C206.082 190.586 206.019 190.734 205.982 190.889L205.303 193.857C205.221 194.196 205.018 194.494 204.732 194.693L203.249 195.71C203.068 195.834 202.861 195.913 202.643 195.942C202.426 195.97 202.205 195.945 201.998 195.871L198.946 194.788C198.627 194.676 198.278 194.683 197.964 194.809C197.65 194.935 197.392 195.171 197.239 195.472L195.632 198.474C195.527 198.676 195.471 198.901 195.471 199.129V200.483C195.47 200.787 195.369 201.082 195.185 201.324C195 201.565 194.742 201.74 194.449 201.822L191.777 202.563C191.493 202.643 191.192 202.63 190.916 202.525L188.587 201.646C188.39 201.571 188.178 201.541 187.969 201.561L183.951 201.926C183.737 201.947 183.521 201.918 183.321 201.84C183.12 201.763 182.94 201.639 182.796 201.48L182.321 200.953C182.123 200.731 181.857 200.581 181.565 200.525L179.734 200.155C179.547 200.12 179.355 200.122 179.169 200.162C178.983 200.202 178.806 200.279 178.65 200.388L176.24 202.102C176.024 202.254 175.771 202.342 175.508 202.359L171.814 202.553C171.674 202.562 171.536 202.591 171.405 202.639L164.991 205.014C164.812 205.082 164.62 205.111 164.428 205.099C164.236 205.088 164.049 205.036 163.879 204.947L162.025 203.997C161.829 203.897 161.612 203.845 161.392 203.845H154.499C154.18 203.845 153.872 203.736 153.624 203.537L151.955 202.202C151.719 202.013 151.427 201.906 151.124 201.897C150.821 201.889 150.524 201.979 150.277 202.154L148.489 203.427C148.309 203.556 148.161 203.727 148.06 203.924C147.958 204.122 147.905 204.34 147.905 204.562" stroke="#02C39A" stroke-miterlimit="10"/>
<path opacity="0.2" d="M411.685 238.791H133.561V238.838H411.685V238.791Z" fill="#F2F2F2"/>
<path opacity="0.3" d="M176.349 241.189C177.662 241.189 178.726 240.126 178.726 238.814C178.726 237.503 177.662 236.44 176.349 236.44C175.036 236.44 173.972 237.503 173.972 238.814C173.972 240.126 175.036 241.189 176.349 241.189Z" fill="#02C39A"/>
<path opacity="0.3" d="M211.055 241.189C212.368 241.189 213.432 240.126 213.432 238.814C213.432 237.503 212.368 236.44 211.055 236.44C209.742 236.44 208.678 237.503 208.678 238.814C208.678 240.126 209.742 241.189 211.055 241.189Z" fill="#02C39A"/>
<path opacity="0.3" d="M245.761 241.189C247.074 241.189 248.138 240.126 248.138 238.814C248.138 237.503 247.074 236.44 245.761 236.44C244.448 236.44 243.384 237.503 243.384 238.814C243.384 240.126 244.448 241.189 245.761 241.189Z" fill="#02C39A"/>
<path opacity="0.3" d="M280.467 241.189C281.78 241.189 282.844 240.126 282.844 238.814C282.844 237.503 281.78 236.44 280.467 236.44C279.154 236.44 278.09 237.503 278.09 238.814C278.09 240.126 279.154 241.189 280.467 241.189Z" fill="#02C39A"/>
<path opacity="0.3" d="M315.173 241.189C316.486 241.189 317.55 240.126 317.55 238.814C317.55 237.503 316.486 236.44 315.173 236.44C313.86 236.44 312.796 237.503 312.796 238.814C312.796 240.126 313.86 241.189 315.173 241.189Z" fill="#02C39A"/>
<path opacity="0.3" d="M349.879 241.189C351.192 241.189 352.256 240.126 352.256 238.814C352.256 237.503 351.192 236.44 349.879 236.44C348.566 236.44 347.502 237.503 347.502 238.814C347.502 240.126 348.566 241.189 349.879 241.189Z" fill="#02C39A"/>
<path opacity="0.3" d="M384.585 241.189C385.898 241.189 386.962 240.126 386.962 238.814C386.962 237.503 385.898 236.44 384.585 236.44C383.272 236.44 382.208 237.503 382.208 238.814C382.208 240.126 383.272 241.189 384.585 241.189Z" fill="#02C39A"/>
<path d="M113.959 330.391C112.533 327.774 114.149 324.568 115.999 322.236C117.848 319.904 120.092 317.487 120.045 314.499C119.973 310.225 115.433 307.698 111.806 305.433C109.112 303.75 106.628 301.753 104.408 299.482C103.479 298.609 102.71 297.58 102.135 296.443C101.384 294.771 101.403 292.871 101.451 291.043C101.613 284.938 101.915 278.845 102.359 272.763" stroke="#3F3D56" stroke-width="4" stroke-miterlimit="10"/>
<path d="M95.4605 272.44C95.5111 271.323 95.8425 270.237 96.4242 269.283C97.0058 268.328 97.819 267.535 98.7885 266.978L100.281 269.927L100.234 266.356C100.948 266.147 101.692 266.057 102.435 266.09C103.748 266.155 105.013 266.607 106.069 267.389C107.125 268.171 107.926 269.248 108.37 270.484C108.814 271.721 108.882 273.061 108.565 274.335C108.247 275.61 107.559 276.762 106.587 277.646C105.615 278.531 104.403 279.108 103.103 279.305C101.803 279.501 100.474 279.309 99.2828 278.752C98.0921 278.195 97.0932 277.298 96.4121 276.175C95.731 275.052 95.3982 273.752 95.4558 272.44H95.4605Z" fill="#57B894"/>
<path d="M107.36 317.553C108.06 318.908 109.205 319.982 110.603 320.594C112.001 321.206 113.567 321.32 115.039 320.916C116.511 320.512 117.799 319.615 118.688 318.375C119.576 317.135 120.011 315.627 119.919 314.105C119.828 312.583 119.215 311.139 118.184 310.014C117.153 308.89 115.767 308.153 114.257 307.928C112.747 307.703 111.206 308.004 109.892 308.779C108.577 309.554 107.569 310.757 107.037 312.187L111.207 315.573L106.619 314.514C106.62 315.571 106.875 316.613 107.36 317.553Z" fill="#57B894"/>
<path d="M110.655 304.611C112.313 304.728 113.955 304.221 115.257 303.19C116.56 302.159 117.43 300.679 117.695 299.04C117.96 297.401 117.602 295.722 116.69 294.334C115.779 292.945 114.381 291.947 112.771 291.537L112.809 294.282L111.297 291.294C110.421 291.252 109.546 291.382 108.721 291.678C107.896 291.974 107.138 292.43 106.49 293.019C105.842 293.609 105.317 294.321 104.945 295.113C104.573 295.906 104.361 296.765 104.322 297.639C104.283 298.409 104.38 299.179 104.608 299.914C105.009 301.224 105.805 302.378 106.887 303.219C107.97 304.06 109.286 304.546 110.655 304.611Z" fill="#57B894"/>
<path d="M94.4574 293.845C95.4816 293.882 96.5007 293.683 97.4352 293.263C98.3697 292.842 99.1944 292.212 99.8449 291.421C100.496 290.63 100.954 289.699 101.186 288.702C101.417 287.704 101.415 286.667 101.179 285.671C100.943 284.674 100.481 283.746 99.8265 282.957C99.1725 282.169 98.3451 281.542 97.4088 281.126C96.4725 280.709 95.4525 280.515 94.4285 280.557C93.4044 280.599 92.4039 280.876 91.505 281.368L92.684 284.598L90.2594 282.271C88.96 283.459 88.1855 285.114 88.1057 286.873C88.074 287.49 88.1301 288.109 88.2721 288.711C88.605 290.121 89.3887 291.385 90.5047 292.312C91.6206 293.238 93.0081 293.776 94.4574 293.845Z" fill="#57B894"/>
<path opacity="0.1" d="M96.3591 274.216C97.8995 274.382 99.397 274.862 100.942 274.957C102.487 275.052 104.185 274.681 105.164 273.484C105.687 272.838 105.953 272.017 106.395 271.314C106.818 270.657 107.396 270.113 108.078 269.732C108.481 270.573 108.702 271.489 108.728 272.42C108.753 273.352 108.582 274.279 108.226 275.14C107.87 276.001 107.337 276.778 106.661 277.42C105.984 278.063 105.181 278.556 104.302 278.867C103.423 279.179 102.488 279.303 101.558 279.231C100.628 279.159 99.7232 278.892 98.903 278.448C98.0828 278.004 97.3652 277.393 96.7967 276.654C96.2282 275.915 95.8216 275.065 95.6031 274.159C95.8567 274.168 96.1087 274.187 96.3591 274.216Z" fill="black"/>
<path opacity="0.1" d="M94.4574 293.845C95.6082 293.903 96.7544 293.662 97.7839 293.145C98.8134 292.628 99.6909 291.853 100.331 290.896C100.97 289.938 101.35 288.831 101.433 287.683C101.516 286.535 101.3 285.385 100.804 284.346C100.275 284.702 99.8196 285.156 99.4636 285.685C98.9882 286.403 98.6982 287.229 98.1419 287.889C97.1008 289.11 95.3274 289.509 93.7157 289.437C92.104 289.366 90.5494 288.905 88.9615 288.758C88.738 288.758 88.5146 288.725 88.2864 288.72C88.6204 290.127 89.4028 291.387 90.5157 292.311C91.6286 293.236 93.0119 293.774 94.4574 293.845Z" fill="black"/>
<path opacity="0.1" d="M110.655 304.611C111.798 304.671 112.936 304.435 113.961 303.927C114.986 303.418 115.862 302.655 116.505 301.709C117.148 300.764 117.537 299.669 117.633 298.531C117.729 297.392 117.53 296.247 117.054 295.208C116.501 295.569 116.017 296.028 115.628 296.561C115.11 297.293 114.787 298.133 114.202 298.808C113.075 300.062 111.183 300.503 109.481 300.461C107.779 300.418 106.234 300.024 104.593 299.895C104.992 301.211 105.789 302.371 106.874 303.215C107.96 304.06 109.281 304.548 110.655 304.611Z" fill="black"/>
<path opacity="0.1" d="M107.36 317.553C108.082 319.165 109.415 320.424 111.067 321.054C112.718 321.683 114.552 321.632 116.165 320.911C117.779 320.19 119.039 318.858 119.669 317.209C120.3 315.559 120.248 313.727 119.526 312.115C118.976 312.473 118.482 312.912 118.062 313.417C117.425 314.191 117.007 315.069 116.275 315.791C114.91 317.131 112.709 317.691 110.745 317.734C109.615 317.738 108.484 317.678 107.36 317.553Z" fill="black"/>
<path d="M124.024 327.38C124.024 327.38 118.756 327.218 117.168 326.088C115.58 324.957 109.086 323.613 108.677 325.423C108.268 327.232 100.762 334.447 106.704 334.475C112.647 334.504 120.52 333.549 122.108 332.575C123.696 331.602 124.024 327.38 124.024 327.38Z" fill="#656380"/>
<path opacity="0.2" d="M106.6 333.843C112.547 333.891 120.416 332.922 121.999 331.944C123.206 331.208 123.686 328.572 123.848 327.361H124.024C124.024 327.361 123.691 331.602 122.122 332.585C120.553 333.568 112.666 334.523 106.719 334.485C105.002 334.485 104.413 333.862 104.446 332.96C104.669 333.492 105.321 333.834 106.6 333.843Z" fill="black"/>
<path d="M455.918 268.92C455.572 269.912 455.441 270.966 455.533 272.012C455.764 273.057 456.254 274.027 456.959 274.833C457.312 275.395 457.861 275.806 458.499 275.987C458.83 276.018 459.164 275.958 459.463 275.813C459.762 275.668 460.016 275.444 460.197 275.166C460.554 274.604 460.766 273.963 460.815 273.299C460.949 271.532 460.861 269.754 460.553 268.008C460.354 266.541 460.301 264.926 459.911 263.506C458.904 263.506 457.739 263.321 457.178 264.28C456.46 265.529 456.289 267.524 455.918 268.92Z" fill="#FFC0C6"/>
<path d="M461.433 242.775C461.186 243.473 460.839 244.138 460.61 244.846C460.392 245.583 460.233 246.335 460.135 247.097C459.429 251.569 458.477 255.999 457.282 260.367C456.857 261.65 456.617 262.987 456.569 264.337L459.289 264.242C459.545 264.201 459.806 264.259 460.021 264.404C460.254 264.613 460.411 265.073 460.706 264.955C461.215 262.345 461.573 259.708 461.775 257.057C461.885 255.157 461.832 253.295 461.956 251.419C462.194 247.681 463.306 243.421 461.851 239.807C461.906 240.814 461.764 241.822 461.433 242.775Z" fill="#3F3D56"/>
<path opacity="0.1" d="M461.433 242.775C461.186 243.473 460.839 244.138 460.61 244.846C460.392 245.583 460.233 246.335 460.135 247.097C459.429 251.569 458.477 255.999 457.282 260.367C456.857 261.65 456.617 262.987 456.569 264.337L459.289 264.242C459.545 264.201 459.806 264.259 460.021 264.404C460.254 264.613 460.411 265.073 460.706 264.955C461.215 262.345 461.573 259.708 461.775 257.057C461.885 255.157 461.832 253.295 461.956 251.419C462.194 247.681 463.306 243.421 461.851 239.807C461.906 240.814 461.764 241.822 461.433 242.775Z" fill="black"/>
<path d="M464.813 220.387C464.148 220.957 463.919 221.869 463.724 222.724L462.146 229.667C461.785 231.253 461.423 232.84 461.195 234.45C460.197 241.175 461.352 248.09 460.244 254.796C459.924 256.291 459.711 257.806 459.607 259.331C459.56 262.124 460.639 264.902 460.192 267.657C460.042 268.146 460.042 268.669 460.192 269.158C460.42 269.633 461.19 269.785 461.404 269.324C461.442 269.24 461.467 269.15 461.476 269.058L463.121 258.69C463.515 256.225 463.905 253.722 463.634 251.239C463.449 249.548 462.954 247.857 463.225 246.176C463.404 245.343 463.647 244.525 463.953 243.73C465.541 238.981 465.322 233.818 464.428 228.907C464.247 228.194 464.196 227.454 464.276 226.723C464.495 225.521 465.426 224.6 466.054 223.555C466.529 222.766 467.347 221.033 467.005 220.083C466.653 218.972 465.484 219.812 464.813 220.387Z" fill="#3F3D56"/>
<path d="M467.447 320.778C467.228 320.755 467.007 320.794 466.81 320.892C466.643 321.013 466.514 321.177 466.434 321.367C465.907 322.455 465.536 323.713 464.533 324.416C464.028 324.731 463.473 324.959 462.892 325.09L458.423 326.363C457.848 326.525 457.192 326.762 456.997 327.313C456.802 327.864 457.221 328.538 457.758 328.861C458.557 329.242 459.442 329.405 460.325 329.336L466.796 329.431C467.41 329.475 468.028 329.412 468.621 329.246C469.377 328.98 470.014 328.377 470.808 328.296C471.455 328.225 472.078 328.505 472.71 328.648C474.027 328.937 475.391 328.648 476.699 328.315C476.936 328.282 477.157 328.176 477.331 328.011C477.473 327.805 477.542 327.558 477.526 327.308C477.578 326.202 477.597 325.1 477.592 323.984C477.592 322.982 477.474 321.818 476.642 321.267C476.259 321.048 475.831 320.917 475.391 320.883C472.738 320.545 470.119 320.797 467.447 320.778Z" fill="#575A88"/>
<path d="M484.567 334.841C484.384 335.272 484.153 335.682 483.878 336.061L481.154 340.184C480.041 341.86 478.891 343.655 478.814 345.664C480.63 346.363 482.58 346.644 484.52 346.486C485.491 346.461 486.436 346.167 487.249 345.636C488.418 344.776 488.879 343.261 489.26 341.874C489.287 341.69 489.379 341.521 489.521 341.4C489.764 341.233 490.092 341.4 490.386 341.338C490.99 341.262 491.199 340.502 491.242 339.913C491.362 338.035 491.202 336.149 490.767 334.318C490.734 334.09 490.632 333.876 490.477 333.706C490.296 333.57 490.079 333.489 489.854 333.473C488.494 333.24 487.134 332.97 485.77 332.77C483.968 332.48 485.076 333.544 484.567 334.841Z" fill="#575A88"/>
<path d="M462.07 261.383C460.753 263.055 460.33 265.287 460.43 267.41C460.53 269.533 461.114 271.604 461.604 273.674C462.407 277.044 462.989 280.463 463.344 283.909C463.4 284.873 463.56 285.829 463.82 286.759C464.052 287.481 464.414 288.155 464.623 288.882C464.88 289.765 464.904 290.705 465.141 291.594C465.462 292.553 465.873 293.48 466.368 294.362C468.54 298.798 469.006 303.861 469.044 308.8C469.044 310.135 469.044 311.465 469.168 312.79C469.444 315.478 470.276 318.489 468.664 320.655C469.073 322.127 471.041 322.407 472.544 322.212C474.309 321.993 476.036 321.529 477.673 320.835C477.198 319.828 476.504 318.655 476.537 317.511C476.637 316.615 476.865 315.739 477.212 314.908C478.073 312.296 478.163 309.503 478.211 306.753C478.246 305.905 478.233 305.055 478.173 304.208C478.089 303.426 477.962 302.649 477.792 301.881L475.952 292.672C475.629 291.054 475.586 289.393 475.824 287.761C476.17 285.826 476.827 283.959 477.768 282.233C479.97 277.792 480.73 272.786 481.163 267.847C481.396 265.149 481.453 262.148 479.737 260.053C478.676 258.844 477.239 258.025 475.658 257.726C474.09 257.44 472.489 257.378 470.903 257.541C467.723 257.807 464.043 258.885 462.07 261.383Z" fill="#3F3D56"/>
<path d="M462.455 262.566C461.847 264.608 463.358 266.598 464.138 268.583C464.585 269.728 464.808 270.958 465.493 271.998C466.339 273.266 467.794 274.016 468.712 275.237C469.629 276.457 469.895 277.887 470.613 279.155C471.331 280.423 472.515 281.478 473.181 282.798C474.189 284.769 474.041 287.134 474.75 289.233C475.253 290.739 476.2 292.083 476.566 293.636C476.727 294.334 476.77 295.061 476.951 295.744C477.374 297.378 478.534 298.803 478.653 300.494C478.729 301.6 478.358 302.816 478.943 303.757C479.295 304.331 479.932 304.668 480.369 305.181C480.689 305.648 480.919 306.17 481.049 306.72L482 309.831C482.917 312.851 483.022 315.972 483.901 319.007C484.781 322.041 485.404 325.323 484.377 328.315C483.963 329.555 483.274 330.828 483.621 332.086C483.769 332.531 484.012 332.939 484.334 333.28C484.656 333.621 485.049 333.888 485.485 334.062C486.362 334.398 487.293 334.574 488.233 334.58C489.492 334.646 490.847 334.58 491.889 333.881C491.377 330.066 491.174 326.217 491.28 322.369C491.399 319.861 491.755 317.363 491.755 314.851C491.703 313.26 491.552 311.674 491.304 310.102C491.019 307.749 490.516 305.427 489.801 303.168C489.403 302.158 489.07 301.123 488.803 300.071C488.651 299.354 488.603 298.618 488.499 297.891C488.394 297.165 488.237 296.466 488.08 295.721L487.443 292.786C487.301 292.14 486.911 291.575 486.882 290.914L486.687 286.64C486.374 279.64 486.069 272.525 487.757 265.743C486.773 262.827 485.114 259.754 482.285 258.534C481.121 258.069 479.878 257.832 478.624 257.835C472.848 257.655 467.675 260.129 462.455 262.566Z" fill="#3F3D56"/>
<path d="M466.772 214.693C467.043 214.87 467.292 215.079 467.514 215.315C467.777 215.638 467.986 216.002 468.132 216.393C468.67 217.693 468.991 219.073 469.082 220.477C472.168 218.314 475.005 215.818 477.545 213.035C476.409 213.121 475.363 212.308 474.821 211.311C474.344 210.277 474.069 209.162 474.013 208.025C473.984 207.811 471.051 209.055 470.813 209.183C469.767 209.753 468.788 210.433 467.766 211.04C467.275 211.34 466.768 211.615 466.249 211.862C465.773 212.081 465.022 212.18 464.628 212.494C463.577 213.339 466.125 214.241 466.772 214.693Z" fill="#FFC0C6"/>
<path d="M466.296 217.908C466.178 218.825 466.334 219.76 466.197 220.672C466.002 221.988 465.246 223.132 464.675 224.339C463.116 227.725 463.249 231.605 463.178 235.328C463.106 239.403 462.769 243.464 462.426 247.525L461.804 254.957C461.694 256.24 461.585 257.531 461.328 258.8C461.193 259.333 461.127 259.883 461.133 260.433C461.214 261.096 461.41 261.739 461.713 262.333C461.996 263.124 462.449 263.844 463.04 264.442C463.341 264.735 463.727 264.925 464.143 264.986C464.559 265.046 464.983 264.974 465.355 264.779L465.916 263.093C465.937 263.767 466.21 264.41 466.682 264.893C467.154 265.375 467.79 265.664 468.464 265.7C468.949 265.683 469.429 265.6 469.891 265.453L474.288 264.261C475.24 264.046 476.164 263.728 477.046 263.311C478.947 262.3 480.222 260.4 480.906 258.367C481.591 256.335 481.729 254.174 481.809 252.036C481.985 247.102 481.852 242.12 480.806 237.314C480.369 235.295 479.77 233.31 479.409 231.277C478.988 228.535 478.782 225.764 478.791 222.99L478.638 216.122C478.679 215.27 478.535 214.42 478.215 213.629C478.047 213.239 477.76 212.912 477.394 212.694C477.029 212.477 476.604 212.38 476.18 212.418C474.864 212.665 474.555 214.36 473.841 215.495C473.233 216.469 472.211 217.096 471.227 217.689C470.58 218.079 469.772 218.478 469.106 218.117C468.441 217.756 468.445 216.592 467.761 216.293C466.853 215.804 466.377 217.205 466.296 217.908Z" fill="#F2F2F2"/>
<path d="M472.596 219.836C471.35 223.018 470.694 226.395 470.067 229.757C469.406 233.381 468.812 237.1 469.415 240.733C470.556 247.605 475.777 253.157 477.555 259.892C477.864 261.06 478.068 262.266 478.505 263.397C479.185 265.297 480.407 266.911 481.61 268.512C482.257 269.371 483.212 270.336 484.23 269.989C484.986 269.728 485.318 268.868 485.894 268.308C486.697 267.524 487.928 267.386 489.05 267.438C490.172 267.491 491.323 267.695 492.412 267.438C493.5 267.182 494.537 266.208 494.427 265.064C494.356 264.347 493.852 263.763 493.477 263.164C492.383 261.53 491.965 259.545 491.646 257.603C489.816 246.399 490.634 234.882 488.689 223.697C488.447 222.273 488.142 220.848 487.339 219.679C486.943 219.183 486.577 218.665 486.241 218.126C485.936 217.542 485.803 216.863 485.404 216.336C484.833 215.586 483.854 215.305 482.955 215.016C481.733 214.621 480.545 214.127 479.404 213.539C478.539 213.092 477.312 211.857 476.437 212.446C475.563 213.035 474.902 215.092 474.431 215.984C473.747 217.233 473.134 218.519 472.596 219.836Z" fill="#3F3D56"/>
<path d="M476.361 266.137C475.686 266.294 474.968 266.08 474.288 266.232C473.171 266.489 472.529 267.624 472.025 268.65C471.84 268.967 471.725 269.32 471.688 269.685C471.675 269.867 471.721 270.049 471.818 270.203C471.916 270.358 472.06 270.477 472.23 270.545C472.418 270.572 472.611 270.547 472.786 270.473C472.961 270.398 473.113 270.277 473.224 270.122C473.441 269.811 473.697 269.529 473.984 269.281C474.773 268.754 475.848 269.314 476.461 270.036C477.074 270.758 477.536 271.665 478.363 272.098C478.842 272.311 479.356 272.437 479.879 272.468C480.429 272.558 480.989 272.558 481.539 272.468C481.815 272.424 482.077 272.315 482.302 272.15C482.528 271.984 482.711 271.768 482.837 271.518C482.958 271.19 483.011 270.841 482.993 270.492L483.074 265.743C483.107 265.465 483.051 265.184 482.913 264.94C482.746 264.747 482.526 264.609 482.28 264.541C481.396 264.204 479.48 263.06 478.591 263.634C477.597 264.337 477.788 265.81 476.361 266.137Z" fill="#FFC0C6"/>
<path d="M467.228 214.617C471.881 214.617 475.653 210.849 475.653 206.201C475.653 201.553 471.881 197.785 467.228 197.785C462.576 197.785 458.804 201.553 458.804 206.201C458.804 210.849 462.576 214.617 467.228 214.617Z" fill="#FFC0C6"/>
<path d="M466.401 205.284C466.337 204.981 466.191 204.701 465.978 204.475C465.765 204.25 465.493 204.088 465.194 204.007C464.96 203.988 464.728 203.955 464.499 203.907C463.705 203.636 463.724 202.425 463.045 201.941C462.526 201.575 461.813 201.765 461.248 202.04C460.682 202.316 460.111 202.686 459.484 202.653C459.091 202.602 458.726 202.427 458.44 202.154C458.154 201.88 457.963 201.523 457.896 201.133C457.778 200.349 457.929 199.547 458.324 198.858C459.588 196.379 462.236 194.959 464.799 193.876C465.909 193.36 467.088 193.004 468.298 192.817C469.518 192.634 470.763 192.899 471.802 193.563C472.13 193.791 472.415 194.066 472.753 194.28C473.085 194.476 473.427 194.652 473.78 194.807C477.165 196.503 478.929 200.758 478.001 204.429C477.678 205.707 477.051 206.909 476.856 208.205C476.829 208.557 476.738 208.901 476.589 209.221C476.157 209.981 475.106 210.053 474.212 210.029C473.974 210.049 473.736 209.993 473.532 209.867C473.347 209.681 473.228 209.439 473.195 209.179C472.843 207.754 472.292 206.296 471.136 205.379C470.518 204.904 469.52 204.657 469.016 205.261C468.814 205.579 468.655 205.922 468.541 206.282C468.293 206.79 467.533 207.364 466.919 207.231C466.059 207.027 466.606 206.077 466.401 205.284Z" fill="#3F3D56"/>
<path opacity="0.1" d="M487.149 216.521C486.136 216.402 485.941 221.703 484.919 221.707C484.629 221.707 484.681 220.591 484.443 220.758C484.206 220.924 485.057 224.557 484.919 224.842C484.401 225.911 485.432 221.37 484.919 222.439C484.239 223.835 484.548 224.291 484.196 225.806C483.417 229.131 479.532 231.543 480.322 234.858C481.241 238.486 481.911 242.172 482.328 245.891C482.467 247.078 482.488 248.276 482.39 249.467C482.119 252.051 480.935 254.44 479.742 256.753C478.696 258.776 477.631 260.789 476.78 262.898C476.509 263.411 476.425 264.002 476.542 264.57C476.894 265.639 478.31 265.753 479.394 266.061C481.615 266.693 483.512 268.911 485.765 268.393C486.773 265.335 486.654 262.11 487.534 259.008C488.437 255.831 490.548 253.067 491.233 249.838C491.47 248.502 491.585 247.148 491.575 245.791L491.908 230.807C491.951 229.916 491.921 229.024 491.817 228.138C491.654 227.228 491.413 226.334 491.099 225.464L489.359 220.24C488.903 218.844 488.58 216.692 487.149 216.521Z" fill="black"/>
<path d="M487.871 216.521C486.857 216.402 485.836 216.345 484.814 216.35C484.516 216.3 484.209 216.363 483.955 216.528C483.7 216.692 483.517 216.946 483.44 217.238L481.886 220.435C481.158 221.808 480.583 223.258 480.169 224.756C479.39 228.081 480.255 231.534 481.044 234.849C481.964 238.476 482.634 242.162 483.051 245.881C483.19 247.068 483.211 248.266 483.112 249.458C482.841 252.041 481.658 254.43 480.464 256.743C479.418 258.766 478.353 260.78 477.502 262.889C477.229 263.401 477.145 263.993 477.265 264.56C477.616 265.629 479.033 265.743 480.117 266.052C482.337 266.683 484.234 268.901 486.488 268.384C487.496 265.325 487.377 262.1 488.256 258.999C489.16 255.822 491.271 253.058 491.955 249.828C492.193 248.493 492.308 247.138 492.298 245.782L492.626 230.798C492.674 229.907 492.644 229.014 492.535 228.128C492.375 227.218 492.137 226.324 491.822 225.455L490.082 220.23C489.626 218.843 489.302 216.692 487.871 216.521Z" fill="#3F3D56"/>
</g>
<defs>
<clipPath id="clip0">
<rect width="541" height="352" fill="white"/>
</clipPath>
</defs>
</svg>
